<svg xmlns="http://www.w3.org/2000/svg" viewBox="0 0 148.34 173.58"><defs><style>.cls-1{fill:#35539c;}.cls-2{fill:#f39b30;}.cls-3{fill:#1c2049;}.cls-4{fill:#e75c52;}</style></defs><title>1</title><g id="Слой_2" data-name="Слой 2"><g id="Слой_1-2" data-name="Слой 1"><polygon class="cls-1" points="83.75 0.1 83.75 28.29 55.77 28.29 27.9 28.29 27.9 112.4 55.77 112.4 84 112.4 111.88 112.4 111.88 28.29 111.88 28.29 111.88 28.23 83.75 0.1"/><polygon class="cls-2" points="0 84.41 27.8 84.41 27.8 84.28 27.81 84.28 83.98 28.12 55.92 0.06 55.89 0.09 55.89 0 0 0 0 28.52 0 55.89 0 84.41"/><polygon class="cls-3" points="0 84.38 0 84.44 28.12 112.56 28.12 84.38 0 84.38"/><polygon class="cls-4" points="0.05 56.25 0.11 56.25 28.23 84.37 0.05 84.37 0.05 56.25"/><polygon class="cls-2" points="83.98 28.12 83.92 28.12 55.8 0 83.98 0 83.98 28.12"/><polygon class="cls-1" points="120.22 60.99 120.22 89.17 92.24 89.17 64.36 89.17 64.36 173.29 92.24 173.29 120.47 173.29 148.34 173.29 148.34 89.17 148.34 89.17 148.34 89.11 120.22 60.99"/><polygon class="cls-3" points="36.21 145.4 36.21 145.46 64.33 173.58 64.33 145.4 36.21 145.4"/><polygon class="cls-2" points="120.47 89.17 120.22 88.92 120.22 60.99 92.42 60.99 92.42 61.12 92.41 61.12 36.25 117.28 64.3 145.34 64.33 145.31 64.33 145.4 120.22 145.4 120.22 116.88 120.22 89.51 120.22 89.42 120.47 89.17"/><polygon class="cls-4" points="36.27 117.27 36.33 117.27 64.45 145.39 36.27 145.39 36.27 117.27"/></g></g></svg>