<svg xmlns="http://www.w3.org/2000/svg" viewBox="0 0 815.4 300"><defs><style>.cls-1{fill:#1c2049;}.cls-2{fill:#35539c;}.cls-3{fill:#f39b30;}.cls-4{fill:#e75c52;}</style></defs><title>404</title><g id="Слой_2" data-name="Слой 2"><g id="Слой_1-2" data-name="Слой 1"><polygon class="cls-1" points="21.55 214.45 21.55 214.59 86.05 279.08 86.05 214.45 21.55 214.45"/><polygon class="cls-2" points="214.23 20.86 214.23 85.49 150.04 85.49 86.12 85.49 86.12 278.4 150.04 278.4 214.8 278.4 278.72 278.4 278.72 85.49 278.72 85.49 278.72 85.35 214.23 20.86"/><polygon class="cls-3" points="214.8 85.49 214.23 84.92 214.23 20.86 150.46 20.86 150.46 21.15 150.45 21.14 21.63 149.96 85.98 214.31 86.05 214.24 86.05 214.45 214.23 214.45 214.23 149.03 214.23 86.27 214.23 86.06 214.8 85.49"/><polygon class="cls-4" points="21.68 149.93 21.82 149.93 86.31 214.42 21.68 214.42 21.68 149.93"/><polygon class="cls-1" points="536.61 214.45 536.61 214.59 601.11 279.08 601.11 214.45 536.61 214.45"/><polygon class="cls-2" points="729.28 20.86 729.28 85.49 665.1 85.49 601.18 85.49 601.18 278.4 665.1 278.4 729.86 278.4 793.78 278.4 793.78 85.49 793.78 85.49 793.78 85.35 729.28 20.86"/><polygon class="cls-3" points="729.86 85.49 729.28 84.92 729.28 20.86 665.52 20.86 665.52 21.15 665.51 21.14 536.68 149.96 601.03 214.31 601.11 214.24 601.11 214.45 729.28 214.45 729.28 149.03 729.28 86.27 729.28 86.06 729.86 85.49"/><polygon class="cls-4" points="536.73 149.93 536.87 149.93 601.37 214.42 536.73 214.42 536.73 149.93"/><rect class="cls-1" x="304.83" y="152.65" width="91.01" height="110.01" transform="translate(249.44 -186.9) rotate(45)"/><polygon class="cls-2" points="536.48 85.51 472.13 21.16 407.77 85.51 343.24 85.51 343.24 278.76 536.3 278.76 536.3 85.68 536.48 85.51"/><rect class="cls-3" x="279.15" y="21.2" width="193.07" height="193.25"/><polygon class="cls-4" points="343.62 214.37 279.27 214.37 279.27 21.32 343.62 85.67 343.62 214.37"/><rect class="cls-1" x="85.69" y="193.18" width="0.65" height="106.82"/><rect class="cls-1" x="213.9" width="0.65" height="233.3"/><rect class="cls-1" x="278.86" y="85.55" width="0.65" height="214.33"/><rect class="cls-1" x="126.78" y="20.51" width="111.65" height="0.65"/><rect class="cls-1" x="21.21" y="128.82" width="0.61" height="104.65"/><rect class="cls-1" x="53.49" y="171.4" width="0.65" height="150.26" transform="translate(-158.56 110.26) rotate(-45)"/><rect class="cls-1" x="246.15" y="171.4" width="0.65" height="150.26" transform="translate(-102.13 246.49) rotate(-45)"/><rect class="cls-1" x="53.44" y="107.05" width="0.65" height="150.26" transform="translate(-113.07 91.37) rotate(-45)"/><rect class="cls-1" x="246.67" y="-21.77" width="0.65" height="150.26" transform="translate(34.62 190.28) rotate(-45)"/><rect class="cls-1" x="-35.2" y="85.45" width="241.95" height="0.65" transform="translate(-35.53 85.78) rotate(-45)"/><rect class="cls-1" x="278.79" width="0.65" height="300"/><rect class="cls-1" x="471.97" width="0.65" height="207.84"/><rect class="cls-1" x="279.12" y="20.83" width="214.42" height="0.65"/><rect class="cls-1" x="279.12" y="214.01" width="193.17" height="0.65"/><rect class="cls-1" x="343.18" y="64.34" width="0.65" height="235.54"/><rect class="cls-1" x="471.97" y="74.14" width="0.65" height="159.17"/><rect class="cls-1" x="536.36" y="64.34" width="0.65" height="235.54"/><rect class="cls-1" x="310.99" y="171.4" width="0.65" height="150.26" transform="translate(-83.14 292.34) rotate(-45)"/><rect class="cls-1" x="504.16" y="-21.77" width="0.65" height="150.26" transform="translate(110.03 372.35) rotate(-45)"/><rect class="cls-1" x="600.74" y="193.18" width="0.65" height="106.82"/><rect class="cls-1" x="728.96" width="0.65" height="233.3"/><rect class="cls-1" x="793.92" y="85.55" width="0.65" height="214.33"/><rect class="cls-1" x="641.83" y="20.51" width="111.65" height="0.65"/><rect class="cls-1" x="0.46" y="214.01" width="814.94" height="0.65"/><rect class="cls-1" x="59.11" y="278.4" width="756.29" height="0.65"/><rect class="cls-1" x="568.55" y="171.4" width="0.65" height="150.26" transform="translate(-7.7 474.46) rotate(-45)"/><rect class="cls-1" x="504.16" y="171.4" width="0.65" height="150.26" transform="translate(-26.56 428.93) rotate(-45)"/><rect class="cls-1" x="761.21" y="171.4" width="0.65" height="150.26" transform="translate(48.72 610.69) rotate(-45)"/><rect class="cls-1" x="568.5" y="107.05" width="0.65" height="150.26" transform="translate(37.79 455.57) rotate(-45)"/><rect class="cls-1" x="311.07" y="-21.76" width="0.65" height="150.26" transform="translate(53.47 235.82) rotate(-45)"/><rect class="cls-1" x="761.72" y="-21.77" width="0.65" height="150.26" transform="translate(185.47 554.48) rotate(-45)"/><rect class="cls-1" x="479.86" y="85.45" width="241.95" height="0.65" transform="translate(115.35 450) rotate(-45)"/></g></g></svg>