<svg xmlns="http://www.w3.org/2000/svg" viewBox="0 0 21.42 12.75">
<defs>
<style>.cls-1{fill:#e75c52;}</style></defs><title>arrow_on</title><g id="Слой_2" data-name="Слой 2"><g id="Слой_1-2" data-name="Слой 1"><path class="cls-1" d="M20.71,7.08H.71a.71.71,0,1,1,0-1.41h20a.71.71,0,1,1,0,1.41Z"/><path class="cls-1" d="M20.71,7.08a.7.7,0,0,1-.5-.21L14.55,1.21a.7.7,0,0,1,0-1,.7.7,0,0,1,1,0l5.66,5.66a.71.71,0,0,1-.5,1.21Z"/><path class="cls-1" d="M15.05,12.75a.71.71,0,0,1-.5-1.21l5.66-5.66a.71.71,0,0,1,1,1l-5.66,5.66A.7.7,0,0,1,15.05,12.75Z"/></g></g></svg>