<svg xmlns="http://www.w3.org/2000/svg" viewBox="0 0 1427.19 1484.62"><defs><style>.cls-1{fill:#35539c;}</style></defs><title>back_program</title><g id="Слой_2" data-name="Слой 2"><g id="Слой_1-2" data-name="Слой 1"><path class="cls-1" d="M104.87,1061.93a1.34,1.34,0,0,1-1.33-1.34V104.87a1.34,1.34,0,1,1,2.67,0v955.72A1.34,1.34,0,0,1,104.87,1061.93Z"/><path class="cls-1" d="M1060.59,1061.93a1.34,1.34,0,0,1-1.33-1.34V104.87a1.34,1.34,0,1,1,2.67,0v955.72A1.34,1.34,0,0,1,1060.59,1061.93Z"/><path class="cls-1" d="M1060.59,106.21H104.87a1.34,1.34,0,0,1,0-2.67h955.72a1.34,1.34,0,1,1,0,2.67Z"/><path class="cls-1" d="M1060.59,424.79H104.87a1.34,1.34,0,0,1,0-2.68h955.72a1.34,1.34,0,0,1,0,2.68Z"/><path class="cls-1" d="M1060.59,743.36H104.87a1.34,1.34,0,0,1,0-2.68h955.72a1.34,1.34,0,1,1,0,2.68Z"/><path class="cls-1" d="M1060.59,1061.93H104.87a1.34,1.34,0,0,1,0-2.68h955.72a1.34,1.34,0,1,1,0,2.68Z"/><path class="cls-1" d="M423.45,1380.51a1.34,1.34,0,0,1-1.34-1.34V104.87a1.34,1.34,0,0,1,2.68,0v1274.3A1.34,1.34,0,0,1,423.45,1380.51Z"/><path class="cls-1" d="M742,1380.51a1.34,1.34,0,0,1-1.34-1.34V104.87a1.34,1.34,0,0,1,2.68,0v1274.3A1.34,1.34,0,0,1,742,1380.51Z"/><path class="cls-1" d="M1060.59,1380.5a1.33,1.33,0,0,1-1.33-1.33V423.45a1.34,1.34,0,1,1,2.67,0v955.72A1.33,1.33,0,0,1,1060.59,1380.5Z"/><path class="cls-1" d="M901.31,1380.5a1.33,1.33,0,0,1-1.34-1.33V423.45a1.34,1.34,0,0,1,2.68,0v955.72A1.33,1.33,0,0,1,901.31,1380.5Z"/><path class="cls-1" d="M582.73,1061.93a1.33,1.33,0,0,1-1.33-1.34V104.87a1.34,1.34,0,1,1,2.67,0v955.72A1.34,1.34,0,0,1,582.73,1061.93Z"/><path class="cls-1" d="M1379.17,1380.5a1.33,1.33,0,0,1-1.34-1.33V423.45a1.34,1.34,0,1,1,2.68,0v955.72A1.33,1.33,0,0,1,1379.17,1380.5Z"/><path class="cls-1" d="M1379.17,424.79H423.45a1.34,1.34,0,1,1,0-2.68h955.72a1.34,1.34,0,0,1,0,2.68Z"/><path class="cls-1" d="M1379.17,743.36H423.45a1.34,1.34,0,1,1,0-2.68h955.72a1.34,1.34,0,0,1,0,2.68Z"/><path class="cls-1" d="M1379.17,1061.93H423.45a1.34,1.34,0,1,1,0-2.67h955.72a1.34,1.34,0,0,1,0,2.67Z"/><path class="cls-1" d="M1379.17,1380.51H423.45a1.34,1.34,0,0,1,0-2.68h955.72a1.34,1.34,0,0,1,0,2.68Z"/><path class="cls-1" d="M527,1484a1.33,1.33,0,0,1-.94-.39L.39,958a1.34,1.34,0,0,1,1.89-1.89l525.65,525.65A1.34,1.34,0,0,1,527,1484Z"/><path class="cls-1" d="M1425.85,471.47a1.37,1.37,0,0,1-.95-.39L956.11,2.28A1.34,1.34,0,0,1,958,.39l468.8,468.79a1.34,1.34,0,0,1-1,2.29Z"/><path class="cls-1" d="M479.2,1006.35a1.34,1.34,0,0,1-.95-2.28l685.34-685.34a1.34,1.34,0,0,1,1.9,1.89L480.14,1006A1.33,1.33,0,0,1,479.2,1006.35Z"/><path class="cls-1" d="M319.73,528.41a1.33,1.33,0,0,1-.94-.39,1.35,1.35,0,0,1,0-1.9L844.52.39a1.34,1.34,0,0,1,1.89,0,1.32,1.32,0,0,1,0,1.89L320.68,528A1.33,1.33,0,0,1,319.73,528.41Z"/><path class="cls-1" d="M1164.13,847.07a1.3,1.3,0,0,1-.94-.4L318.79,2.28A1.34,1.34,0,0,1,320.68.39l844.4,844.39a1.35,1.35,0,0,1-.95,2.29Z"/><path class="cls-1" d="M1005.42,1484.62a1.33,1.33,0,0,1-.94-.39L.39,480.14a1.34,1.34,0,1,1,1.89-1.89L1006.37,1482.34a1.34,1.34,0,0,1-1,2.28Z"/><path class="cls-1" d="M845.56,847.33a1.37,1.37,0,0,1-.95-.39L.39,2.72A1.34,1.34,0,0,1,.39.83a1.32,1.32,0,0,1,1.89,0L846.5,845.05a1.34,1.34,0,0,1-.94,2.28Z"/><path class="cls-1" d="M797.77,1484a1.34,1.34,0,0,1-.94-2.28l627.68-627.68a1.32,1.32,0,0,1,1.89,0,1.34,1.34,0,0,1,0,1.89L798.72,1483.65A1.37,1.37,0,0,1,797.77,1484Z"/></g></g></svg>