<svg xmlns="http://www.w3.org/2000/svg" viewBox="0 0 40 22.61"><defs><style>.cls-1{fill:#e75c52;}</style></defs><title>car</title><g id="Слой_2" data-name="Слой 2"><g id="Слой_1-2" data-name="Слой 1"><path class="cls-1" d="M0,12A3.36,3.36,0,0,1,2.82,9.45c.5-.1,1-.24,1.48-.36a2,2,0,0,0,1.33-1c.42-.73.82-1.48,1.3-2.18A12.64,12.64,0,0,1,16.45.15a16.62,16.62,0,0,1,7.44.61A13.22,13.22,0,0,1,31.19,7c.19.33.39.65.56,1A2,2,0,0,0,33.39,9c.74.11,1.47.22,2.19.38A5.58,5.58,0,0,1,40,14.89V17a3.12,3.12,0,0,1-3.16,3.13c-.63,0-1.27,0-1.91,0a.53.53,0,0,0-.5.28,4.39,4.39,0,0,1-7.65,0,.55.55,0,0,0-.54-.29q-6.24,0-12.49,0a.63.63,0,0,0-.61.37,4.38,4.38,0,0,1-7,.69,2.32,2.32,0,0,1-.46-.63.72.72,0,0,0-.81-.43c-.53,0-1.07,0-1.6,0A3.15,3.15,0,0,1,.06,17.75L0,17.57Zm36.55-.73a2.44,2.44,0,0,0-1.19-.57c-.61-.12-1.23-.25-1.85-.32a3.57,3.57,0,0,1-3.07-2.08,13.13,13.13,0,0,0-.66-1.15,11.65,11.65,0,0,0-7.35-5.45,16.92,16.92,0,0,0-5.31-.31A11.67,11.67,0,0,0,9.64,4.71,15,15,0,0,0,6.86,8.64a3.38,3.38,0,0,1-2.31,1.77l-1.86.47a1.31,1.31,0,0,0-.75.42c.42,0,.77,0,1.11,0a.64.64,0,0,1,.7.84c-.17.82-.39,1.64-.61,2.46a.64.64,0,0,1-.7.5H1.58c-.21,0-.31.07-.3.29,0,.52,0,1.05,0,1.56a1.86,1.86,0,0,0,1.9,1.84c.32,0,.65,0,1,0,.8,0,.8,0,.81-.8a4.4,4.4,0,0,1,8.8.29c0,.51,0,.51.51.51H25.44c.76,0,.76,0,.76-.77a4.39,4.39,0,0,1,2.87-4,4.44,4.44,0,0,1,4.84,1.22A4.21,4.21,0,0,1,35,18.36c0,.35.1.46.45.44s.88,0,1.32,0a1.88,1.88,0,0,0,1.93-1.93c0-.31,0-.62,0-.94,0-.8,0-.8-.79-.82A3.13,3.13,0,0,1,35,12a.63.63,0,0,1,.7-.7C36,11.29,36.25,11.3,36.55,11.3ZM6.28,18.18a3.14,3.14,0,0,0,3.07,3.1,3.09,3.09,0,1,0,0-6.18A3.15,3.15,0,0,0,6.28,18.18ZM30.62,15.1a3.11,3.11,0,0,0-3.1,3,3.09,3.09,0,1,0,6.17.08A3.13,3.13,0,0,0,30.62,15.1Zm6.61-2.5h-.5c-.26,0-.34.06-.19.31a2,2,0,0,0,1.75.89c.15,0,.2-.06.17-.22a1,1,0,0,0-1.15-1Zm-35.95.62c.08.17-.18.49.23.57s.54-.16.59-.51a3.84,3.84,0,0,1,.11-.46c0-.12,0-.18-.15-.22C1.49,12.46,1.28,12.61,1.28,13.22Z"/><path class="cls-1" d="M13.07,9.48H8.86c-.62,0-.9-.4-.7-1A9.54,9.54,0,0,1,12.71,3a9.11,9.11,0,0,1,4.77-1.09.61.61,0,0,1,.65.67q0,3.11,0,6.2c0,.45-.25.67-.73.68Zm.17-1.31c1.07,0,2.13,0,3.2,0,.31,0,.4-.1.4-.4,0-1.37,0-2.73,0-4.1,0-.31-.11-.43-.41-.38-.1,0-.21,0-.31,0A8,8,0,0,0,9.9,7.79c-.15.29-.15.4.23.39C11.17,8.16,12.2,8.17,13.24,8.17Z"/><path class="cls-1" d="M24.36,9.48H20.19c-.65,0-.86-.2-.86-.83V2.76c0-.62.21-.82.82-.83a9.11,9.11,0,0,1,4.4,1,.69.69,0,0,1,.46.62.66.66,0,0,1-1,.58,9.08,9.08,0,0,0-2.48-.79c-.84-.14-.87-.12-.87.7,0,1.23,0,2.47,0,3.7,0,.31.06.44.41.44H27.4c.29,0,.34-.07.21-.33a8.19,8.19,0,0,0-1.52-2.16c-.1-.1-.21-.2-.3-.31a.68.68,0,0,1,0-1,.65.65,0,0,1,.95,0,8.53,8.53,0,0,1,1.48,1.75,11.2,11.2,0,0,1,1.12,2.31c.21.58-.07,1-.7,1Z"/><path class="cls-1" d="M8.74,11.35H8.08a.63.63,0,0,1-.61-.67.61.61,0,0,1,.61-.62q.66,0,1.32,0a.61.61,0,0,1,.62.62.63.63,0,0,1-.62.67Z"/><path class="cls-1" d="M20.64,10.05c.22,0,.44,0,.66,0a.64.64,0,0,1,0,1.28c-.46,0-.93,0-1.39,0a.6.6,0,0,1-.58-.65.62.62,0,0,1,.6-.64c.24,0,.47,0,.7,0Z"/><path class="cls-1" d="M11.27,18.19a1.9,1.9,0,1,1-1.9-1.9A1.87,1.87,0,0,1,11.27,18.19Zm-1.91.58A.62.62,0,0,0,10,18.2a.63.63,0,0,0-.58-.59.62.62,0,0,0-.58.58A.61.61,0,0,0,9.36,18.77Z"/><path class="cls-1" d="M32.5,18.19a1.9,1.9,0,1,1-1.9-1.9A1.86,1.86,0,0,1,32.5,18.19Zm-1.32,0a.62.62,0,0,0-.59-.58.63.63,0,0,0-.57.59.62.62,0,0,0,.59.57A.6.6,0,0,0,31.18,18.19Z"/></g></g></svg>