<svg xmlns="http://www.w3.org/2000/svg" viewBox="0 0 1502.1 569.97"><defs><style>.cls-1{fill:#35539c;}.cls-2{fill:#e75c52;}.cls-3{opacity:0.6;}.cls-4{fill:#1c2049;}</style></defs><title>contact_us</title><g id="Слой_2" data-name="Слой 2"><g id="Слой_1-2" data-name="Слой 1"><polygon class="cls-1" points="40.48 40.72 40.29 406.59 161.91 529.82 1502.1 529.82 1502.1 40.72 40.48 40.72"/><polygon class="cls-2" points="161.85 162.7 40.29 41.14 40.29 406.59 40.29 406.59 40.29 406.59 161.91 529.82 161.85 162.7"/><g class="cls-3"><rect class="cls-4" x="39.58" y="40.2" width="1.24" height="367.01"/><rect class="cls-4" x="406.59" y="40.2" width="1.24" height="367.01"/><rect class="cls-4" x="40.2" y="39.58" width="367.01" height="1.24"/><rect class="cls-4" x="40.2" y="161.92" width="367.01" height="1.24"/><rect class="cls-4" x="40.2" y="284.25" width="367.01" height="1.24"/><rect class="cls-4" x="40.2" y="406.59" width="367.01" height="1.24"/><rect class="cls-4" x="161.92" y="40.2" width="1.24" height="489.35"/><rect class="cls-4" x="284.25" y="40.2" width="1.24" height="489.35"/><rect class="cls-4" x="406.59" y="162.54" width="1.24" height="367.01"/><rect class="cls-4" x="345.42" y="162.54" width="1.24" height="367.01"/><rect class="cls-4" x="223.08" y="40.2" width="1.24" height="367.01"/><rect class="cls-4" x="528.93" y="162.54" width="1.24" height="367.01"/><rect class="cls-4" x="162.54" y="161.92" width="367.01" height="1.24"/><rect class="cls-4" x="162.54" y="284.25" width="367.01" height="1.24"/><rect class="cls-4" x="162.54" y="406.59" width="367.01" height="1.24"/><rect class="cls-4" x="162.54" y="528.93" width="367.01" height="1.24"/><rect class="cls-4" x="100.75" y="325.64" width="1.24" height="285.47" transform="translate(-301.5 208.86) rotate(-45)"/><rect class="cls-4" x="467.76" y="-41.37" width="1.24" height="285.47" transform="translate(65.51 360.88) rotate(-45)"/><rect class="cls-4" x="129.44" y="253.66" width="372.2" height="1.24" transform="translate(-87.38 297.61) rotate(-45)"/><rect class="cls-4" x="80.89" y="100.76" width="285.52" height="1.24" transform="translate(-6.18 187.85) rotate(-45)"/><rect class="cls-4" x="284.22" y="-66.72" width="1.24" height="458.57" transform="translate(-31.53 249.03) rotate(-45)"/><rect class="cls-4" x="192.61" y="104.09" width="1.24" height="545.3" transform="translate(-209.8 246.98) rotate(-45)"/><rect class="cls-4" x="161.92" y="-66.54" width="1.24" height="458.48" transform="translate(-67.44 162.58) rotate(-45)"/><rect class="cls-4" x="251.81" y="437.17" width="371.97" height="1.24" transform="translate(-181.34 437.79) rotate(-45)"/></g></g></g></svg>