<svg xmlns="http://www.w3.org/2000/svg" viewBox="0 0 187.04 155.51"><defs><style>.cls-1{fill:#e75c52;}.cls-2{fill:#e0e0e0;}.cls-3{fill:#1c2049;}.cls-4{fill:#375a64;}.cls-5{fill:#35539c;}.cls-6{opacity:0.5;}.cls-7{fill:#fafafa;}</style></defs><title>design</title><g id="Слой_2" data-name="Слой 2"><g id="Слой_4" data-name="Слой 4"><path class="cls-1" d="M43.4,142.1l50.19-.85a6.71,6.71,0,0,1,6.77,6.3v.15a6.65,6.65,0,0,1-6.61,6.77l-49.29.38-12.18-6.16Z"/><path class="cls-2" d="M43.4,142.1s2.84.44,2.82,3.08a3.13,3.13,0,0,1-2.58,3.07s2.59,0,2.65,3.71a2.79,2.79,0,0,1-1.83,2.89l-12.18-6.16Z"/><path class="cls-3" d="M34.93,150a2.48,2.48,0,0,0,.4-3.14l-3,1.8Z"/><path class="cls-3" d="M94.31,147.9h-.13l-.39,0-1.47,0c-1.28,0-3.14.08-5.43.11-4.58.08-10.92.14-17.91.16l-17.92,0H43.77l.39,0,1.47,0,5.43-.06L69,148.06c7,0,13.32-.06,17.91-.1l5.43-.06h2Z"/><path class="cls-4" d="M93.75,154.47a6.65,6.65,0,0,0,6.61-6.77v-.15a6.71,6.71,0,0,0-6.77-6.3Z"/><path class="cls-3" d="M181.55,0H5.5A5.5,5.5,0,0,0,0,5.5V129.85a5.49,5.49,0,0,0,5.5,5.49H73.06s4.3,13.29-9,20.17h63.18s-15-5.16-11.18-20.17h65.51a5.49,5.49,0,0,0,5.49-5.49V5.5A5.49,5.49,0,0,0,181.55,0Z"/><path class="cls-5" d="M96.06,122.22A3.39,3.39,0,0,1,91.28,127a1.14,1.14,0,0,1-.29-.29,3.39,3.39,0,0,1,4.77-4.78A1.22,1.22,0,0,1,96.06,122.22Z"/><rect class="cls-2" x="4.16" y="6.28" width="178.73" height="106.02" rx="3.27"/><g class="cls-6"><rect class="cls-7" x="4.16" y="14.05" width="178.73" height="98.25"/></g><path class="cls-1" d="M18.81,10.37A1.43,1.43,0,1,1,17.39,9,1.42,1.42,0,0,1,18.81,10.37Z"/><path class="cls-1" d="M10.16,10.37A1.43,1.43,0,1,1,8.74,9,1.43,1.43,0,0,1,10.16,10.37Z"/><path class="cls-1" d="M14.32,10.37A1.43,1.43,0,1,1,12.89,9,1.43,1.43,0,0,1,14.32,10.37Z"/><path class="cls-3" d="M92.22,59.8c0,.08-6.54.14-14.62.14S63,59.88,63,59.8s6.54-.15,14.62-.15S92.22,59.72,92.22,59.8Z"/><path class="cls-3" d="M92.22,63.71c0,.08-6.54.15-14.62.15S63,63.79,63,63.71s6.54-.15,14.62-.15S92.22,63.63,92.22,63.71Z"/><path class="cls-3" d="M80.5,67.62c0,.08-3.92.15-8.76.15S63,67.7,63,67.62s3.92-.14,8.76-.14S80.5,67.54,80.5,67.62Z"/><rect class="cls-3" x="62.98" y="19.8" width="13.9" height="1.76"/><g class="cls-6"><rect class="cls-2" x="62.98" y="25.48" width="30.56" height="29.57"/></g><polygon class="cls-1" points="65.34 52.52 73.8 37.3 80.71 47.03 84.92 41.86 91.17 52.52 65.34 52.52"/><circle class="cls-1" cx="81.46" cy="34.34" r="2.2"/><path class="cls-3" d="M91.17,52.6s0,0,0-.12,0-.2,0-.35c0-.31,0-.76,0-1.33,0-1.17,0-2.87,0-5,0-4.32,0-10.47-.06-17.85l.13.12-25.82,0s.27-.28.14-.15h0v13c0,4.14,0,8.06,0,11.66l-.12-.13L84,52.54l5.27,0H90.7l-1.37,0-5.23,0-18.75.07h-.13V52.6c0-3.6,0-7.52,0-11.66V28h0l.15-.15,25.82,0h.12v.13c0,7.42-.05,13.59-.06,17.93,0,2.14,0,3.83,0,5,0,.56,0,1,0,1.31v.44Z"/><path class="cls-3" d="M129.48,59.8c0,.08-6.55.14-14.63.14s-14.62-.06-14.62-.14,6.55-.15,14.62-.15S129.48,59.72,129.48,59.8Z"/><path class="cls-3" d="M129.48,63.71c0,.08-6.55.15-14.63.15s-14.62-.07-14.62-.15,6.55-.15,14.62-.15S129.48,63.63,129.48,63.71Z"/><path class="cls-3" d="M117.76,67.62c0,.08-3.93.15-8.77.15s-8.76-.07-8.76-.15,3.92-.14,8.76-.14S117.76,67.54,117.76,67.62Z"/><rect class="cls-3" x="100.23" y="19.8" width="13.9" height="1.76"/><g class="cls-6"><rect class="cls-2" x="100.23" y="25.48" width="30.56" height="29.57"/></g><polygon class="cls-1" points="102.6 52.52 111.05 37.3 117.97 47.03 122.17 41.86 128.42 52.52 102.6 52.52"/><path class="cls-1" d="M120.91,34.34a2.2,2.2,0,1,1-2.2-2.2A2.19,2.19,0,0,1,120.91,34.34Z"/><path class="cls-3" d="M128.42,52.6a.55.55,0,0,1,0-.12c0-.09,0-.2,0-.35,0-.31,0-.76,0-1.33,0-1.17,0-2.87,0-5,0-4.32,0-10.47-.07-17.85l.13.12-25.82,0,.14-.15h0v13c0,4.14,0,8.06,0,11.66l-.13-.13,18.67.07,5.26,0H128l-1.37,0-5.24,0-18.75.07h-.13V52.6c0-3.6,0-7.52,0-11.66,0-2.07,0-4.2,0-6.37V28h0l.15-.15,25.82,0h.12v.13c0,7.42,0,13.59-.06,17.93,0,2.14,0,3.83,0,5,0,.56,0,1,0,1.31v.33A.87.87,0,0,0,128.42,52.6Z"/><rect class="cls-3" x="63.95" y="73.08" width="13.9" height="1.76"/><g class="cls-6"><rect class="cls-2" x="63.95" y="78.76" width="30.56" height="29.57"/></g><polygon class="cls-1" points="66.32 105.79 74.78 90.58 81.69 100.3 85.89 95.14 92.14 105.79 66.32 105.79"/><path class="cls-1" d="M84.64,87.62a2.2,2.2,0,1,1-2.2-2.2A2.21,2.21,0,0,1,84.64,87.62Z"/><path class="cls-3" d="M92.14,105.87v-.46c0-.32,0-.76,0-1.33,0-1.18,0-2.87,0-5,0-4.32,0-10.47-.06-17.86l.12.13-25.81,0,.14-.14h0v6.62c0,2.17,0,4.3,0,6.37,0,4.14,0,8,0,11.65l-.13-.12,18.67.06,5.27,0,1.39,0h.49s0,0-.11,0H90.31l-5.24,0L66.32,106H66.2v-.13c0-3.6,0-7.51,0-11.65v-13h0l.15-.15,25.81,0h.13v.12c0,7.42,0,13.6-.06,17.94,0,2.14,0,3.82,0,5,0,.56,0,1,0,1.3,0,.14,0,.25,0,.34S92.15,105.88,92.14,105.87Z"/><rect class="cls-3" x="101.23" y="73.08" width="13.9" height="1.76"/><g class="cls-6"><rect class="cls-2" x="101.23" y="78.76" width="30.56" height="29.57"/></g><polygon class="cls-1" points="103.6 105.79 112.06 90.58 118.97 100.3 123.17 95.14 129.42 105.79 103.6 105.79"/><path class="cls-1" d="M121.92,87.62a2.2,2.2,0,1,1-2.2-2.2A2.21,2.21,0,0,1,121.92,87.62Z"/><path class="cls-3" d="M129.42,105.87v-.12a3.33,3.33,0,0,1,0-.34c0-.32,0-.76,0-1.33,0-1.18,0-2.87,0-5,0-4.32,0-10.47-.06-17.86l.12.13-25.81,0s.27-.27.14-.14h0v6.62c0,2.17,0,4.3,0,6.37,0,4.14,0,8,0,11.65l-.13-.12,18.67.06,5.27,0,1.39,0h.49s0,0-.11,0h-1.72l-5.24,0L103.6,106h-.12v-.13c0-3.6,0-7.51,0-11.65v-13h0c-.13.13.17-.18.15-.15l25.81,0h.13v.12c0,7.42-.05,13.6-.07,17.94,0,2.14,0,3.82,0,5,0,.56,0,1,0,1.3,0,.14,0,.25,0,.34S129.43,105.88,129.42,105.87Z"/><rect class="cls-3" x="139.7" y="73.08" width="13.9" height="1.76"/><g class="cls-6"><rect class="cls-2" x="139.7" y="78.76" width="30.56" height="29.57"/></g><polygon class="cls-1" points="142.07 105.79 150.53 90.58 157.44 100.3 161.64 95.14 167.89 105.79 142.07 105.79"/><path class="cls-1" d="M160.38,87.62a2.2,2.2,0,1,1-2.19-2.2A2.2,2.2,0,0,1,160.38,87.62Z"/><path class="cls-3" d="M167.89,105.87a1.09,1.09,0,0,0,0-.12v-.34c0-.32,0-.76,0-1.33,0-1.18,0-2.87,0-5,0-4.32,0-10.47-.06-17.86l.12.13-25.82,0,.15-.14h0v6.62c0,2.17,0,4.3,0,6.37,0,4.14,0,8,0,11.65l-.13-.12,18.67.06,5.27,0,1.39,0h-1.34l-5.24,0-18.75.06h-.13v-.13c0-3.6,0-7.51,0-11.65v-13h0l.14-.15,25.82,0H168v.12c0,7.42-.05,13.6-.07,17.94,0,2.14,0,3.82,0,5,0,.56,0,1,0,1.3,0,.14,0,.25,0,.34A.28.28,0,0,1,167.89,105.87Z"/><path class="cls-3" d="M167.4,55.05a19.16,19.16,0,0,1,3.35-.15c-.29.29-.08.08-.14.15h0v-.67c0-.21,0-.42,0-.63,0-.37,0-.72,0-1.07a3.65,3.65,0,0,1,.1-1,3.38,3.38,0,0,1,.11,1c0,.35,0,.7,0,1.07,0,.21,0,.42,0,.63V55h0c-.07.06.14-.15-.15.14A19.82,19.82,0,0,1,167.4,55.05Z"/><path class="cls-3" d="M152.16,55.05A24.79,24.79,0,0,1,156,54.9a24.79,24.79,0,0,1,3.81.15,25.65,25.65,0,0,1-3.81.14A25.65,25.65,0,0,1,152.16,55.05Z"/><path class="cls-3" d="M141.19,51.69a19.9,19.9,0,0,1,.14,3.36c-.29-.29-.08-.08-.14-.15h1.3l1.07,0a3.38,3.38,0,0,1,1,.11,3.65,3.65,0,0,1-1,.1l-1.07,0h-1.3c-.07-.06.14.15-.15-.14A19.23,19.23,0,0,1,141.19,51.69Z"/><path class="cls-3" d="M141.19,36.45a25.65,25.65,0,0,1,.14,3.81,25.54,25.54,0,0,1-.14,3.81,24.68,24.68,0,0,1-.15-3.81A24.79,24.79,0,0,1,141.19,36.45Z"/><path class="cls-3" d="M144.54,25.48a19.16,19.16,0,0,1-3.35.15c.29-.3.08-.08.14-.15h0v.66c0,.21,0,.42,0,.62,0,.37,0,.73,0,1.07a3.56,3.56,0,0,1-.1,1,3.3,3.3,0,0,1-.11-1c0-.34,0-.7,0-1.07,0-.2,0-.41,0-.62V25.5h0c.07-.06-.15.14.15-.15A19.16,19.16,0,0,1,144.54,25.48Z"/><path class="cls-3" d="M159.78,25.48a24.79,24.79,0,0,1-3.81.15,24.79,24.79,0,0,1-3.81-.15,24.79,24.79,0,0,1,3.81-.15A24.79,24.79,0,0,1,159.78,25.48Z"/><path class="cls-3" d="M170.75,28.83a19.82,19.82,0,0,1-.14-3.35c.29.29.08.08.14.15h-1.3l-1.07,0a3.14,3.14,0,0,1-1-.1,3.14,3.14,0,0,1,1-.1l1.07,0h1.3l.15.15A19.16,19.16,0,0,1,170.75,28.83Z"/><path class="cls-3" d="M170.75,44.07a25.54,25.54,0,0,1-.14-3.81,25.65,25.65,0,0,1,.14-3.81,24.79,24.79,0,0,1,.15,3.81A24.68,24.68,0,0,1,170.75,44.07Z"/><path class="cls-3" d="M170.32,59.75c0,.09-6.54.15-14.62.15s-14.62-.06-14.62-.15,6.54-.14,14.62-.14S170.32,59.67,170.32,59.75Z"/><path class="cls-3" d="M170.32,63.67c0,.08-6.54.14-14.62.14s-14.62-.06-14.62-.14,6.54-.15,14.62-.15S170.32,63.59,170.32,63.67Z"/><rect class="cls-3" x="141.08" y="19.76" width="13.9" height="1.76"/><g class="cls-6"><path class="cls-2" d="M48.76,42.77a15,15,0,1,1-15-15A15,15,0,0,1,48.76,42.77Z"/></g><path class="cls-3" d="M51.73,75.43c0,.08-7.7.14-17.19.14s-17.19-.06-17.19-.14,7.69-.15,17.19-.15S51.73,75.35,51.73,75.43Z"/><path class="cls-3" d="M51.73,79.23c0,.08-7.7.15-17.19.15s-17.19-.07-17.19-.15,7.69-.14,17.19-.14S51.73,79.15,51.73,79.23Z"/><path class="cls-3" d="M51.73,83c0,.08-7.7.15-17.19.15S17.35,83.11,17.35,83s7.69-.14,17.19-.14S51.73,83,51.73,83Z"/><path class="cls-3" d="M37.1,86.92c0,.08-4.46.14-10,.14s-10-.06-10-.14,4.47-.15,10-.15S37.1,86.84,37.1,86.92Z"/><rect class="cls-3" x="17.35" y="67.67" width="23.69" height="1.73" transform="translate(58.38 137.07) rotate(180)"/><path class="cls-1" d="M24.38,54.21a14.52,14.52,0,0,0,19,0A8.75,8.75,0,0,0,36,47.56a5.86,5.86,0,0,0,3.51-5.45A5.72,5.72,0,0,0,34,36.2a5.71,5.71,0,0,0-5.55,5.86,5.89,5.89,0,0,0,3.52,5.5A8.9,8.9,0,0,0,24.38,54.21Z"/><rect class="cls-1" x="17.35" y="92.85" width="13.28" height="1.62"/></g></g></svg>