<svg xmlns="http://www.w3.org/2000/svg" viewBox="0 0 182.69 80"><defs><style>.cls-1{fill:#fff;}</style></defs><title>gastrans</title><g id="Слой_2" data-name="Слой 2"><g id="Слой_1-2" data-name="Слой 1"><path class="cls-1" d="M96.35,4.84a2.59,2.59,0,0,1,1.16.75.42.42,0,0,1,.11.29V5.73C97.55,5.54,97.3,5.19,96.35,4.84Z"/><path class="cls-1" d="M96.05,4.74h0a2,2,0,0,1,.29.1Z"/><path class="cls-1" d="M118.48,12.47h0l.45.15Z"/><path class="cls-1" d="M118.94,12.63a4,4,0,0,1,1.75,1.13.63.63,0,0,1,.16.45V14C120.75,13.69,120.38,13.17,118.94,12.63Z"/><line class="cls-1" x1="97.62" y1="5.88" x2="97.61" y2="5.73"/><path class="cls-1" d="M97.62,5.88h0a.42.42,0,0,0-.11-.29,2.59,2.59,0,0,0-1.16-.75c1,.35,1.2.7,1.26.89a25.54,25.54,0,0,0-.3-4c-2.28-3-15.66-2.23-33.2,2.8a153.71,153.71,0,0,0-15.93,5.94V11c2.41-.82,5-1.64,7.64-2.41C69.55,4.65,86.58,3.15,94,4.27a16,16,0,0,1,2,.43l.11,0h0l.29.1a2,2,0,0,0-.29-.1,21.29,21.29,0,0,1-2.49,2.08c1.34-.22,2.64-.41,3.9-.59A.59.59,0,0,0,97.62,5.88Z"/><path class="cls-1" d="M104.39,22.43c-1.17.5-2.29,1-3.3,1.54C102.21,23.48,103.31,23,104.39,22.43Z"/><path class="cls-1" d="M120.84,14.66v.23a.63.63,0,0,0-.16-.45,4,4,0,0,0-1.75-1.13c1.44.54,1.81,1.06,1.9,1.35,0,0-.1-5.58-.45-6-3.46-4.5-23.71-3.37-50.28,4.25a226.9,226.9,0,0,0-23.46,8.71v.83c3.45-1.17,7.08-2.33,10.92-3.43,20.79-6,46.57-8.24,57.77-6.54a21.41,21.41,0,0,1,3,.66l.17.05h0l.45.15c-.14-.06-.3-.1-.45-.15-2.82,2.84-8,6.29-14.09,9.27,7.18-3.08,16.44-5.56,16.46-7.54A.42.42,0,0,0,120.84,14.66Z"/><path class="cls-1" d="M102.57,31.26c-.78.33-1.51.67-2.18,1C101.13,32,101.85,31.61,102.57,31.26Z"/><path class="cls-1" d="M113.33,26a2.55,2.55,0,0,0-1.15-.75c.95.35,1.2.7,1.25.89a25.52,25.52,0,0,0-.29-4c-2.29-3-15.23-2.84-32.65,2.63a85.75,85.75,0,0,0-11.63,4.43v.95c2.06-.79,4-1.49,5.47-1.87,21.6-5.79,28.07-4.74,35.47-3.62a14.66,14.66,0,0,1,2,.44l.1,0h0l.3.1-.3-.1a37.26,37.26,0,0,1-9.3,6.12c4.74-2,10.85-3.67,10.87-5h0A.42.42,0,0,0,113.33,26Z"/><path class="cls-1" d="M113.44,26.28v-.15a.26.26,0,0,1,0,.15Z"/><path class="cls-1" d="M.73,74.71H3.44a1.72,1.72,0,0,0-1.86-1.66,3,3,0,0,0-1.28.3l-.21-.64a3.43,3.43,0,0,1,1.66-.41,2.64,2.64,0,0,1,2,.75,3,3,0,0,1,.73,2.08,2.66,2.66,0,0,1-2.85,2.78A3.29,3.29,0,0,1,0,77.54l.2-.69a3.25,3.25,0,0,0,1.34.29,1.78,1.78,0,0,0,1.89-1.75H.73Z"/><path class="cls-1" d="M7.28,72.41v2.17H9.83V72.41h1V77.8h-1V75.36H7.28V77.8h-1V72.41Z"/><path class="cls-1" d="M13.62,75.28a1.72,1.72,0,0,0,1.85,1.87A3.41,3.41,0,0,0,17,76.87l.18.7a4.26,4.26,0,0,1-1.8.35,2.51,2.51,0,0,1-2.65-2.73,2.61,2.61,0,0,1,2.53-2.89,2.26,2.26,0,0,1,2.22,2.52,2.69,2.69,0,0,1,0,.46Zm2.88-.7A1.39,1.39,0,0,0,15.14,73a1.6,1.6,0,0,0-1.5,1.58Z"/><path class="cls-1" d="M19.32,74.17c0-.69,0-1.25,0-1.76h.87l.05.92h0a2.1,2.1,0,0,1,1.91-1A2.43,2.43,0,0,1,24.43,75c0,1.94-1.19,2.9-2.46,2.9a1.86,1.86,0,0,1-1.65-.85h0V80h-1Zm1,1.43a1.25,1.25,0,0,0,.05.4,1.52,1.52,0,0,0,1.47,1.15c1,0,1.63-.84,1.63-2.08,0-1.07-.56-2-1.6-2a1.55,1.55,0,0,0-1.48,1.2,1.78,1.78,0,0,0-.07.39Z"/><path class="cls-1" d="M29.61,72.41v.78H27.27V77.8h-1V72.41Z"/><path class="cls-1" d="M32.1,72.41v2.27c0,.84,0,1.39-.06,2.16h0c.33-.66.51-1,.88-1.66l1.68-2.78h1.15V77.8h-.94V75.52c0-.89,0-1.34.07-2.22h0c-.36.7-.58,1.13-.91,1.68-.51.84-1.11,1.87-1.68,2.82H31.17V72.41Z"/><path class="cls-1" d="M42,77.8H41V75.54h-.72a1.18,1.18,0,0,0-.89.31,3.56,3.56,0,0,0-.77,1.5,3.77,3.77,0,0,1-.22.45h-1a3,3,0,0,0,.33-.62,4.21,4.21,0,0,1,.85-1.62,1.41,1.41,0,0,1,.61-.31v0a1.42,1.42,0,0,1-1.42-1.34,1.29,1.29,0,0,1,.71-1.17,3.65,3.65,0,0,1,1.82-.37,14.08,14.08,0,0,1,1.72.11Zm-1-4.75a6,6,0,0,0-.81,0c-.66,0-1.46.19-1.46.94s.86.94,1.44.94H41Z"/><path class="cls-1" d="M51.37,74.27a1.39,1.39,0,0,1-.42,1,1.39,1.39,0,0,1-2,0,1.42,1.42,0,0,1-.42-1,1.39,1.39,0,0,1,.42-1,1.33,1.33,0,0,1,1-.43,1.35,1.35,0,0,1,1,.42A1.41,1.41,0,0,1,51.37,74.27Z"/><path class="cls-1" d="M58.19,72.41v2.17h2.55V72.41h1V77.8h-1V75.36H58.19V77.8h-1V72.41Z"/><path class="cls-1" d="M67.77,76.5a8.55,8.55,0,0,0,.08,1.3H67l-.08-.68h0a2,2,0,0,1-1.65.8,1.54,1.54,0,0,1-1.65-1.55c0-1.3,1.16-2,3.24-2v-.12A1.1,1.1,0,0,0,65.58,73a2.53,2.53,0,0,0-1.41.4l-.23-.65a3.48,3.48,0,0,1,1.78-.47c1.65,0,2,1.12,2,2.19Zm-.94-1.45c-1.07,0-2.29.16-2.29,1.21a.86.86,0,0,0,.92.93,1.35,1.35,0,0,0,1.32-.9.91.91,0,0,0,0-.31Z"/><path class="cls-1" d="M74.19,72.41v4.65h.56l0,2.43h-.77l-.05-1.7H70.15l-.05,1.7h-.76l0-2.42.45,0a3.88,3.88,0,0,0,.54-1.1,7.17,7.17,0,0,0,.31-2.15v-1.4ZM71.46,74a6.74,6.74,0,0,1-.28,2,5.37,5.37,0,0,1-.42,1h2.48V73.16H71.46Z"/><path class="cls-1" d="M77.09,75.28a1.72,1.72,0,0,0,1.85,1.87,3.45,3.45,0,0,0,1.49-.28l.18.7a4.35,4.35,0,0,1-1.81.35,2.51,2.51,0,0,1-2.65-2.73,2.61,2.61,0,0,1,2.53-2.89,2.26,2.26,0,0,1,2.23,2.52,1.86,1.86,0,0,1,0,.46Zm2.87-.7A1.39,1.39,0,0,0,78.6,73a1.6,1.6,0,0,0-1.5,1.58Z"/><path class="cls-1" d="M83.25,72.41,85,74.76h.19V72.41h.93v2.35h.19l1.78-2.35h1.13l-2.13,2.45a1.88,1.88,0,0,1,1.61,1.42,14.63,14.63,0,0,0,.59,1.52h-1a8.49,8.49,0,0,1-.48-1.24,1.49,1.49,0,0,0-1.54-1.14h-.17V77.8h-.93V75.42h-.17a1.48,1.48,0,0,0-1.56,1.15A12,12,0,0,1,83,77.8H82a11.31,11.31,0,0,0,.6-1.51,1.9,1.9,0,0,1,1.62-1.43l-2.13-2.45Z"/><path class="cls-1" d="M91.83,72.41v2.17h2.55V72.41h1V77.8h-1V75.36H91.83V77.8h-1V72.41Z"/><path class="cls-1" d="M102.5,75.06a2.64,2.64,0,0,1-2.68,2.86,2.56,2.56,0,0,1-2.58-2.77,2.63,2.63,0,0,1,2.67-2.85A2.54,2.54,0,0,1,102.5,75.06Zm-4.26,0c0,1.18.67,2.07,1.62,2.07s1.64-.87,1.64-2.09c0-.91-.46-2.06-1.61-2.06S98.24,74.1,98.24,75.11Z"/><path class="cls-1" d="M108.25,77.61a3.84,3.84,0,0,1-1.55.31A2.55,2.55,0,0,1,104,75.17a2.74,2.74,0,0,1,2.89-2.87,3,3,0,0,1,1.36.29l-.22.74a2.5,2.5,0,0,0-1.14-.25,2,2,0,0,0,0,4,2.85,2.85,0,0,0,1.2-.26Z"/><path class="cls-1" d="M113.88,72.41v.77H112.2V77.8h-1V73.18h-1.68v-.77Z"/><path class="cls-1" d="M116.35,72.41v1.81a7.94,7.94,0,0,1,.89,0c1.22,0,2.49.38,2.49,1.82a1.54,1.54,0,0,1-.56,1.24,3.78,3.78,0,0,1-2.35.62c-.53,0-1,0-1.45-.07V72.41Zm0,4.7a4.81,4.81,0,0,0,.73,0c.73,0,1.68-.24,1.68-1.14s-1-1.14-1.71-1.14a3.88,3.88,0,0,0-.7.06Z"/><path class="cls-1" d="M128.72,74.27a1.39,1.39,0,0,1-.42,1,1.4,1.4,0,0,1-2,0,1.42,1.42,0,0,1-.42-1,1.39,1.39,0,0,1,.42-1,1.41,1.41,0,0,1,2,0A1.41,1.41,0,0,1,128.72,74.27Z"/><path class="cls-1" d="M134.59,74.17c0-.69,0-1.25-.05-1.76h.87l.06.92h0a2.11,2.11,0,0,1,1.91-1A2.44,2.44,0,0,1,139.7,75c0,1.94-1.19,2.9-2.47,2.9a1.88,1.88,0,0,1-1.65-.85h0V80h-1Zm1,1.43a1.62,1.62,0,0,0,0,.4,1.52,1.52,0,0,0,1.47,1.15c1,0,1.64-.84,1.64-2.08,0-1.07-.57-2-1.61-2a1.55,1.55,0,0,0-1.48,1.2,1.78,1.78,0,0,0-.07.39Z"/><path class="cls-1" d="M145.37,76.5a8.55,8.55,0,0,0,.08,1.3h-.88l-.08-.68h0a2,2,0,0,1-1.65.8,1.54,1.54,0,0,1-1.65-1.55c0-1.3,1.16-2,3.24-2v-.12A1.1,1.1,0,0,0,143.18,73a2.56,2.56,0,0,0-1.41.4l-.22-.65a3.45,3.45,0,0,1,1.78-.47c1.64,0,2,1.12,2,2.19Zm-.94-1.45c-1.07,0-2.28.16-2.28,1.21a.85.85,0,0,0,.91.93,1.34,1.34,0,0,0,1.32-.9.91.91,0,0,0,.05-.31Z"/><path class="cls-1" d="M148.07,74.67h.47c.82,0,1.37-.38,1.37-.88s-.43-.79-1-.79a2.66,2.66,0,0,0-1.3.39l-.25-.6a3.38,3.38,0,0,1,1.79-.49c.83,0,1.83.36,1.83,1.41a1.36,1.36,0,0,1-1.21,1.22v0a1.43,1.43,0,0,1,1.46,1.35c0,1.15-1.19,1.6-2.32,1.6a3.69,3.69,0,0,1-1.75-.44l.26-.67a2.92,2.92,0,0,0,1.42.38c.81,0,1.33-.39,1.33-.92,0-.72-.76-.93-1.57-.93h-.48Z"/><path class="cls-1" d="M153.06,72.48a11,11,0,0,1,1.71-.13c.91,0,2.4.16,2.4,1.35a1.28,1.28,0,0,1-1.12,1.22v0c.79.11,1.37.54,1.37,1.32,0,1.42-1.78,1.59-2.84,1.59-.6,0-1.24,0-1.52-.06Zm.93,4.68c.28,0,.48,0,.78,0,.67,0,1.65-.14,1.65-.93s-.79-1-1.72-1H154Zm0-2.48h.74c.72,0,1.47-.21,1.47-.86s-.47-.79-1.45-.79a5.05,5.05,0,0,0-.76,0Z"/><path class="cls-1" d="M160.22,72.41v2.27c0,.84,0,1.39-.06,2.16h0c.33-.66.51-1,.88-1.66l1.68-2.78h1.15V77.8H163V75.52c0-.89,0-1.34.07-2.22h0c-.36.7-.58,1.13-.91,1.68-.51.84-1.11,1.87-1.68,2.82h-1.13V72.41Z"/><path class="cls-1" d="M169.76,72.41v.77h-1.68V77.8h-1V73.18h-1.68v-.77Z"/><path class="cls-1" d="M172.19,72.41v2.27c0,.84,0,1.39-.07,2.16h0c.33-.66.51-1,.88-1.66l1.68-2.78h1.14V77.8h-.93V75.52c0-.89,0-1.34.06-2.22h0c-.35.7-.58,1.13-.9,1.68-.51.84-1.11,1.87-1.68,2.82h-1.13V72.41Z"/><path class="cls-1" d="M178.67,75.28a1.71,1.71,0,0,0,1.85,1.87,3.45,3.45,0,0,0,1.49-.28l.18.7a4.35,4.35,0,0,1-1.81.35,2.51,2.51,0,0,1-2.65-2.73,2.61,2.61,0,0,1,2.53-2.89,2.26,2.26,0,0,1,2.23,2.52,1.86,1.86,0,0,1,0,.46Zm2.87-.7A1.39,1.39,0,0,0,180.18,73a1.6,1.6,0,0,0-1.5,1.58Z"/><path class="cls-1" d="M1.2,60.94V42.48h9.48v2H3.52V60.94Z"/><path class="cls-1" d="M25.42,60.94H23.06l-1.87-5.4H14.36l-1.65,5.4H10.77l6-18.46h2.61ZM20.7,53.81,17.85,45,15,53.81Z"/><path class="cls-1" d="M26.09,55.8l2.1-.5A5.37,5.37,0,0,0,30,58.48a5.47,5.47,0,0,0,3.4,1,4.23,4.23,0,0,0,3.1-1,3.49,3.49,0,0,0,1.06-2.61c0-2.32-1.32-3.47-3.94-3.47H31.83v-2h1.59A3.81,3.81,0,0,0,36,49.5a2.9,2.9,0,0,0,1-2.34,2.84,2.84,0,0,0-1-2.3A4.15,4.15,0,0,0,33.22,44q-3.73,0-4.41,3.55l-2.23-.25c.77-3.46,3-5.19,6.59-5.19a7,7,0,0,1,4.56,1.38A4.37,4.37,0,0,1,39.41,47q0,3.18-3.57,4.16c2.72.46,4.09,2,4.09,4.47a5.46,5.46,0,0,1-1.69,4,6.93,6.93,0,0,1-5.09,1.68,7.38,7.38,0,0,1-4.76-1.45A6.52,6.52,0,0,1,26.09,55.8Z"/><path class="cls-1" d="M48.6,60.94H46.29V44.51H41v-2H53.9v2H48.6Z"/><path class="cls-1" d="M58.79,60.94H56.47V42.48H63a5.74,5.74,0,0,1,4.53,1.67A5.67,5.67,0,0,1,69,48a5.24,5.24,0,0,1-1.59,3.93,5.69,5.69,0,0,1-4.16,1.56H58.79Zm0-9.41H63a3.63,3.63,0,0,0,2.64-1,3.49,3.49,0,0,0,1-2.59,3.78,3.78,0,0,0-.89-2.46,3.18,3.18,0,0,0-2.59-1.08h-4.4Z"/><path class="cls-1" d="M83.22,60.94H80.86L79,55.54H72.15l-1.65,5.4H68.57l6-18.46h2.61ZM78.5,53.81,75.65,45,72.8,53.81Z"/><path class="cls-1" d="M98.8,60.94H96.49V52.15H87.93v8.79H85.62V42.48h2.31v7.64h8.56V42.48H98.8Z"/><path class="cls-1" d="M114.47,54.73l2.11.48q-1.52,6.1-6.84,6.11a6.35,6.35,0,0,1-5.49-2.83,11.76,11.76,0,0,1-2-7,10.62,10.62,0,0,1,2.08-6.85,6.81,6.81,0,0,1,5.59-2.58q5.19,0,6.66,5.93l-2.17.43q-1.2-4.39-4.51-4.4a4.29,4.29,0,0,0-3.79,2,10.53,10.53,0,0,0-1.34,5.76,9.6,9.6,0,0,0,1.38,5.44,4.2,4.2,0,0,0,3.65,2Q113.33,59.36,114.47,54.73Z"/><path class="cls-1" d="M119.45,60.94V42.48h10.63v2h-8.4v5.61H125a14.16,14.16,0,0,1,3.95.42,3.9,3.9,0,0,1,2.22,1.77,6.08,6.08,0,0,1,.87,3.36,5.12,5.12,0,0,1-1.49,3.82A6.29,6.29,0,0,1,126,60.94Zm2.23-2h4.22q3.78,0,3.78-3.42a3.17,3.17,0,0,0-.93-2.51,4.81,4.81,0,0,0-3.19-.83h-3.88Z"/><path class="cls-1" d="M147.88,60.94h-2.36l-1.87-5.4h-6.83l-1.65,5.4h-1.93l6-18.46h2.62Zm-4.72-7.13L140.32,45l-2.86,8.86Z"/><path class="cls-1" d="M163.47,60.94h-2.31V52.15H152.6v8.79h-2.31V42.48h2.31v7.64h8.56V42.48h2.31Z"/><path class="cls-1" d="M182.67,60.94h-2.53l-5.52-10.2L170.39,56v4.92h-2.31V42.48h2.31V53.19l8.35-10.71h2.5l-5,6.46Z"/><rect class="cls-1" x="0.17" y="66.5" width="182.53" height="0.44"/></g></g></svg>