<svg xmlns="http://www.w3.org/2000/svg" viewBox="0 0 947.62 651.78"><defs><style>.cls-1{fill:#35539c;}.cls-2{fill:#e75c52;}.cls-3{opacity:0.6;}.cls-4{fill:#1c2049;}</style></defs><title>get-in-touch_back</title><g id="Слой_2" data-name="Слой 2"><g id="Слой_1-2" data-name="Слой 1"><polygon class="cls-1" points="46.3 46.57 46.3 474.78 177.38 605.87 947.62 605.87 947.62 46.57 46.3 46.57"/><polygon class="cls-2" points="177.59 178.57 46.07 47.05 46.07 474.55 46.08 474.55 46.08 474.56 177.59 606.07 177.59 474.56 177.59 474.56 177.59 474.56 177.59 178.57"/><g class="cls-3"><rect class="cls-4" x="45.26" y="45.97" width="1.42" height="419.69"/><rect class="cls-4" x="464.95" y="45.97" width="1.42" height="419.69"/><rect class="cls-4" x="45.97" y="45.26" width="419.69" height="1.42"/><rect class="cls-4" x="45.97" y="185.16" width="419.69" height="1.42"/><rect class="cls-4" x="45.97" y="325.05" width="419.69" height="1.42"/><rect class="cls-4" x="45.97" y="464.95" width="419.69" height="1.42"/><rect class="cls-4" x="185.16" y="45.97" width="1.42" height="559.59"/><rect class="cls-4" x="325.05" y="45.97" width="1.42" height="559.59"/><rect class="cls-4" x="464.95" y="185.86" width="1.42" height="419.69"/><rect class="cls-4" x="395" y="185.86" width="1.42" height="419.69"/><rect class="cls-4" x="255.1" y="45.97" width="1.42" height="419.69"/><rect class="cls-4" x="604.85" y="185.86" width="1.42" height="419.69"/><rect class="cls-4" x="185.86" y="185.16" width="419.69" height="1.42"/><rect class="cls-4" x="185.86" y="325.05" width="419.69" height="1.42"/><rect class="cls-4" x="185.86" y="464.95" width="419.69" height="1.42"/><rect class="cls-4" x="185.86" y="604.85" width="419.69" height="1.42"/><rect class="cls-4" x="115.21" y="372.39" width="1.42" height="326.44" transform="translate(-344.78 238.84) rotate(-45)"/><rect class="cls-4" x="534.9" y="-47.31" width="1.42" height="326.44" transform="translate(74.91 412.68) rotate(-45)"/><rect class="cls-4" x="148.02" y="290.06" width="425.62" height="1.42" transform="translate(-99.92 340.31) rotate(-45)"/><rect class="cls-4" x="92.51" y="115.23" width="326.5" height="1.42" transform="translate(-7.07 214.8) rotate(-45)"/><rect class="cls-4" x="325.01" y="-76.29" width="1.42" height="524.39" transform="translate(-36.05 284.77) rotate(-45)"/><rect class="cls-4" x="220.26" y="119.03" width="1.42" height="623.57" transform="translate(-239.91 282.43) rotate(-45)"/><rect class="cls-4" x="185.16" y="-76.09" width="1.42" height="524.29" transform="translate(-77.12 185.92) rotate(-45)"/><rect class="cls-4" x="287.95" y="499.92" width="425.37" height="1.42" transform="translate(-207.37 500.63) rotate(-45)"/></g></g></g></svg>