<svg xmlns="http://www.w3.org/2000/svg" viewBox="0 0 19.86 19.86"><defs><style>.cls-1{fill:#fff;}</style></defs><title>insta</title><g id="Слой_2" data-name="Слой 2"><g id="Слой_1-2" data-name="Слой 1"><path class="cls-1" d="M19.37,2.79a3.92,3.92,0,0,0-2.3-2.3A6.38,6.38,0,0,0,14.83.07C13.55,0,13.16,0,9.93,0S6.31,0,5,.07A6.4,6.4,0,0,0,2.79.49a3.92,3.92,0,0,0-2.3,2.3A6.4,6.4,0,0,0,.07,5C0,6.31,0,6.7,0,9.93s0,3.62.07,4.9a6.38,6.38,0,0,0,.42,2.24,3.92,3.92,0,0,0,2.3,2.3A6.4,6.4,0,0,0,5,19.79c1.27.06,1.66.07,4.89.07s3.62,0,4.9-.07a6.38,6.38,0,0,0,2.24-.42,3.92,3.92,0,0,0,2.3-2.3,6.38,6.38,0,0,0,.42-2.24c.06-1.28.07-1.67.07-4.9s0-3.62-.07-4.89A6.4,6.4,0,0,0,19.37,2.79ZM9.93,14.59a4.66,4.66,0,1,1,4.66-4.66A4.65,4.65,0,0,1,9.93,14.59Zm6.36-9.21a1.45,1.45,0,1,1,1.44-1.45A1.45,1.45,0,0,1,16.29,5.38Z"/></g></g></svg>