<svg xmlns="http://www.w3.org/2000/svg" viewBox="0 0 786.19 786.5"><defs><style>.cls-1{fill:#35539c;}</style></defs><title>lines</title><g id="Слой_2" data-name="Слой 2"><g id="Слой_1-2" data-name="Слой 1"><path class="cls-1" d="M55.56,562.57a.71.71,0,0,1-.71-.71V55.56a.71.71,0,0,1,1.42,0v506.3A.71.71,0,0,1,55.56,562.57Z"/><path class="cls-1" d="M561.86,562.57a.7.7,0,0,1-.7-.71V55.56a.71.71,0,1,1,1.41,0v506.3A.71.71,0,0,1,561.86,562.57Z"/><path class="cls-1" d="M561.86,56.27H55.56a.71.71,0,0,1,0-1.42h506.3a.71.71,0,1,1,0,1.42Z"/><path class="cls-1" d="M561.86,225H55.56a.71.71,0,1,1,0-1.42h506.3a.71.71,0,1,1,0,1.42Z"/><path class="cls-1" d="M561.86,393.8H55.56a.71.71,0,1,1,0-1.41h506.3a.71.71,0,1,1,0,1.41Z"/><path class="cls-1" d="M561.86,562.57H55.56a.71.71,0,1,1,0-1.42h506.3a.71.71,0,0,1,0,1.42Z"/><path class="cls-1" d="M224.33,731.34a.71.71,0,0,1-.71-.71V55.56a.71.71,0,0,1,1.42,0V730.63A.71.71,0,0,1,224.33,731.34Z"/><path class="cls-1" d="M393.1,731.34a.71.71,0,0,1-.71-.71V55.56a.71.71,0,1,1,1.41,0V730.63A.7.7,0,0,1,393.1,731.34Z"/><path class="cls-1" d="M561.86,731.34a.7.7,0,0,1-.7-.71V224.33a.71.71,0,1,1,1.41,0v506.3A.71.71,0,0,1,561.86,731.34Z"/><path class="cls-1" d="M477.48,731.34a.71.71,0,0,1-.71-.71V224.33a.71.71,0,1,1,1.42,0v506.3A.71.71,0,0,1,477.48,731.34Z"/><path class="cls-1" d="M308.71,562.57a.71.71,0,0,1-.71-.71V55.56a.71.71,0,1,1,1.42,0v506.3A.71.71,0,0,1,308.71,562.57Z"/><path class="cls-1" d="M730.63,731.34a.71.71,0,0,1-.71-.71V224.33a.71.71,0,0,1,1.42,0v506.3A.71.71,0,0,1,730.63,731.34Z"/><path class="cls-1" d="M730.63,225H224.33a.71.71,0,1,1,0-1.42h506.3a.71.71,0,1,1,0,1.42Z"/><path class="cls-1" d="M730.63,393.8H224.33a.71.71,0,1,1,0-1.41h506.3a.71.71,0,1,1,0,1.41Z"/><path class="cls-1" d="M730.63,562.57H224.33a.71.71,0,1,1,0-1.41h506.3a.71.71,0,1,1,0,1.41Z"/><path class="cls-1" d="M730.63,731.34H224.33a.71.71,0,1,1,0-1.42h506.3a.71.71,0,0,1,0,1.42Z"/><path class="cls-1" d="M279.18,786.19a.69.69,0,0,1-.5-.21L.21,507.51a.7.7,0,0,1,0-1,.72.72,0,0,1,1,0L279.68,785a.71.71,0,0,1-.5,1.21Z"/><path class="cls-1" d="M785.48,279.89a.7.7,0,0,1-.5-.21L506.51,1.21a.71.71,0,0,1,1-1L786,278.68a.71.71,0,0,1-.5,1.21Z"/><path class="cls-1" d="M253.86,533.13a.71.71,0,0,1-.5-1.21L616.43,168.85a.71.71,0,0,1,1,1L254.36,532.92A.7.7,0,0,1,253.86,533.13Z"/><path class="cls-1" d="M169.38,279.93a.7.7,0,0,1-.5-.21.72.72,0,0,1,0-1L447.4.21a.7.7,0,0,1,1,0,.7.7,0,0,1,0,1L169.88,279.72A.67.67,0,0,1,169.38,279.93Z"/><path class="cls-1" d="M616.71,448.75a.7.7,0,0,1-.5-.21L168.88,1.21a.71.71,0,0,1,1-1L617.21,447.54a.7.7,0,0,1,0,1A.67.67,0,0,1,616.71,448.75Z"/><path class="cls-1" d="M532.64,786.5a.69.69,0,0,1-.5-.21L.21,254.36a.7.7,0,0,1,0-1,.7.7,0,0,1,1,0L533.14,785.29a.71.71,0,0,1-.5,1.21Z"/><path class="cls-1" d="M448,448.88a.66.66,0,0,1-.5-.2L.21,1.44a.7.7,0,0,1,0-1,.7.7,0,0,1,1,0L448.45,447.67a.73.73,0,0,1,0,1A.69.69,0,0,1,448,448.88Z"/><path class="cls-1" d="M422.63,786.19a.71.71,0,0,1-.5-1.21L785,422.13a.71.71,0,0,1,1,1L423.13,786A.7.7,0,0,1,422.63,786.19Z"/></g></g></svg>