<svg xmlns="http://www.w3.org/2000/svg" viewBox="0 0 20 23.6"><defs><style>.cls-1{fill:#fff;}</style></defs><title>lk</title><g id="Слой_2" data-name="Слой 2"><g id="Слой_1-2" data-name="Слой 1"><path class="cls-1" d="M10.05,21.79a16.6,16.6,0,0,0,6.06-1,8.63,8.63,0,0,0,1.61-.93,1.11,1.11,0,0,0,.45-1.09,8.23,8.23,0,0,0-2.38-5.43.92.92,0,0,1,.34-1.58.9.9,0,0,1,.93.26,9.79,9.79,0,0,1,2.69,4.89A13.93,13.93,0,0,1,20,18.69a3,3,0,0,1-1.38,2.78A10.08,10.08,0,0,1,15,23a21,21,0,0,1-6.47.52,16.8,16.8,0,0,1-5.55-1.22,9.27,9.27,0,0,1-1.38-.76A3.22,3.22,0,0,1,0,18.39,10.09,10.09,0,0,1,2.91,12a.91.91,0,0,1,1.56.35,1,1,0,0,1-.3,1,7.35,7.35,0,0,0-1.94,3.27,20.24,20.24,0,0,0-.39,2.2,1,1,0,0,0,.36.91,5.18,5.18,0,0,0,2,1.13A17.91,17.91,0,0,0,10.05,21.79Z"/><path class="cls-1" d="M3.65,6.36A6.36,6.36,0,1,1,10,12.71,6.34,6.34,0,0,1,3.65,6.36ZM10,1.82a4.54,4.54,0,1,0,4.51,4.6A4.57,4.57,0,0,0,10,1.82Z"/></g></g></svg>