<svg xmlns="http://www.w3.org/2000/svg" viewBox="0 0 181.48 35"><defs><style>.cls-1{fill:#1c2049;}.cls-2{fill:#35539c;}.cls-3{fill:#f39b30;}.cls-4{fill:#e75c52;}</style></defs><title>logo_1</title><g id="Слой_2" data-name="Слой 2"><g id="Слой_1-2" data-name="Слой 1"><path class="cls-1" d="M45.62,10.58h3.45v9.85l9.32-9.85h4.23L54.47,19,63,30.18H58.81l-6.69-8.82-3,3.13v5.69H45.62Z"/><path class="cls-1" d="M63.88,22.78c0-4.22,3-7.7,7.22-7.7,4.71,0,7.09,3.7,7.09,8a9.12,9.12,0,0,1-.06.95H67.27a4.12,4.12,0,0,0,4.25,3.75,5.4,5.4,0,0,0,4-1.76l2,1.76a7.49,7.49,0,0,1-6,2.77A7.39,7.39,0,0,1,63.88,22.78Zm10.95-1c-.23-2.19-1.51-3.89-3.75-3.89-2.08,0-3.53,1.59-3.84,3.89Z"/><path class="cls-1" d="M80.79,22.78c0-4.22,3-7.7,7.23-7.7,4.7,0,7.08,3.7,7.08,8A9.12,9.12,0,0,1,95,24H84.18a4.12,4.12,0,0,0,4.26,3.75,5.39,5.39,0,0,0,4-1.76l2,1.76a7.47,7.47,0,0,1-6.05,2.77A7.4,7.4,0,0,1,80.79,22.78Zm10.95-1c-.22-2.19-1.51-3.89-3.75-3.89-2.07,0-3.53,1.59-3.84,3.89Z"/><path class="cls-1" d="M98.52,15.39h3.38v2.47a5.94,5.94,0,0,1,5-2.78c3.5,0,6.88,2.78,6.88,7.73s-3.36,7.67-6.88,7.67a6,6,0,0,1-5-2.6v6.78H98.52Zm11.84,7.37c0-2.86-1.93-4.74-4.23-4.74a4.48,4.48,0,0,0-4.31,4.79,4.44,4.44,0,0,0,4.31,4.73C108.46,27.54,110.36,25.72,110.36,22.76Z"/><path class="cls-1" d="M117.67,10.58h3.67l6,9.26,6-9.26h3.67v19.6h-3.44V16.12l-6.19,9.24h-.11l-6.13-9.18v14h-3.39Z"/><path class="cls-1" d="M141.78,10.58h3.38V13.8h-3.38Zm0,4.81h3.38V30.18h-3.38Z"/><path class="cls-1" d="M149.59,15.39H153v2.3a5.32,5.32,0,0,1,4.62-2.61c3.33,0,5.26,2.24,5.26,5.69v9.41h-3.39v-8.4c0-2.3-1.15-3.62-3.16-3.62S153,19.54,153,21.83v8.35h-3.39Z"/><path class="cls-1" d="M166.19,22.76c0-4.9,3.33-7.68,6.86-7.68a6.12,6.12,0,0,1,5,2.61v-8h3.39V30.18h-3.39V27.71a5.91,5.91,0,0,1-5,2.77C169.58,30.48,166.19,27.71,166.19,22.76Zm12,0A4.44,4.44,0,0,0,173.86,18c-2.32,0-4.25,1.8-4.25,4.79s2,4.73,4.25,4.73A4.47,4.47,0,0,0,178.15,22.76Z"/><rect class="cls-2" x="19.15" y="2.18" width="12.37" height="14.96" transform="translate(14.25 -15.09) rotate(45)"/><rect class="cls-1" x="3.48" y="17.86" width="12.37" height="14.96" transform="translate(20.75 0.59) rotate(45)"/><polygon class="cls-2" points="8.75 8.75 8.75 35 17.5 35 17.5 30.6 21.85 35 26.25 30.65 26.25 35 35 35 35 8.75 8.75 8.75"/><polygon class="cls-3" points="21.87 13.16 26.25 8.75 26.25 0 17.47 0 13.13 4.4 13.13 0 0 0 0 26.25 13.13 26.25 13.13 21.85 17.47 26.25 26.25 26.25 26.25 17.5 21.87 13.16"/><polygon class="cls-4" points="8.75 26.25 0 26.25 0 0 8.75 8.75 8.75 26.25"/></g></g></svg>