<svg xmlns="http://www.w3.org/2000/svg" viewBox="0 0 161.73 55"><defs><style>.cls-1,.cls-2{fill:#fff;}.cls-2{fill-rule:evenodd;}</style></defs><title>mail</title><g id="Слой_2" data-name="Слой 2"><g id="Слой_1-2" data-name="Слой 1"><rect class="cls-1" x="156.51" y="5.09" width="5.21" height="35.39"/><path class="cls-2" d="M150.88,40.48h-5.21V15.4h5.21V40.48ZM148.27,4.21a3.52,3.52,0,1,1-3.52,3.52A3.51,3.51,0,0,1,148.27,4.21Z"/><path class="cls-2" d="M140,40.48h-5.12V37.74a11.25,11.25,0,0,1-8.11,3.39,13.19,13.19,0,1,1,0-26.37,11.58,11.58,0,0,1,8.11,3.17V15.4H140V40.48ZM127,20a7.75,7.75,0,0,0-7.89,7.91,8,8,0,0,0,15.91,0A7.73,7.73,0,0,0,127,20Z"/><path class="cls-2" d="M75.35,40.48H70.23V15.4h5.12v1.75a9.12,9.12,0,0,1,6.23-2.39,9.83,9.83,0,0,1,8.21,4,11.64,11.64,0,0,1,8.79-4c6.4,0,10.77,4.32,10.77,11.06V40.48h-5.13V25.82a5.94,5.94,0,1,0-11.87,0V40.48H87.22V25.82a5.94,5.94,0,1,0-11.87,0V40.48Z"/><path class="cls-2" d="M35.77,27.5a8.27,8.27,0,1,1-8.27-8.27,8.28,8.28,0,0,1,8.27,8.27ZM27.5,0A27.5,27.5,0,1,0,43,50.22l.08-.06-3.71-4.3-.06,0A21.86,21.86,0,1,1,49.36,27.5a22.1,22.1,0,0,1-.51,4.7c-.69,2.84-2.68,3.71-4.17,3.59A3.52,3.52,0,0,1,41.41,32V27.5A13.91,13.91,0,1,0,27.5,41.41a13.77,13.77,0,0,0,9.85-4.11,9,9,0,0,0,6.88,4.11c.24,0,.49,0,.73,0a9.31,9.31,0,0,0,5.59-1.88,10.4,10.4,0,0,0,3.56-5.24c.1-.35.3-1.15.3-1.16v0A24.3,24.3,0,0,0,55,27.5,27.54,27.54,0,0,0,27.5,0Z"/></g></g></svg>