<svg xmlns="http://www.w3.org/2000/svg" viewBox="0 0 771.84 613.93"><defs><style>.cls-1{fill:#f39b30;}.cls-2{fill:#e75c52;}.cls-3{fill:#fff;}</style></defs><title>main_back</title><g id="Слой_2" data-name="Слой 2"><g id="Слой_1-2" data-name="Слой 1"><polygon class="cls-1" points="43.84 43.83 43.84 439.1 174.92 570.19 771.84 570.19 771.84 43.83 43.84 43.83"/><polygon class="cls-2" points="175.13 175.84 43.61 44.32 43.61 438.87 43.63 438.87 43.62 438.88 175.13 570.39 175.13 438.88 175.13 438.88 175.13 438.88 175.13 175.84"/><path class="cls-3" d="M43.5,439.23a.71.71,0,0,1-.71-.71V43.5a.71.71,0,0,1,1.42,0v395A.71.71,0,0,1,43.5,439.23Z"/><path class="cls-3" d="M438.52,439.23a.71.71,0,0,1-.71-.71V43.5a.71.71,0,1,1,1.42,0v395A.71.71,0,0,1,438.52,439.23Z"/><path class="cls-3" d="M438.52,44.21H43.5a.71.71,0,0,1,0-1.42h395a.71.71,0,0,1,0,1.42Z"/><path class="cls-3" d="M438.52,175.88H43.5a.71.71,0,1,1,0-1.41h395a.71.71,0,1,1,0,1.41Z"/><path class="cls-3" d="M438.52,307.55H43.5a.71.71,0,1,1,0-1.41h395a.71.71,0,1,1,0,1.41Z"/><path class="cls-3" d="M438.52,439.23H43.5a.71.71,0,1,1,0-1.42h395a.71.71,0,0,1,0,1.42Z"/><path class="cls-3" d="M175.17,570.9a.7.7,0,0,1-.7-.71V43.5a.71.71,0,1,1,1.41,0V570.19A.71.71,0,0,1,175.17,570.9Z"/><path class="cls-3" d="M306.85,570.9a.71.71,0,0,1-.71-.71V43.5a.71.71,0,1,1,1.41,0V570.19A.7.7,0,0,1,306.85,570.9Z"/><path class="cls-3" d="M438.52,570.9a.71.71,0,0,1-.71-.71v-395a.71.71,0,0,1,1.42,0v395A.71.71,0,0,1,438.52,570.9Z"/><path class="cls-3" d="M372.68,570.9a.71.71,0,0,1-.71-.71v-395a.71.71,0,0,1,1.42,0v395A.71.71,0,0,1,372.68,570.9Z"/><path class="cls-3" d="M241,439.23a.71.71,0,0,1-.71-.71V43.5a.71.71,0,0,1,1.42,0v395A.71.71,0,0,1,241,439.23Z"/><path class="cls-3" d="M570.19,570.9a.71.71,0,0,1-.71-.71v-395a.71.71,0,0,1,1.42,0v395A.71.71,0,0,1,570.19,570.9Z"/><path class="cls-3" d="M570.19,175.88h-395a.71.71,0,1,1,0-1.41h395a.71.71,0,1,1,0,1.41Z"/><path class="cls-3" d="M570.19,307.55h-395a.71.71,0,1,1,0-1.41h395a.71.71,0,1,1,0,1.41Z"/><path class="cls-3" d="M570.19,439.23h-395a.71.71,0,0,1,0-1.42h395a.71.71,0,1,1,0,1.42Z"/><path class="cls-3" d="M570.19,570.9h-395a.71.71,0,1,1,0-1.42h395a.71.71,0,1,1,0,1.42Z"/><path class="cls-3" d="M218,613.69a.67.67,0,0,1-.5-.21L.21,396.22a.7.7,0,0,1,0-1,.7.7,0,0,1,1,0L218.47,612.48a.72.72,0,0,1,0,1A.7.7,0,0,1,218,613.69Z"/><path class="cls-3" d="M613,218.68a.7.7,0,0,1-.5-.21L395.22,1.21a.7.7,0,0,1,0-1,.7.7,0,0,1,1,0L613.48,217.47a.71.71,0,0,1-.5,1.21Z"/><path class="cls-3" d="M198.22,416.25a.7.7,0,0,1-.51-.2.73.73,0,0,1,0-1L481,131.78a.71.71,0,0,1,1,1L198.72,416.05A.69.69,0,0,1,198.22,416.25Z"/><path class="cls-3" d="M132.31,218.71a.69.69,0,0,1-.5-.21.7.7,0,0,1,0-1L349.1.21a.7.7,0,0,1,1,0,.7.7,0,0,1,0,1L132.81,218.5A.7.7,0,0,1,132.31,218.71Z"/><path class="cls-3" d="M481.31,350.42a.7.7,0,0,1-.5-.21l-349-349a.7.7,0,0,1,0-1,.7.7,0,0,1,1,0l349,349a.71.71,0,0,1-.5,1.21Z"/><path class="cls-3" d="M415.71,613.93a.7.7,0,0,1-.5-.21l-415-415a.71.71,0,0,1,1-1l415,415a.7.7,0,0,1,0,1A.67.67,0,0,1,415.71,613.93Z"/><path class="cls-3" d="M349.64,350.53a.7.7,0,0,1-.5-.21L.21,1.39a.7.7,0,0,1,0-1,.7.7,0,0,1,1,0L350.14,349.32a.71.71,0,0,1-.5,1.21Z"/><path class="cls-3" d="M329.89,613.69a.71.71,0,0,1-.5-1.21L612.48,329.39a.71.71,0,0,1,1,1L330.39,613.48A.7.7,0,0,1,329.89,613.69Z"/></g></g></svg>