<svg xmlns="http://www.w3.org/2000/svg" viewBox="0 0 253.2 155.67"><defs><style>.cls-1{fill:#e75c52;}.cls-2{fill:#fff;}.cls-3{fill:#1c2049;}.cls-4{fill:#fafafa;}.cls-5{fill:#1a2e35;}.cls-6{fill:#35539c;}</style></defs><title>marketing</title><g id="Слой_2" data-name="Слой 2"><g id="Слой_4" data-name="Слой 4"><circle class="cls-1" cx="55.59" cy="36.87" r="31.02"/><path class="cls-2" d="M55.59,62.69A25.82,25.82,0,1,1,81.4,36.87,25.85,25.85,0,0,1,55.59,62.69Zm0-47.22A21.4,21.4,0,1,0,77,36.87,21.42,21.42,0,0,0,55.59,15.47Z"/><path class="cls-2" d="M55.41,45.7a9.51,9.51,0,1,1,9.51-9.51A9.53,9.53,0,0,1,55.41,45.7Zm0-14.6a5.09,5.09,0,1,0,5.09,5.09A5.1,5.1,0,0,0,55.41,31.1Z"/><polygon class="cls-3" points="55.41 36.19 43.39 36.19 45.49 39.9 17.2 52.87 18.16 54.46 46.54 41.64 48.48 45.32 55.41 36.19"/><path class="cls-3" d="M17.2,52.87l-.3-.3a5.76,5.76,0,0,0-5.62-1.4L0,54.46l6.28,2.76L3.76,63.93l10.59-3.78a5.75,5.75,0,0,0,3.81-5.69h0Z"/><rect class="cls-4" x="174.92" y="0.16" width="78.14" height="73.76" rx="3.12"/><path class="cls-5" d="M250,73.93a4.85,4.85,0,0,0,.75-.12A3.07,3.07,0,0,0,253,71c0-.6,0-1.28,0-2,0-1.46,0-3.13,0-5,0-7.56,0-18.48-.06-32,0-6.75,0-14.15,0-22.09V3.86a4.58,4.58,0,0,0-.14-1.49A3,3,0,0,0,252,1.13,2.9,2.9,0,0,0,250.7.41a5.92,5.92,0,0,0-1.53-.1H178a3,3,0,0,0-2.79,2,5.27,5.27,0,0,0-.17,1.84V28.46c0,9.72,0,19.09,0,28q0,6.7,0,13c0,.52,0,1.07,0,1.57a2.89,2.89,0,0,0,.5,1.39,3,3,0,0,0,2.52,1.31h6.05l22.09,0,32,0,8.69,0h2.26l.78,0-.78,0h-2.26l-8.69,0-32,.05-22.09,0H178.1a3.27,3.27,0,0,1-2.76-1.43,3.32,3.32,0,0,1-.55-1.53c0-.55,0-1.06,0-1.59q0-6.34,0-13c0-8.92,0-18.29,0-28V3.19a3.33,3.33,0,0,1,.18-1A3.29,3.29,0,0,1,178,0H250a3.16,3.16,0,0,1,.81.11,3.26,3.26,0,0,1,1.42.79,3.23,3.23,0,0,1,.86,1.37,5,5,0,0,1,.15,1.57V9.91c0,7.94,0,15.34,0,22.09,0,13.5,0,24.42-.05,32,0,1.89,0,3.56,0,5,0,.72,0,1.39,0,2a3.06,3.06,0,0,1-.54,1.57,3.13,3.13,0,0,1-1.84,1.27A2.58,2.58,0,0,1,250,73.93Z"/><rect class="cls-1" x="188.56" y="29.7" width="4.21" height="36.19"/><rect class="cls-1" x="207.7" y="26.76" width="4.21" height="39.13"/><rect class="cls-1" x="227.53" y="21.79" width="4.21" height="44.1"/><rect class="cls-3" x="218.22" y="48.27" width="4.21" height="17.62"/><rect class="cls-6" x="193.47" y="25.82" width="4.21" height="40.07"/><rect class="cls-6" x="212.95" y="17.43" width="4.21" height="48.47"/><rect class="cls-3" x="238.4" y="17.43" width="4.21" height="48.47"/><rect class="cls-6" x="233.16" y="7.85" width="4.21" height="58.04"/><rect class="cls-5" x="198.62" y="40.46" width="4.21" height="25.43"/><path class="cls-5" d="M248.64,68.09c0,.09-15,.16-33.57.16s-33.57-.07-33.57-.16,15-.17,33.57-.17S248.64,68,248.64,68.09Z"/><rect class="cls-5" x="179.55" y="59.45" width="2.57" height="0.96"/><rect class="cls-5" x="179.55" y="46.57" width="2.57" height="0.96"/><rect class="cls-5" x="179.55" y="22.33" width="2.57" height="0.96"/><rect class="cls-5" x="179.55" y="10.15" width="2.57" height="0.96"/><rect class="cls-5" x="179.68" y="34.45" width="2.57" height="0.96"/><rect class="cls-2" x="67.78" y="42.37" width="145.39" height="113.15"/><path class="cls-5" d="M213.17,155.52c0-1.13-.06-44.86-.14-113.15l.14.14-145.38,0h0l.16-.16c0,40.79,0,79.36,0,113.15l-.14-.14,145.39.14-145.39.15h-.15v-.15c0-33.79,0-72.36,0-113.15v-.16h.18l145.38,0h.13v.14C213.22,110.66,213.17,154.4,213.17,155.52Z"/><path class="cls-5" d="M110.74,141.66c-.09,0-.16-11.42-.16-25.5s.07-25.5.16-25.5.17,11.42.17,25.5S110.83,141.66,110.74,141.66Z"/><path class="cls-5" d="M169.32,141.66c-.09,0-.16-11.42-.16-25.5s.07-25.5.16-25.5.17,11.42.17,25.5S169.41,141.66,169.32,141.66Z"/><path class="cls-5" d="M130.74,141.66c-.09,0-.16-14.6-.16-32.6s.07-32.6.16-32.6.17,14.59.17,32.6S130.83,141.66,130.74,141.66Z"/><path class="cls-5" d="M90.2,141.66c-.09,0-.16-14.6-.16-32.6s.07-32.6.16-32.6.17,14.59.17,32.6S90.29,141.66,90.2,141.66Z"/><path class="cls-5" d="M192.32,141.66c-.09,0-.17-14.6-.17-32.6s.08-32.6.17-32.6.16,14.59.16,32.6S192.41,141.66,192.32,141.66Z"/><path class="cls-5" d="M148.28,141.66c-.09,0-.17-16.85-.17-37.64s.08-37.64.17-37.64.16,16.85.16,37.64S148.37,141.66,148.28,141.66Z"/><path class="cls-5" d="M111.22,90.66a.48.48,0,0,1-.48.48.48.48,0,1,1,0-1A.48.48,0,0,1,111.22,90.66Z"/><path class="cls-5" d="M131.22,76.46a.47.47,0,0,1-.48.48.48.48,0,0,1-.48-.48.49.49,0,0,1,.48-.48A.48.48,0,0,1,131.22,76.46Z"/><path class="cls-1" d="M130.74,78.16a1.7,1.7,0,1,1,1.7-1.7A1.7,1.7,0,0,1,130.74,78.16Zm0-3.24a1.55,1.55,0,0,0,0,3.09,1.55,1.55,0,1,0,0-3.09Z"/><circle class="cls-5" cx="148.28" cy="66.38" r="0.48"/><path class="cls-5" d="M169.8,91.14a.48.48,0,1,1-1,0,.48.48,0,1,1,1,0Z"/><path class="cls-5" d="M192.81,76.46a.48.48,0,0,1-.48.48.47.47,0,0,1-.48-.48.48.48,0,0,1,.48-.48A.49.49,0,0,1,192.81,76.46Z"/><path class="cls-5" d="M90.68,76.94a.48.48,0,0,1-.48.48.48.48,0,0,1,0-1A.48.48,0,0,1,90.68,76.94Z"/><path class="cls-1" d="M196.85,99.54s-.53.13-1.45.52a10.49,10.49,0,0,0-3.46,2.66c-1.29,1.41-2.59,3.38-4.23,5.6a26.36,26.36,0,0,1-2.89,3.37,16.28,16.28,0,0,1-1.88,1.57,12.8,12.8,0,0,1-2.28,1.25,12.94,12.94,0,0,1-5.45.93,15.07,15.07,0,0,1-2.94-.37,7.74,7.74,0,0,1-2.86-1.25,9.11,9.11,0,0,1-2.23-2.32,30.12,30.12,0,0,1-1.69-2.77c-1.06-1.9-2.15-3.8-3.39-5.73s-2.35-4-3.62-6a29.28,29.28,0,0,0-4.39-5.67,12.94,12.94,0,0,0-3-2.09,11.07,11.07,0,0,0-1.67-.69l-.89-.19-.45-.1a3.57,3.57,0,0,0-.46,0,12.59,12.59,0,0,0-7.22,1.54,18.59,18.59,0,0,0-5.52,5.15,56,56,0,0,0-4,6.38c-2.4,4.35-5,8.5-8.56,11.61a14.58,14.58,0,0,1-6,3.32,11.5,11.5,0,0,1-3.29.36A12.19,12.19,0,0,1,110,116a21.06,21.06,0,0,1-5.29-2.77c-1.56-1.08-3-2.2-4.39-3.21a23.19,23.19,0,0,0-4.14-2.52,13.57,13.57,0,0,0-4.12-1.19,10.19,10.19,0,0,0-3.7.23,7,7,0,0,0-.81.26,4.85,4.85,0,0,0-.75.29,10.13,10.13,0,0,0-1.31.72,13.82,13.82,0,0,0-2,1.57c-.49.55-1,1-1.25,1.38a9.5,9.5,0,0,1-1,1.21,8.25,8.25,0,0,1,.82-1.33c.28-.43.72-.89,1.2-1.47a13,13,0,0,1,2-1.68,9.1,9.1,0,0,1,1.34-.79,6.06,6.06,0,0,1,.78-.32,4.8,4.8,0,0,1,.83-.29,10.48,10.48,0,0,1,3.89-.32,14.26,14.26,0,0,1,4.31,1.15,24.15,24.15,0,0,1,4.3,2.53c1.42,1,2.86,2.1,4.41,3.15a20.38,20.38,0,0,0,5.11,2.62,11.48,11.48,0,0,0,2.93.53,10.5,10.5,0,0,0,3-.36,13.78,13.78,0,0,0,5.58-3.16c3.35-3,5.94-7.07,8.32-11.4a56.06,56.06,0,0,1,4-6.5A19.63,19.63,0,0,1,140,88.89a13.65,13.65,0,0,1,7.81-1.66c.17,0,.34,0,.5,0l.49.1,1,.22a12.47,12.47,0,0,1,1.84.76,13.57,13.57,0,0,1,3.17,2.25,30.2,30.2,0,0,1,4.53,5.88c1.27,2.05,2.4,4.1,3.59,6s2.34,3.9,3.37,5.79,2.07,3.73,3.65,4.84a6.87,6.87,0,0,0,2.57,1.16,14.51,14.51,0,0,0,2.78.37,12.19,12.19,0,0,0,5.16-.82,12.69,12.69,0,0,0,2.16-1.15,14.9,14.9,0,0,0,1.83-1.47,28.46,28.46,0,0,0,2.89-3.25,70,70,0,0,1,4.38-5.54,10.21,10.21,0,0,1,3.66-2.58,6.44,6.44,0,0,1,1.13-.29C196.71,99.53,196.84,99.52,196.85,99.54Z"/><rect class="cls-5" x="89.72" y="57.24" width="23.54" height="1.31"/><rect class="cls-5" x="89.72" y="60.3" width="11.63" height="1.31"/><rect class="cls-3" x="67.78" y="39.07" width="145.39" height="9.09"/></g></g></svg>