<svg xmlns="http://www.w3.org/2000/svg" viewBox="0 0 203.45 200"><defs><style>.cls-1{fill:#f39b30;}.cls-2{fill:#e75c52;}.cls-3{fill:#db4642;}.cls-4{fill:#35539c;}.cls-5{fill:#1c2049;}.cls-6{fill:#ed9c0d;}.cls-7{fill:#cb2527;}</style></defs><title>news_1</title><g id="Слой_2" data-name="Слой 2"><g id="Слой_1-2" data-name="Слой 1"><path class="cls-1" d="M196.31,161.42l-56,0q0,19.26,0,38.51c16.21,0,32.42.09,48.63,0a7.53,7.53,0,0,0,7.46-7.44C196.43,182.16,196.34,171.79,196.31,161.42Z"/><path class="cls-1" d="M112.15,161.44l-56,0c0,10.37-.11,20.74,0,31.11A7.54,7.54,0,0,0,63.56,200c16.21.07,32.42,0,48.63,0Q112.18,180.69,112.15,161.44Z"/><path class="cls-2" d="M117.92,32.88a19.44,19.44,0,0,0-10.43-11.79,4.14,4.14,0,0,1-2.26-3.22c-1.15-4.5-2.72-8.75-6.25-12C93,.23,83.42-1.63,76.14,1.54c-7.54,3.29-12,10.51-11.7,19.35.2,6.86.57,13.71.84,20.57a23.92,23.92,0,0,1-.13,2.39A2.27,2.27,0,0,1,66.89,45a36.46,36.46,0,0,0,5.83,6,41.72,41.72,0,0,0,9-17.22c1.18-4.72,1.09-9.52,1-14.32a3.06,3.06,0,0,1,3-3.39,3.12,3.12,0,0,1,3.62,2.7,38.55,38.55,0,0,1,0,11.5,46,46,0,0,1-8.25,21.33C80,53.14,78.26,54.41,78,56.58c1.76,2.9,4.55,4.9,6.64,7.5l2.56-2.19a20,20,0,0,1,1.43-1.62q7.84-7.41,15.73-14.8C108.83,41.26,113.38,37.08,117.92,32.88Z"/><path class="cls-2" d="M45.06,62.67C39,62,32.88,61.41,26.79,60.74c-4.78-.53-9.53-1.25-14.25.6a19.65,19.65,0,0,0-12,23.08C2.48,92.31,7,97.71,14.82,100.09a8,8,0,0,1,5.57,4.85,16.65,16.65,0,0,0,10,9.24,8.7,8.7,0,0,0,1.07-.72c6.78-6.32,13.48-12.72,20.35-18.94,3.29-3,6.26-6.33,9.91-8.91A7,7,0,0,1,64,83.37a75.93,75.93,0,0,0-7.44-7.46c-2.35,1.46-4.63,3-7,4.37a48.18,48.18,0,0,1-18.89,5.65,34.22,34.22,0,0,1-12.13-.86,3.73,3.73,0,0,1-2.62-4,4,4,0,0,1,4.57-2.8,40.11,40.11,0,0,0,6.25.69,41.61,41.61,0,0,0,25-8.3c-.73-2.07-2.74-3-4-4.66C46.79,64.88,45.3,64.26,45.06,62.67Z"/><path class="cls-1" d="M117.92,32.88c-4.54,4.2-9.09,8.38-13.6,12.59q-7.89,7.38-15.73,14.8a20,20,0,0,0-1.43,1.62,27.65,27.65,0,0,1,3.57,3.92h0l.48.45A80,80,0,0,0,106.85,70a102.09,102.09,0,0,0,21.53,1.38c6.08-6.2,12.64-11.9,18.92-17.88q4.37-4.14,8.82-8.2c.81-.73.95-1.22.13-2.09-6-6.32-11.82-12.73-17.83-19-3.06-3.19-7.61-3.16-11-.1C124.2,27,121.08,30,117.92,32.88Z"/><path class="cls-1" d="M61.72,85.61c-3.65,2.58-6.62,5.93-9.91,8.91-6.87,6.22-13.57,12.62-20.35,18.94a8.7,8.7,0,0,1-1.07.72c-1.19,2.08-3.23,3.33-4.86,5-1.44,1.45-3,2.77-4.46,4.22-3.05,3-3.49,7.53-.66,10.69,5.9,6.59,12,13,18,19.47,1,1.11,1.5.12,2.08-.41,4.55-4.22,9.09-8.47,13.64-12.69.58-.53,1-1.25,1.87-1.46,1.93-2,3.71-4.22,6.16-5.67,1.93-2,3.59-4.25,6-5.67a111.62,111.62,0,0,0-2-35.76c-.14-.64-.33-1.27-.49-1.9C64.24,88.63,62.64,87.43,61.72,85.61Z"/><path class="cls-1" d="M140.29,133.34l56,0q0-19.28.07-38.57l-1.79-.09-23.19,0c-.1.5-.2,1-.28,1.49-.32,2.11-.54,4,1.7,5.54,2.57,1.74,4.85,3.92,7.25,5.92.49.41,1.25.8,1.2,1.46s-1,.72-1.58.86c-3.24.8-6.48,1.65-9.76,2.18a3.33,3.33,0,0,0-2.93,2.45c-1.42,3.71-2.94,7.38-4.41,11a2,2,0,0,1-1.29-1.13c-1.86-3.13-3.73-6.24-5.57-9.38a2.54,2.54,0,0,0-2.16-1.57c-4.41-.25-8.83-.58-13.24-.88Q140.3,123,140.29,133.34Z"/><path class="cls-3" d="M112.15,161.44q0,19.26,0,38.51h28.06q0-19.26,0-38.51Z"/><path class="cls-3" d="M140.29,133.34q0-10.31,0-20.61a.82.82,0,0,1,0-.41q0-8.75-.07-17.48h-13.6a13,13,0,0,0,.73,3.6c.33,1.33,0,1.77-1.42,1.3-3.85-1.29-7.73-2.46-11.59-3.72a5.76,5.76,0,0,0-2.13-.37l-.09,37.7Z"/><path class="cls-2" d="M45.06,62.67c.24,1.59,1.73,2.21,2.6,3.31,1.27,1.61,3.28,2.59,4,4.66,2.35,1.08,3.55,3.22,4.84,5.27A75.93,75.93,0,0,1,64,83.37h.43c3.65-4.37,8.07-8,12.26-11.76,2.63-2.38,4.76-5.35,7.94-7.11a2,2,0,0,1,0-.43c-2.09-2.6-4.88-4.6-6.64-7.5-2-1.66-4-3.29-5.24-5.66a36.46,36.46,0,0,1-5.83-6,2.27,2.27,0,0,0-1.74-1.12C55.33,46.79,48.69,53.12,45.06,62.67Z"/><path class="cls-2" d="M189.31,23.33c-3.29,3-6.21,5.55-8.94,8.29a4.18,4.18,0,0,1-4.51,1.12c-3.72-.94-7.48-1.73-11.7-2.7,1.88,4.15,3.48,7.88,5.27,11.51a3.27,3.27,0,0,1-.22,3.61c-2.12,3.38-4.12,6.84-6.48,10.79,4.22-.47,8-.74,11.64-1.35a4.5,4.5,0,0,1,4.86,1.85c2.32,3,4.9,5.71,7.71,8.93.88-4.3,1.74-8.1,2.4-11.94A3.9,3.9,0,0,1,192.07,50c3.66-1.4,7.22-3,11.29-4.77-3.74-2.11-7-4.13-10.41-5.83a4.49,4.49,0,0,1-2.67-4.25C190,31.39,189.67,27.63,189.31,23.33Z"/><path class="cls-2" d="M140.32,112.32a.82.82,0,0,0,0,.41c4.41.3,8.83.63,13.24.88a2.54,2.54,0,0,1,2.16,1.57c1.84,3.14,3.71,6.25,5.57,9.38a2,2,0,0,0,1.29,1.13c1.47-3.66,3-7.33,4.41-11a3.33,3.33,0,0,1,2.93-2.45c3.28-.53,6.52-1.38,9.76-2.18.56-.14,1.52-.07,1.58-.86s-.71-1-1.2-1.46c-2.4-2-4.68-4.18-7.25-5.92-2.24-1.52-2-3.43-1.7-5.54.08-.5.18-1,.28-1.49.17-2.47.31-5,.52-7.41.12-1.39-.33-1.56-1.42-.86-2.95,1.89-6,3.67-8.85,5.66a3.61,3.61,0,0,1-4,.31c-3.62-1.64-7.29-3.16-11.3-4.88l1.8,7.13c.48,2,.89,3.94,1.46,5.87a1.86,1.86,0,0,1-.36,2C146.1,105.68,143.68,109.42,140.32,112.32Z"/><path class="cls-4" d="M178.83,14a3.39,3.39,0,0,0,2.78,3.53,3.26,3.26,0,0,0,3.94-2,24.45,24.45,0,0,1,1.7-3.54,10.84,10.84,0,0,1,8.62-4.87c2.64-.22,4.07-1.42,4-3.61S198.33.05,195.7.05C188.43,0,180.77,6,179,13,178.92,13.31,178.88,13.67,178.83,14Z"/><path class="cls-5" d="M164.81,6.94A7,7,0,1,0,158,14.08,7,7,0,0,0,164.81,6.94Z"/><path class="cls-5" d="M194.59,94.7l1.79.09a6.84,6.84,0,0,0,6.55-4.59,7,7,0,0,0-9.09-9,6.63,6.63,0,0,0-4.44,6,6.81,6.81,0,0,0,3.65,6.71A17,17,0,0,0,194.59,94.7Z"/><path class="cls-4" d="M161.3,75.91a3.49,3.49,0,0,0,4.7,3.33,8.69,8.69,0,0,0,1.56-.77,7.92,7.92,0,0,1,8.1-.22,3.43,3.43,0,0,0,5-1.49c.85-1.66.24-3.49-1.58-4.67-4.6-3-12.42-2.35-16.61,1.31A3.23,3.23,0,0,0,161.3,75.91Z"/><path class="cls-6" d="M140.32,112.32c3.36-2.9,5.78-6.64,8.91-9.75a1.86,1.86,0,0,0,.36-2c-.57-1.93-1-3.91-1.46-5.87l-7.88.14Q140.28,103.59,140.32,112.32Z"/><path class="cls-2" d="M90.73,65.81h0Z"/><path class="cls-2" d="M56,139c0,2.07.07,4.15.11,6.22v16.23l56,0h28.14l56,0V133.36l-56,0H72.13c3.1-2.93,5.86-5.41,8.45-8.06a3.32,3.32,0,0,1,4.23-.82c3.88,1.6,7.86,3,11.81,4.4a3.2,3.2,0,0,0-.08-2.34c-1.26-5.16-2.49-10.33-3.73-15.5a18.1,18.1,0,0,1-1.64-5.28,5.27,5.27,0,0,1-.52-.92A108.14,108.14,0,0,0,80.47,83.09c-1.51-2.43-3.08-4.82-4.63-7.23l.43-.49a121,121,0,0,0,29.06,17.3l4.85,2a3,3,0,0,1,2.06,1,5.76,5.76,0,0,1,2.13.37c3.86,1.26,7.74,2.43,11.59,3.72,1.43.47,1.75,0,1.42-1.3a13,13,0,0,1-.73-3.6c-1.54-2.75-1.86-5.92-2.93-8.83-.35-.92.5-1.29,1-1.76q6-5.61,12-11.19c.58-.53,1.2-1,2.19-1.84-3.92-.33-7.22.23-10.53.2A102.09,102.09,0,0,1,106.85,70a80,80,0,0,1-15.66-3.78l-.47-.44c-2.23.45-4-1.44-6.14-1.3-3.18,1.76-5.31,4.73-7.94,7.11C72.45,75.42,68,79,64.38,83.38c0,2.28,1.17,4.34,1.31,6.59.16.63.35,1.26.49,1.9a111.62,111.62,0,0,1,2,35.76c-.4,1.89,0,3.89-.76,5.74l-5.28-.07C59.73,134.75,58,137,56,139Zm11.16-3.9a2.12,2.12,0,0,0,.25-.81A2.12,2.12,0,0,1,67.18,135.07Z"/><path class="cls-3" d="M105.33,92.67a121,121,0,0,1-29.06-17.3l-.43.49c1.55,2.41,3.12,4.8,4.63,7.23a108.14,108.14,0,0,1,10.18,21.73,5.27,5.27,0,0,0,.52.92c.59-.53,1.18-1.07,1.78-1.58,3.61-3,6.65-6.66,10.47-9.45Z"/><path class="cls-1" d="M80.58,125.28a3.32,3.32,0,0,1,4.23-.82c3.88,1.6,7.86,3,11.81,4.4a3.2,3.2,0,0,0-.08-2.34c-1.26-5.16-2.49-10.33-3.73-15.5h0a18.1,18.1,0,0,1-1.64-5.28c.59-.53,1.18-1.07,1.78-1.58,3.61-3,6.65-6.66,10.47-9.45l6.6,0c-2,2.17-4.15,4.24-6.3,6.26l-2.27,2.11,2.27-2.11c2.15-2,4.27-4.09,6.3-6.26l.06-.09.1,0a3,3,0,0,1,2.06,1l-.09,37.7h-40C75.23,130.41,78,127.93,80.58,125.28Z"/><path class="cls-1" d="M62.18,133.3l5.28.07c.71-1.85.36-3.85.76-5.74C65.77,129.05,64.11,131.32,62.18,133.3Z"/><path class="cls-3" d="M64.38,83.38H64a7,7,0,0,0-2.23,2.24c.92,1.82,2.52,3,4,4.36C65.55,87.72,64.4,85.66,64.38,83.38Z"/><path class="cls-3" d="M84.6,64.08a2,2,0,0,0,0,.43c2.17-.14,3.91,1.75,6.15,1.3a27.65,27.65,0,0,0-3.57-3.92Z"/><path class="cls-7" d="M91.19,66.25l-.48-.45Z"/><path class="cls-3" d="M72.72,50.92c1.22,2.37,3.24,4,5.24,5.66.3-2.17,2.07-3.44,3.21-5.06a46,46,0,0,0,8.25-21.33,38.55,38.55,0,0,0,0-11.5A3.12,3.12,0,0,0,85.8,16a3.06,3.06,0,0,0-3,3.39c0,4.8.14,9.6-1,14.32A41.72,41.72,0,0,1,72.72,50.92Z"/><path class="cls-3" d="M56.51,75.91c-1.29-2-2.49-4.19-4.84-5.27a41.61,41.61,0,0,1-25,8.3,40.11,40.11,0,0,1-6.25-.69,4,4,0,0,0-4.57,2.8,3.73,3.73,0,0,0,2.62,4,34.22,34.22,0,0,0,12.13.86,48.18,48.18,0,0,0,18.89-5.65C51.88,79,54.16,77.37,56.51,75.91Z"/></g></g></svg>