<svg xmlns="http://www.w3.org/2000/svg" viewBox="0 0 185 185"><defs><style>.cls-1{fill:#35539c;}.cls-2{fill:#1c2049;}.cls-3{fill:#f39b30;}.cls-4{fill:#e75c52;}</style></defs><title>news_3</title><g id="Слой_2" data-name="Слой 2"><g id="Слой_1-2" data-name="Слой 1"><rect class="cls-1" x="101.22" y="11.55" width="65.41" height="79.06" transform="translate(75.34 -79.74) rotate(45)"/><rect class="cls-2" x="18.37" y="94.39" width="65.41" height="79.06" transform="translate(109.66 3.11) rotate(45)"/><polygon class="cls-1" points="46.25 46.25 46.25 185 92.5 185 92.5 161.74 115.49 185 138.75 162.01 138.75 185 185 185 185 46.25 46.25 46.25"/><polygon class="cls-3" points="115.6 69.57 138.75 46.25 138.75 0 92.36 0 69.38 23.26 69.38 0 0 0 0 138.75 69.38 138.75 69.38 115.49 92.36 138.75 138.75 138.75 138.75 92.5 115.6 69.57"/><polygon class="cls-4" points="46.25 138.75 0 138.75 0 0 46.25 46.25 46.25 138.75"/></g></g></svg>