<svg xmlns="http://www.w3.org/2000/svg" viewBox="0 0 205.81 180"><defs><style>.cls-1{fill:#35539c;}.cls-2{fill:#e75c52;}.cls-3{fill:#f39b30;}.cls-4{fill:#1c2049;}</style></defs><title>news_2</title><g id="Слой_2" data-name="Слой 2"><g id="Слой_1-2" data-name="Слой 1"><path class="cls-1" d="M205.69,84.38c0-13.19.16-26.37,0-39.55-.08-7-6-12.24-13.31-12.25q-25.9,0-51.81,0c-.86,0-1.73-.06-2.6-.08H124.56c-9.1,0-18.2.07-27.29.08-5.36,0-10.71-.06-16.06-.08H67.78c-6.41,0-12.83.07-19.25.08H14.43C7.11,32.57,3.2,35.21.46,42a2.5,2.5,0,0,1-.46.58V92c1.26,2,1.86,4.46,3.74,6.14.61.55,1.46,1,1.62,1.9a2.91,2.91,0,0,1,1.62.71c10.92,7.94,23.16,13,36.08,16.56a191.38,191.38,0,0,0,34.69,6.1c4.32.36,8.64.81,13,.76l.17-.8c-.06-2.15-.11-4.3-.17-6.45l-1.09-.11,1.09.11c0-.53.07-1.06.08-1.6,0-4.36,1.34-5.65,5.78-5.65s8.66,0,13,0c4,0,5.36,1.44,5.39,5.45,0,.6,0,1.2.07,1.8q-.09,3.22-.16,6.45l.16.8a189.67,189.67,0,0,0,56.49-9.6,98.3,98.3,0,0,0,27.27-13.82,2.73,2.73,0,0,1,1.61-.7c.36-1.25,1.56-1.77,2.32-2.66C206,93.55,206,89,205.69,84.38Z"/><path class="cls-2" d="M130.52,6.21c-.13,0-.24-.13-.36-.18C118.72.56,106.67-1,94.18.58A54.72,54.72,0,0,0,71.43,8.41c-2,1.29-3.5,3-3.61,5.46a106.1,106.1,0,0,0,0,11.42q0,3.6-.08,7.2H81.21l-.06-7.2c0-1.74.16-3.48,0-5.21a2.26,2.26,0,0,1,1.69-2.53A47.72,47.72,0,0,1,94.4,14.22a51.39,51.39,0,0,1,28.49,3.33,2.28,2.28,0,0,1,1.68,2.53c-.1,1.73,0,3.47.05,5.21l-.06,7.2H138c0-2.4-.05-4.8-.08-7.2a57,57,0,0,1,.17-6.8C139,12.24,136.09,8.42,130.52,6.21Z"/><path class="cls-3" d="M114.88,123.37q.08-3.23.16-6.45c0-.6-.07-1.2-.07-1.8,0-4-1.43-5.44-5.39-5.45-4.33,0-8.66,0-13,0s-5.75,1.29-5.78,5.65c0,.54,0,1.07-.08,1.6.06,2.15.11,4.3.17,6.45-.06.26-.11.53-.17.8.24,2.52-.18,5.07.39,7.58L92,134.2a.51.51,0,0,1,.17.35l1.44,2.08c.84.75,1.68,1.5,2.51,2.26a18.78,18.78,0,0,0,5.62,2h2.33a17.39,17.39,0,0,0,6.06-2.31l2.08-2c.47-.7,1-1.39,1.43-2.08a.51.51,0,0,1,.17-.35c.35-1,.69-2,1-3,.07-2.36.15-4.71.22-7.07C115,123.9,114.93,123.64,114.88,123.37Z"/><path class="cls-4" d="M200.47,108.25a4.14,4.14,0,0,0-.09-.6l0-7.6a2.73,2.73,0,0,0-1.61.7,98.3,98.3,0,0,1-27.27,13.82,189.67,189.67,0,0,1-56.49,9.6c-.07,2.36-.15,4.71-.22,7.07h0c-.34,1-.68,2-1,3a.51.51,0,0,0-.17.35l-1.43,2.08h0l-2.08,2a17.39,17.39,0,0,1-6.06,2.31h-2.33a18.78,18.78,0,0,1-5.62-2c-.83-.76-1.67-1.51-2.51-2.26h0l-1.44-2.08a.51.51,0,0,0-.17-.35h0c-.29-.82-.57-1.64-.86-2.45h0c-.57-2.51-.15-5.06-.39-7.58-4.34,0-8.66-.4-13-.76a191.38,191.38,0,0,1-34.69-6.1C30.14,113.75,17.9,108.69,7,100.75A2.91,2.91,0,0,0,5.36,100c0,2.54,0,5.08,0,7.61a8.26,8.26,0,0,0-.1,1q0,29,0,58a13.37,13.37,0,0,0,.22,1.77,9.42,9.42,0,0,0,2,5.65h0l.78,1.09h0a7,7,0,0,0,2.56,2.38c-.11-2.05-.51-2.91-1.44-2.8.93-.11,1.33.75,1.44,2.8a.17.17,0,0,0,.22.14,5.67,5.67,0,0,0,.71,0,5.67,5.67,0,0,1-.71,0,6.11,6.11,0,0,0,3,1.5h0a11.67,11.67,0,0,0,5.29.84H77.82q54.44,0,108.88,0c7.91,0,13.7-5.27,13.74-12.89C200.55,147.48,200.48,127.86,200.47,108.25ZM91.69,135.83a.61.61,0,0,0,.21.42A.61.61,0,0,1,91.69,135.83Zm4.41,3.43c.08,1.64,1.5,1.75,2.7,2.07C97.6,141,96.18,140.9,96.1,139.26Zm20.05-7.46c-.08.28-.16.55-.25.82.09-.27.17-.54.25-.82,2,0,3.94-.12,5.9-.25C120.09,131.68,118.12,131.77,116.15,131.8Z"/></g></g></svg>