<svg xmlns="http://www.w3.org/2000/svg" viewBox="0 0 185.01 45"><defs><style>.cls-1,.cls-2{fill:#fff;}.cls-2{fill-rule:evenodd;}</style></defs><title>orange</title><g id="Слой_2" data-name="Слой 2"><g id="Слой_1-2" data-name="Слой 1"><path class="cls-1" d="M77.28,41.08H74.14V44h3.51v.88H73.09v-8.1h4.38v.88H74.14v2.56h3.14Z"/><path class="cls-1" d="M78.87,43.6a3.6,3.6,0,0,0,1.86.52c1.08,0,1.7-.56,1.7-1.38s-.43-1.18-1.52-1.59c-1.33-.49-2.15-1.18-2.15-2.31a2.34,2.34,0,0,1,2.45-2.22l.17,0a3.55,3.55,0,0,1,1.78.4l-.29.85a3,3,0,0,0-1.52-.38c-1.11,0-1.53.66-1.53,1.21,0,.76.49,1.13,1.61,1.56,1.37.53,2.06,1.19,2.06,2.38S82.57,45,80.66,45a4.13,4.13,0,0,1-2.06-.53Z"/><path class="cls-1" d="M86.46,37.66H84v-.89h6v.89H87.52v7.21H86.46Z"/><path class="cls-1" d="M91.31,42.32l-.85,2.55H89.38l2.77-8.1H93.4l2.76,8.1H95l-.86-2.55ZM94,41.51l-.8-2.34a14.54,14.54,0,0,1-.42-1.47h0c-.12.47-.24,1-.41,1.46l-.79,2.35Z"/><path class="cls-1" d="M98,37.66H95.5v-.89h6v.89H99v7.21H98Z"/><path class="cls-1" d="M106.57,41.08h-3.13V44h3.5v.88h-4.56v-8.1h4.38v.88h-3.32v2.56h3.13Z"/><path class="cls-1" d="M117.67,41.31c-.06-1.13-.13-2.49-.13-3.49h0c-.28.94-.61,2-1,3.07l-1.43,3.93h-.79L113,41c-.38-1.16-.7-2.19-.93-3.15h0c0,1-.09,2.35-.16,3.58l-.21,3.47h-1l.56-8.1h1.34l1.38,3.92c.33,1,.6,1.88.82,2.73h0c.22-.82.51-1.71.87-2.73l1.44-3.92h1.33l.5,8.1h-1Z"/><path class="cls-1" d="M121.69,42.32l-.84,2.55h-1.08l2.76-8.1h1.25l2.77,8.1h-1.12l-.87-2.55Zm2.67-.81-.81-2.34c-.17-.52-.3-1-.41-1.47h0c-.12.47-.24,1-.41,1.46l-.79,2.35Z"/><path class="cls-1" d="M127.73,44.87v-8.1h1.16l2.58,4.1a21.61,21.61,0,0,1,1.44,2.63h0c-.1-1.09-.12-2.07-.12-3.33V36.77h1v8.1h-1.06l-2.56-4.11a23.83,23.83,0,0,1-1.51-2.7h0c.06,1,.07,2,.07,3.34v3.46Z"/><path class="cls-1" d="M137,42.32l-.84,2.55H135l2.77-8.1H139l2.76,8.1h-1.12l-.86-2.55Zm2.66-.81-.8-2.34c-.18-.52-.3-1-.42-1.47h0c-.12.47-.24,1-.41,1.46l-.79,2.35Z"/><path class="cls-1" d="M149,44.51a7.35,7.35,0,0,1-2.5.44,3.78,3.78,0,0,1-4.14-3.41,3,3,0,0,1,0-.67,4,4,0,0,1,3.91-4.19,3.69,3.69,0,0,1,.47,0,5,5,0,0,1,2,.37l-.26.85a4,4,0,0,0-1.8-.34,3,3,0,0,0-3.25,2.78,3.68,3.68,0,0,0,0,.47,3,3,0,0,0,2.63,3.26,4,4,0,0,0,.49,0,3.52,3.52,0,0,0,1.4-.22V41.46h-1.64v-.84H149Z"/><path class="cls-1" d="M154.74,41.07h-3.12V44h3.5v.88h-4.56v-8.1h4.38v.88h-3.32v2.56h3.12Z"/><path class="cls-1" d="M163.3,41.31c-.06-1.13-.14-2.49-.14-3.49h0c-.28.94-.61,2-1,3.07l-1.43,3.93h-.79L158.58,41c-.39-1.16-.7-2.19-.93-3.15h0c0,1-.09,2.35-.15,3.58l-.22,3.47h-1l.57-8.1h1.32l1.39,3.92c.33,1,.6,1.88.81,2.73h0c.22-.82.51-1.71.86-2.73l1.45-3.92H164l.5,8.1h-1Z"/><path class="cls-1" d="M170.31,41.07h-3.13V44h3.5v.88h-4.56v-8.1h4.38v.88h-3.32v2.56h3.13Z"/><path class="cls-1" d="M172,44.87v-8.1h1.16l2.58,4.1a24.72,24.72,0,0,1,1.44,2.63h0c-.09-1.09-.12-2.07-.12-3.33V36.77h1v8.1h-1.06l-2.57-4.11a23.75,23.75,0,0,1-1.5-2.7h0c.06,1,.07,2,.07,3.34v3.46Z"/><path class="cls-1" d="M181.48,37.66H179v-.89h6v.89h-2.47v7.21h-1.06Z"/><rect class="cls-1" y="26.19" width="14.88" height="3.44"/><rect class="cls-1" y="33.87" width="10.51" height="3.44"/><rect class="cls-1" y="41.56" width="14.88" height="3.44"/><path class="cls-2" d="M26.33.34a22.48,22.48,0,0,0-26,18.29c-.09.52-.17,1.09-.22,1.69,0,.44-.08,1-.09,1.59l8,.16c0-.25,0-.57.07-.95s.09-.7.16-1.1A14.43,14.43,0,1,1,23,37v8l.51,0A22.5,22.5,0,0,0,26.33.34Z"/><polygon class="cls-2" points="120.44 1.7 119.68 1.7 119.68 2.45 119.68 16.34 107.69 1.97 107.47 1.7 107.12 1.7 103.62 1.7 102.86 1.7 102.86 2.45 102.86 28.53 102.86 29.28 103.62 29.28 107.19 29.28 107.95 29.28 107.95 28.53 107.95 10.49 123.42 29.45 124.76 31.09 124.76 28.97 124.76 2.45 124.76 1.7 124.01 1.7 120.44 1.7"/><path class="cls-2" d="M158,13.62l-.11-.68h-15v5.12h9.5A7.34,7.34,0,0,1,150,22.5a9,9,0,0,1-6,2A8.38,8.38,0,0,1,137.84,22a9.19,9.19,0,0,1-2.44-6.44,9.23,9.23,0,0,1,2.44-6.45,8.47,8.47,0,0,1,12-.13,8.09,8.09,0,0,1,1.07,1.27l.48.71.68-.53,3-2.34.62-.49-.47-.63a14.32,14.32,0,0,0-5-4.22A14.24,14.24,0,0,0,133.9,5.3a14.41,14.41,0,0,0-4.09,10.21,14.38,14.38,0,0,0,4.1,10.2A14,14,0,0,0,144,29.82a14.23,14.23,0,0,0,10.11-4,13.92,13.92,0,0,0,4.07-10c0-.36,0-.72,0-1.1A9.91,9.91,0,0,0,158,13.62Z"/><path class="cls-2" d="M68.21,16.38a9.17,9.17,0,0,0,1.25-4.66,9.78,9.78,0,0,0-3.1-7.21A10.91,10.91,0,0,0,58.77,1.7H50v5h8.94a5.09,5.09,0,0,1,3.66,1.38A4.94,4.94,0,0,1,64,11.72a5,5,0,0,1-5,5H50V29.28H55V21.64H58.1a5.87,5.87,0,0,1,4.25,1.56,6.07,6.07,0,0,1,1.73,4.25v1.83h5.38V27.45a11.45,11.45,0,0,0-1.22-5.3,8.94,8.94,0,0,0-2.52-3A9.51,9.51,0,0,0,68.21,16.38Z"/><path class="cls-2" d="M86.86,1.68,86.16,0l-.7,1.68-11,26.56-.43,1h5.65l.19-.48c1.54-3.86,2.62-6.57,3.5-8.8l2.8-7.12c1.93,5,3.62,9.21,5.59,14.15l.71,1.77.19.48H98.3l-.43-1Z"/><rect class="cls-1" x="163.19" y="1.74" width="21.82" height="5.05"/><rect class="cls-1" x="163.19" y="13.01" width="15.41" height="5.06"/><rect class="cls-1" x="163.19" y="24.29" width="21.82" height="5.06"/></g></g></svg>