<svg xmlns="http://www.w3.org/2000/svg" viewBox="0 0 189.93 155.01"><defs><style>.cls-1{fill:#f39b30;}.cls-2{fill:#fff;}.cls-3{fill:#181613;}.cls-4,.cls-7{opacity:0.5;}.cls-5,.cls-7{fill:#e0e0e0;}.cls-6{fill:#e75c52;}.cls-8{fill:#a8a8a8;}.cls-9{fill:#35539c;}.cls-10{fill:#1c2049;}</style></defs><title>programmer</title><g id="Слой_2" data-name="Слой 2"><g id="Слой_4" data-name="Слой 4"><path class="cls-1" d="M28.7,81.92c0-.6.08-2.2.08-2.87,0-2.92-1-4.24-3.76-4.32a1.92,1.92,0,1,1,0-3.83c2.72-.12,3.76-1.39,3.76-4.35,0-.68-.08-2.27-.08-2.87,0-3.88,1.63-6.35,7.82-7.71a1.73,1.73,0,0,1,1.08,3.28c-3.87,1.19-4.43,2.43-4.43,5.15,0,.79.08,2.11.08,2.95,0,3.11-1.52,4.63-4.16,5.47,2.68.88,4.16,2.35,4.16,5.47,0,.84-.08,2.15-.08,2.95,0,2.72.56,4,4.43,5.15a1.73,1.73,0,0,1-1.08,3.28C30.33,88.31,28.7,85.83,28.7,81.92Z"/><path class="cls-1" d="M52.09,63.68c0,.6-.08,2.19-.08,2.87,0,3,1.08,4.23,3.79,4.35a1.92,1.92,0,1,1,0,3.83c-2.71.08-3.79,1.4-3.79,4.32,0,.67.08,2.27.08,2.87,0,3.91-1.64,6.39-7.83,7.75a1.72,1.72,0,0,1-1-3.28c3.83-1.2,4.39-2.43,4.39-5.15,0-.8-.08-2.11-.08-2.95,0-3.12,1.52-4.63,4.15-5.47-2.68-.88-4.15-2.36-4.15-5.47,0-.84.08-2.16.08-2.95,0-2.72-.56-4-4.39-5.15a1.72,1.72,0,0,1,1-3.28C50.45,57.33,52.09,59.8,52.09,63.68Z"/><path class="cls-1" d="M134.4,26.2a2.34,2.34,0,0,1-1.63,4,2.48,2.48,0,0,1-1.71-.66L120.62,19c-.12,0-.15-.12-.19-.23l-.11-.07a.73.73,0,0,1-.11-.3.19.19,0,0,1-.11-.15c0-.07,0-.18-.08-.22s-.07-.15-.07-.19v-.26c0-.07,0-.11,0-.22s0-.15,0-.19v-.26c0-.07.07-.11.07-.14s0-.19.08-.3,0,0,0-.08.11-.26.19-.33a.07.07,0,0,1,.07-.07.61.61,0,0,1,.23-.26L131.06,5.1a2.4,2.4,0,0,1,3.34,0,2.35,2.35,0,0,1,0,3.34l-8.81,8.88Z"/><path class="cls-1" d="M143.88,27.39,153,5.73a2.06,2.06,0,0,1,2.71-1.08,2,2,0,0,1,1,2.64L147.63,29a2.07,2.07,0,0,1-1.9,1.22,1.77,1.77,0,0,1-.74-.14A2,2,0,0,1,143.88,27.39Z"/><path class="cls-1" d="M174.72,18.66a0,0,0,0,1,0,0,3.18,3.18,0,0,1-.26.26L164,29.55a2.46,2.46,0,0,1-3.35,0,2.36,2.36,0,0,1,0-3.35l8.81-8.88-8.81-8.88a2.35,2.35,0,0,1,0-3.34,2.42,2.42,0,0,1,3.35,0l10.44,10.59a1.6,1.6,0,0,1,.26.26s0,.07,0,.07c.07.15.14.22.18.33s0,0,0,.08a2.53,2.53,0,0,0,.11.33s0,0,0,.11v.26s0,.15,0,.19,0,.15,0,.19v.29s0,0,0,.08-.07.26-.11.33,0,0,0,.11S174.79,18.51,174.72,18.66Z"/><rect class="cls-2" x="20.86" width="71.17" height="45.4"/><rect class="cls-3" x="20.86" width="71.17" height="8.59"/><g class="cls-4"><path class="cls-5" d="M33.15,25.56A8.78,8.78,0,0,1,41.92,17a9,9,0,0,1,5.53,1.87A1.38,1.38,0,0,1,45.77,21a5.9,5.9,0,0,0-3.85-1.32,6.32,6.32,0,0,0-4.3,1.72,5.9,5.9,0,0,0-1.75,4.16,5.79,5.79,0,0,0,1.75,4.16,6.28,6.28,0,0,0,4.3,1.73,6,6,0,0,0,3.85-1.32,1.46,1.46,0,0,1,1.92.26,1.43,1.43,0,0,1-.24,1.92,9,9,0,0,1-5.53,1.86A8.74,8.74,0,0,1,33.15,25.56Z"/><path class="cls-5" d="M51.8,30a1.25,1.25,0,0,1,1.75-.17,7.76,7.76,0,0,0,4.56,1.84,5.12,5.12,0,0,0,3-.88,2.15,2.15,0,0,0,1-1.72,1.41,1.41,0,0,0-.21-.77,2.21,2.21,0,0,0-.72-.71,9.46,9.46,0,0,0-3.28-1.13h-.05a12.76,12.76,0,0,1-3.08-.93,5.08,5.08,0,0,1-2.22-1.87,3.64,3.64,0,0,1-.55-2,4.42,4.42,0,0,1,1.91-3.49A7.08,7.08,0,0,1,58.07,17a9.37,9.37,0,0,1,5.21,1.92,1.23,1.23,0,0,1,.33,1.7,1.19,1.19,0,0,1-1.69.35,7,7,0,0,0-3.85-1.53,4.54,4.54,0,0,0-2.68.82,1.87,1.87,0,0,0-.91,1.5,1.15,1.15,0,0,0,.17.67,2.23,2.23,0,0,0,.64.62,8.25,8.25,0,0,0,3,1.06h0a14.37,14.37,0,0,1,3.3,1,5.57,5.57,0,0,1,2.39,2,3.85,3.85,0,0,1,.57,2,4.66,4.66,0,0,1-2.05,3.71,7.52,7.52,0,0,1-4.43,1.36A10.38,10.38,0,0,1,52,31.76,1.28,1.28,0,0,1,51.8,30Z"/><path class="cls-5" d="M67.51,30a1.25,1.25,0,0,1,1.75-.17,7.76,7.76,0,0,0,4.56,1.84,5.1,5.1,0,0,0,3-.88,2.15,2.15,0,0,0,1-1.72,1.41,1.41,0,0,0-.21-.77,2.21,2.21,0,0,0-.72-.71,9.46,9.46,0,0,0-3.28-1.13h0a12.76,12.76,0,0,1-3.08-.93,5.08,5.08,0,0,1-2.22-1.87,3.64,3.64,0,0,1-.55-2,4.42,4.42,0,0,1,1.91-3.49A7.08,7.08,0,0,1,73.78,17,9.37,9.37,0,0,1,79,18.87a1.23,1.23,0,0,1,.33,1.7,1.19,1.19,0,0,1-1.69.35,7,7,0,0,0-3.85-1.53,4.54,4.54,0,0,0-2.68.82,1.87,1.87,0,0,0-.91,1.5,1.15,1.15,0,0,0,.17.67A2.23,2.23,0,0,0,71,23a8.25,8.25,0,0,0,3,1.06H74a14.37,14.37,0,0,1,3.3,1,5.57,5.57,0,0,1,2.39,2,3.85,3.85,0,0,1,.57,2,4.66,4.66,0,0,1-2,3.71,7.49,7.49,0,0,1-4.43,1.36,10.38,10.38,0,0,1-6.12-2.39A1.28,1.28,0,0,1,67.51,30Z"/></g><rect class="cls-2" y="109.61" width="71.17" height="45.4"/><rect class="cls-3" y="109.61" width="71.17" height="8.59"/><g class="cls-4"><path class="cls-5" d="M13.29,135.18a8.77,8.77,0,0,1,8.77-8.61,9,9,0,0,1,5.53,1.86,1.38,1.38,0,0,1-1.68,2.18,6,6,0,0,0-3.85-1.32,6.32,6.32,0,0,0-4.3,1.72A5.9,5.9,0,0,0,16,135.18a5.82,5.82,0,0,0,1.75,4.16,6.32,6.32,0,0,0,4.3,1.72,6,6,0,0,0,3.85-1.32,1.46,1.46,0,0,1,1.92.27,1.41,1.41,0,0,1-.24,1.91,9,9,0,0,1-5.53,1.86A8.74,8.74,0,0,1,13.29,135.18Z"/><path class="cls-5" d="M36.22,136.68h-3.4a1.31,1.31,0,0,1-1.31-1.31,1.33,1.33,0,0,1,1.31-1.32h3.4v-3.32a1.35,1.35,0,0,1,1.36-1.37A1.37,1.37,0,0,1,39,130.73v3.32h3.39a1.33,1.33,0,0,1,1.32,1.32,1.31,1.31,0,0,1-1.32,1.31H39V140a1.36,1.36,0,0,1-1.37,1.36A1.35,1.35,0,0,1,36.22,140Z"/><path class="cls-5" d="M51.05,136.68h-3.4a1.3,1.3,0,0,1-1.31-1.31,1.32,1.32,0,0,1,1.31-1.32h3.4v-3.32a1.34,1.34,0,0,1,1.36-1.37,1.36,1.36,0,0,1,1.36,1.37v3.32h3.4a1.32,1.32,0,0,1,1.31,1.32,1.3,1.3,0,0,1-1.31,1.31h-3.4V140a1.36,1.36,0,0,1-1.36,1.36A1.34,1.34,0,0,1,51.05,140Z"/></g><rect class="cls-2" x="57.7" y="42.66" width="118.7" height="97.48"/><rect class="cls-3" x="57.7" y="42.66" width="118.7" height="8.59"/><path class="cls-6" d="M64.17,47a1.15,1.15,0,1,1-2.3,0,1.15,1.15,0,0,1,2.3,0Z"/><path class="cls-6" d="M68.86,47a1.15,1.15,0,1,1-1.15-1.15A1.15,1.15,0,0,1,68.86,47Z"/><path class="cls-6" d="M73.56,47a1.15,1.15,0,0,1-2.3,0,1.15,1.15,0,0,1,2.3,0Z"/><path class="cls-6" d="M6,113.91a1.15,1.15,0,0,1-2.3,0,1.15,1.15,0,1,1,2.3,0Z"/><path class="cls-6" d="M10.73,113.91a1.15,1.15,0,1,1-1.15-1.15A1.15,1.15,0,0,1,10.73,113.91Z"/><path class="cls-6" d="M15.43,113.91a1.15,1.15,0,0,1-2.3,0,1.15,1.15,0,1,1,2.3,0Z"/><path class="cls-6" d="M26.9,4.36a1.15,1.15,0,1,1-1.15-1.15A1.15,1.15,0,0,1,26.9,4.36Z"/><path class="cls-6" d="M31.6,4.36a1.15,1.15,0,1,1-2.3,0,1.15,1.15,0,0,1,2.3,0Z"/><path class="cls-6" d="M36.29,4.36a1.15,1.15,0,1,1-1.15-1.15A1.15,1.15,0,0,1,36.29,4.36Z"/><rect class="cls-7" x="66.91" y="68.33" width="4.59" height="1.68"/><rect class="cls-7" x="74.85" y="68.33" width="52.66" height="1.68"/><rect class="cls-6" x="130.32" y="68.33" width="8.72" height="1.68"/><rect class="cls-7" x="150.27" y="90.77" width="8.72" height="1.68"/><rect class="cls-1" x="140.94" y="68.33" width="15.07" height="1.68"/><rect class="cls-7" x="71.5" y="72.82" width="4.59" height="1.68"/><rect class="cls-1" x="79.32" y="72.82" width="34.56" height="1.68"/><rect class="cls-1" x="127.96" y="90.77" width="20.23" height="1.68"/><rect class="cls-1" x="74.85" y="86.28" width="33.01" height="1.68"/><rect class="cls-6" x="79.32" y="77.31" width="23.16" height="1.68"/><rect class="cls-8" x="136.16" y="81.79" width="8.83" height="1.68"/><rect class="cls-1" x="105.05" y="77.31" width="36.98" height="1.68"/><rect class="cls-6" x="74.85" y="90.77" width="44.14" height="1.68"/><rect class="cls-6" x="139.97" y="72.82" width="23.92" height="1.68"/><rect class="cls-7" x="116.05" y="72.82" width="22.02" height="1.68"/><rect class="cls-7" x="143.76" y="77.31" width="14.86" height="1.68"/><rect class="cls-7" x="71.5" y="77.31" width="4.59" height="1.68"/><rect class="cls-1" x="66.91" y="81.79" width="4.59" height="1.68"/><rect class="cls-7" x="74.85" y="81.79" width="27.13" height="1.68"/><rect class="cls-7" x="79.32" y="95.26" width="27.13" height="1.68"/><rect class="cls-6" x="129.91" y="99.74" width="20.63" height="1.68"/><rect class="cls-6" x="108.65" y="95.26" width="27.21" height="1.68"/><rect class="cls-7" x="103.86" y="99.74" width="23.68" height="1.68"/><rect class="cls-1" x="79.32" y="99.74" width="7.86" height="1.68"/><rect class="cls-7" x="109.72" y="86.28" width="29.32" height="1.68"/><rect class="cls-6" x="140.94" y="86.28" width="18.66" height="1.68"/><rect class="cls-6" x="104.73" y="81.79" width="29.29" height="1.68"/><rect class="cls-7" x="66.91" y="86.28" width="4.59" height="1.68"/><rect class="cls-7" x="66.91" y="90.77" width="4.59" height="1.68"/><rect class="cls-1" x="71.5" y="95.26" width="4.59" height="1.68"/><rect class="cls-7" x="71.5" y="99.74" width="4.59" height="1.68"/><rect class="cls-7" x="66.91" y="103.5" width="4.59" height="1.68"/><rect class="cls-7" x="74.85" y="103.5" width="52.66" height="1.68"/><rect class="cls-7" x="71.5" y="107.99" width="4.59" height="1.68"/><rect class="cls-1" x="79.32" y="107.99" width="34.56" height="1.68"/><rect class="cls-1" x="74.85" y="121.45" width="33.01" height="1.68"/><rect class="cls-6" x="79.32" y="112.48" width="23.16" height="1.68"/><rect class="cls-1" x="105.05" y="112.48" width="36.98" height="1.68"/><rect class="cls-6" x="74.85" y="125.94" width="44.14" height="1.68"/><rect class="cls-6" x="139.97" y="107.99" width="23.92" height="1.68"/><rect class="cls-7" x="116.05" y="107.99" width="22.02" height="1.68"/><rect class="cls-7" x="143.76" y="112.48" width="14.86" height="1.68"/><rect class="cls-7" x="71.5" y="112.48" width="4.59" height="1.68"/><rect class="cls-1" x="66.91" y="116.97" width="4.59" height="1.68"/><rect class="cls-7" x="74.85" y="116.97" width="27.13" height="1.68"/><rect class="cls-7" x="109.72" y="121.45" width="29.32" height="1.68"/><rect class="cls-6" x="104.73" y="116.97" width="29.29" height="1.68"/><rect class="cls-7" x="66.91" y="121.45" width="4.59" height="1.68"/><path class="cls-6" d="M69.75,63.92a.4.4,0,0,1,0,.56.41.41,0,0,1-.28.12.4.4,0,0,1-.29-.12l-1.77-1.79s0,0,0,0h0s0,0,0,0l0,0a.06.06,0,0,1,0,0s0,0,0,0v0s0,0,0,0v-.1a.09.09,0,0,1,0-.05h0a.33.33,0,0,1,0-.06h0a.1.1,0,0,1,0,0l1.77-1.79a.42.42,0,0,1,.57,0,.4.4,0,0,1,0,.56l-1.5,1.51Z"/><path class="cls-6" d="M71.35,64.12l1.55-3.68a.35.35,0,0,1,.45-.18.33.33,0,0,1,.18.45L72,64.39a.36.36,0,0,1-.32.21.31.31,0,0,1-.13,0A.35.35,0,0,1,71.35,64.12Z"/><path class="cls-6" d="M76.58,62.64h0l0,0-1.77,1.79a.4.4,0,0,1-.29.12.39.39,0,0,1-.28-.12.39.39,0,0,1,0-.56l1.49-1.51L74.19,60.9a.39.39,0,0,1,0-.56.42.42,0,0,1,.57,0l1.77,1.79a.1.1,0,0,1,0,0h0l0,.06h0a.08.08,0,0,0,0,.06h0v.08s0,0,0,0v.05h0a.1.1,0,0,0,0,.06v0A.16.16,0,0,0,76.58,62.64Z"/><rect class="cls-9" x="141.45" y="28.99" width="48.49" height="17.95"/><path class="cls-2" d="M148.44,41.69v-8a.75.75,0,0,1,1.5,0V37h3.5V33.73a.73.73,0,0,1,.74-.74.73.73,0,0,1,.75.74v8a.74.74,0,0,1-.75.75.73.73,0,0,1-.74-.75V38.46h-3.5v3.23a.75.75,0,0,1-1.5,0Z"/><path class="cls-2" d="M163.79,34.49h-2.15v7.2a.74.74,0,1,1-1.48,0v-7.2H158a.76.76,0,0,1-.75-.76A.73.73,0,0,1,158,33h5.76a.74.74,0,0,1,.74.74A.76.76,0,0,1,163.79,34.49Z"/><path class="cls-2" d="M174.88,33.73v8a.76.76,0,0,1-.76.75.75.75,0,0,1-.74-.75V36l-1.94,2.7a.75.75,0,0,1-.61.31h0a.77.77,0,0,1-.62-.31L168.25,36v5.68a.75.75,0,1,1-1.49,0v-8a.74.74,0,0,1,.74-.74h0a.73.73,0,0,1,.59.31L170.82,37l2.68-3.73a.75.75,0,0,1,.61-.31h0A.77.77,0,0,1,174.88,33.73Z"/><path class="cls-2" d="M178.15,41.69v-8a.74.74,0,0,1,.74-.74.75.75,0,0,1,.75.74v7.21h3.66a.75.75,0,0,1,0,1.5h-4.41A.74.74,0,0,1,178.15,41.69Z"/><rect class="cls-9" x="20.41" y="97.58" width="39.96" height="17.95"/><path class="cls-2" d="M32.3,107.35H30.64v2.93a.75.75,0,0,1-1.5,0v-8a.74.74,0,0,1,.75-.74H32.3a2.89,2.89,0,1,1,0,5.77Zm-1.66-1.49H32.3a1.39,1.39,0,1,0,0-2.78H30.64Z"/><path class="cls-2" d="M37,110.28v-8a.73.73,0,0,1,.74-.74.74.74,0,0,1,.76.74v3.24H42v-3.24a.75.75,0,0,1,1.5,0v8a.75.75,0,0,1-1.5,0V107H38.51v3.24a.74.74,0,0,1-.76.74A.73.73,0,0,1,37,110.28Z"/><path class="cls-2" d="M49.74,107.35H48.08v2.93a.75.75,0,0,1-1.5,0v-8a.74.74,0,0,1,.74-.74h2.42a2.89,2.89,0,1,1,0,5.77Zm-1.66-1.49h1.66a1.39,1.39,0,1,0,0-2.78H48.08Z"/><polygon class="cls-10" points="178.14 96.41 181.18 103.73 178.15 104.99 175.1 97.62 170.09 101.5 170.09 80.88 184.53 95.46 178.14 96.41"/><path class="cls-10" d="M170.09,78.63a3,3,0,0,1-.18-1,2.92,2.92,0,0,1,.18-1,2.73,2.73,0,0,1,.19,1A2.76,2.76,0,0,1,170.09,78.63Z"/><path class="cls-10" d="M168.31,79.37a2.73,2.73,0,0,1-.86-.61,2.68,2.68,0,0,1-.61-.86,2.55,2.55,0,0,1,.86.6A2.73,2.73,0,0,1,168.31,79.37Z"/><path class="cls-10" d="M167.57,81.15a2.73,2.73,0,0,1-1,.19,2.68,2.68,0,0,1-1-.19,2.67,2.67,0,0,1,1-.18A2.72,2.72,0,0,1,167.57,81.15Z"/><path class="cls-10" d="M168.31,82.94a2.8,2.8,0,0,1-.61.86,2.55,2.55,0,0,1-.86.6,2.8,2.8,0,0,1,.61-.86A2.55,2.55,0,0,1,168.31,82.94Z"/><path class="cls-10" d="M172.62,81.15a2.72,2.72,0,0,1,1-.18,2.67,2.67,0,0,1,1,.18,2.68,2.68,0,0,1-1,.19A2.73,2.73,0,0,1,172.62,81.15Z"/><path class="cls-10" d="M171.88,79.37a2.93,2.93,0,0,1,1.47-1.47,2.68,2.68,0,0,1-.61.86A2.85,2.85,0,0,1,171.88,79.37Z"/></g></g></svg>