<svg xmlns="http://www.w3.org/2000/svg" viewBox="0 0 303.97 15"><defs><style>.cls-1{fill:#fff;fill-rule:evenodd;}</style></defs><title>rostselmash</title><g id="Слой_2" data-name="Слой 2"><g id="Слой_1-2" data-name="Слой 1"><path class="cls-1" d="M107.83,0c5.62,0,11.25,0,16.87,0,1.06,0,2.12,0,3.17,0,0,.82,0,1.63,0,2.45-3.06,0-6.12,0-9.17,0-1.6,0-3.2,0-4.8,0-.1.21-.2.41-.32.61.07-.23.13-.47.2-.7,2.66-.06,5.33,0,8,0,2,0,4,0,6,0,0-.77,0-1.53,0-2.3-6.63,0-13.26,0-19.88,0,0,.08-.05.23-.07.3l-.31.38C107.59.54,107.71.29,107.83,0Z"/><path class="cls-1" d="M130.94.11A3.75,3.75,0,0,1,132.32,0c7,0,14,0,21,0,0,.81,0,1.63,0,2.45-4,0-8,0-11.94,0-1,0-2,0-3.07,0,1.64-.09,3.29,0,4.93,0,3.34,0,6.68,0,10,0,0-.77,0-1.55,0-2.32Z"/><path class="cls-1" d="M160.12.09c7.45,0,14.9,0,22.35,0,0,5,0,9.93,0,14.89v0l-.14-.33c-2.07,0-4.14,0-6.21,0-.29,0-.45-.2-.59-.41l.32-.66h-.48a7.65,7.65,0,0,1-.15,1.36s0,.1-.06.13c-.1-4.18,0-8.38,0-12.56-2.84,0-5.67,0-8.51,0-.29,1.08-.71,2.13-1,3.21h-.07c-.21,1.1-.71,2.12-1,3.19h-.05c-.35,1.38-.93,2.69-1.29,4.07a11.51,11.51,0,0,0-.5,1.43c-.09.21-.14.58-.44.57h-7a17.13,17.13,0,0,1,.62-2c.44-1.32.87-2.63,1.29-4,1.05-3,2-6,3-8.93Zm.37.07c0,.16-.07.32-.11.48.29-.15.69-.18.86-.5l-.75,0Zm3,11Zm-6.63,3.6c.77.07,1.55,0,2.32,0s1.61,0,2.41,0a15.5,15.5,0,0,0-2.55-.08,10,10,0,0,0-2.18.09ZM246.56.08c7.46,0,14.92,0,22.39,0,0,4.94,0,9.88,0,14.82-2.46,0-4.93,0-7.39,0,0-.82,0-1.63,0-2.45-3.95,0-7.89,0-11.83,0a15.76,15.76,0,0,1-.51,1.51c0-.52,0-1,0-1.56a1.74,1.74,0,0,0-.45.49,3.69,3.69,0,0,0,.21.64c-1.56,0-3.12,0-4.68,0a5.26,5.26,0,0,0-2.27.22c0-.16.07-.31.1-.47l.1,0c.53-2.2,1.48-4.28,2-6.47l.11.06a7.77,7.77,0,0,1,.5-1.64c.44-1.63,1.13-3.18,1.53-4.81l.12,0,0-.39ZM253,2.4c-.48,1.64-1.1,3.23-1.59,4.87a9.31,9.31,0,0,0-.6,2c-.06.26-.09.52-.13.78h10.85c0-2.53,0-5.05,0-7.58a16.45,16.45,0,0,0-2.33-.08c-2.07,0-4.14,0-6.21,0ZM0,.07c7.77,0,15.53,0,23.3,0,0,.1,0,.29,0,.39l.11-.07c.1.27.21.54.32.81a8.26,8.26,0,0,1,.52,1.41l.1-.08c.05.72.28,1.41.38,2.13a12.25,12.25,0,0,1-.6,5.54,13.36,13.36,0,0,1-.74,1.8c-.23.54-.89.37-1.36.39-4.91,0-9.83,0-14.74,0a15.29,15.29,0,0,1,0,2.44c-1.81,0-3.63,0-5.44,0a7.84,7.84,0,0,0-1.19.06L0,14.85C0,9.92,0,5,0,.07ZM7.41,10c1.5,0,3,0,4.49,0s3.29.06,4.93,0a11,11,0,0,0,.61-4,14.24,14.24,0,0,0-.53-3.49c-3.17-.08-6.34,0-9.5,0,0,2.52,0,5,0,7.55Zm14.86,1c-1.39,0-2.79,0-4.17,0L18,10.53a3.37,3.37,0,0,1-.46.54,9.68,9.68,0,0,1-1.32,0c-2.53,0-5.08,0-7.61,0-.31,0-.7-.05-.89.26l-.39,0c0,.06.11.17.14.23.78.07,1.56-.07,2.34,0,4.05,0,8.1,0,12.14,0,.42,0,.8.28,1.22.3a4.2,4.2,0,0,0-.26-.78l.1,0c-.07-.28-.14-.55-.2-.83a4.16,4.16,0,0,0-.5.83Zm7.25-11c7.43,0,14.86,0,22.29,0l.32.34c.2.37.44.74.66,1.11l.26.53c.09.17.18.35.28.52a11.13,11.13,0,0,1,.84,3.25l.1,0c.07.77,0,1.55,0,2.32A14.22,14.22,0,0,1,53.84,11a9.58,9.58,0,0,0-.39,1.14l-.06,0a8.49,8.49,0,0,1-1.18,2.3c0,.44-.48.53-.84.55l-.39,0c-.26,0-.5-.06-.75-.1a4.17,4.17,0,0,0-1.76-.18H32.59a3.86,3.86,0,0,1-1.85-.21l-.67.32L29.75,14a3.77,3.77,0,0,0-.37.52l0,.12a10.73,10.73,0,0,1-1.66-3.09,6.57,6.57,0,0,1-.39-1.63l-.08.05a12.84,12.84,0,0,1,.12-5.31,10.12,10.12,0,0,1,.89-2.45A8.36,8.36,0,0,1,29.52.08Zm5.89,2.41a12.49,12.49,0,0,0-1,6,14.37,14.37,0,0,0,.94,3.93,2.76,2.76,0,0,0,.7.11h9.34a1.17,1.17,0,0,0,.56-.11c.15-.48.33-.95.49-1.44a13,13,0,0,0,.12-6.59l.07-.11-.06-.13-.11,0a6.3,6.3,0,0,0-.55-1.58l-.15-.08c-.88,0-1.76,0-2.64,0-2.58,0-5.15,0-7.73,0ZM58.62.5A.63.63,0,0,1,59.3.07c6.14,0,12.28,0,18.42,0a.6.6,0,0,0,1.07,0L78.86,0c0,.8,0,1.6,0,2.39H67c-.74,0-1.47,0-2.21,0A14.36,14.36,0,0,0,63.91,6a15,15,0,0,0,.15,4,18.89,18.89,0,0,0,.77,2.53l0,.09c4.62.05,9.25,0,13.88,0q0,1.08,0,2.16h-.19c-.21-.16-.41-.34-.62-.51l-.23.3c-5.43,0-10.85,0-16.28,0a1.73,1.73,0,0,0-.8.21,8.89,8.89,0,0,1-1.86-.07h0a3.12,3.12,0,0,0-.48-.9,12.13,12.13,0,0,1-.81-11.08A14.91,14.91,0,0,1,58.62.5ZM81.44.09c7.45,0,14.91,0,22.36,0,0,.79,0,1.58,0,2.38q-3.75-.07-7.5,0c0,4.12,0,8.24,0,12.36l-.2.08c-.34,0-.69,0-1,0a1.68,1.68,0,0,0-.8-.26c-.89,0-1.78,0-2.67,0a2.07,2.07,0,0,0-1.06.25c-.49,0-1,.05-1.48.05-.08-3.2,0-6.39,0-9.59,0-1,0-1.95,0-2.92-1.42,0-2.84,0-4.25,0-1,0-1.92,0-2.87,0l-.4,0c-.12-.79,0-1.58-.08-2.38Zm26.43,0c6.62,0,13.25,0,19.88,0,0,.77,0,1.53,0,2.3-2,0-4,0-6,0-2.66,0-5.33,0-8,0-.07.23-.13.47-.2.7a17.11,17.11,0,0,0-.68,2.55,16,16,0,0,0,.12,4,14.82,14.82,0,0,0,.79,2.79l0,.13H124.7c1,0,2-.06,2.94.06.11.71,0,1.43,0,2.14l-.59-.06a7.86,7.86,0,0,0-2.22-.14c-5,0-10.06,0-15.09,0a6.64,6.64,0,0,0-1,.15l-.88.07h0a5.71,5.71,0,0,0-.65-1.09,12.2,12.2,0,0,1-1.71-6.82,11.85,11.85,0,0,1,2-6.14l.31-.38c0-.07,0-.22.07-.3Zm23.07,0h22.32c0,.77,0,1.55,0,2.32-3.34,0-6.68,0-10,0-1.64,0-3.29,0-4.93,0,0,1.18,0,2.35,0,3.52,3.59.12,7.19,0,10.79.06.55,0,1.1,0,1.65,0q0,1.16,0,2.31c-3.73.08-7.45,0-11.18,0a3.44,3.44,0,0,0-1.28.07c0,1.36,0,2.72,0,4.08,4.79.06,9.59,0,14.39,0l.43.07,0,.07c-3.65,0-7.3,0-10.95,0a21.16,21.16,0,0,0-2.64.06,2,2,0,0,0,.91.18c3.73,0,7.47,0,11.21,0a4.51,4.51,0,0,1,1.4.27c0-.17,0-.34.07-.51h.07a11.41,11.41,0,0,1,.08,2.19h0l-.57-.1a10.85,10.85,0,0,0-2.61-.15H133.52a8,8,0,0,0-2.35.14h0l-.17,0c0-4.54,0-9.08,0-13.63q0-.54,0-1.08Zm55.11,0c2.1,0,4.21,0,6.32,0a.57.57,0,0,1,0,.14,5,5,0,0,0-.16,2.24l.22.07h15.92l.17.44c.1.17.19.35.28.52a12.07,12.07,0,0,1,.69,8.56,13.19,13.19,0,0,1-1.06,2.62l-.3.06s0-.15,0-.21,0-.27,0-.36l.28,0-.25-.47a1.62,1.62,0,0,0-.1-.18c-7.1-.06-14.2,0-21.3,0,0-4.14,0-8.29,0-12.43a2.29,2.29,0,0,0-.15-.77,9.07,9.07,0,0,0-.06.91c0,3.33,0,6.67,0,10a5.87,5.87,0,0,1-.18,2.17,3.4,3.4,0,0,1-.18-.84c0-3.38,0-6.77,0-10.15a7.27,7.27,0,0,0-.15-2.28Zm6.4,4.74a5,5,0,0,0-.15,1.59,2.47,2.47,0,0,0-.93.43c.15,1.34,0,2.7.08,4.05.11.11.23.21.35.31,0,.32.06.64.1.95l.37-.28a.63.63,0,0,0,.09.55c.29.38.82.16,1.22.19,2.8,0,5.61,0,8.41,0,.23-.26.19-.67.24-1a5,5,0,0,0,.48-2.45c-.14-1.18.18-2.52-.57-3.55-.09-.29-.11-.78-.54-.71-2.62,0-5.25,0-7.88,0a5.75,5.75,0,0,0-1.24.08l0-.16ZM212.09.08c2.43,0,4.86,0,7.29,0,.25.2.5.4.74.61.91.81,1.74,1.73,2.67,2.51.45.41.86.86,1.34,1.23l.27.26c.38.35.74.73,1.13,1.08l.4.07c.9-1,2-1.8,2.9-2.76.52-.55,1.18-1,1.65-1.56l.08,0A5.51,5.51,0,0,1,232.13.09c2.43,0,4.87,0,7.3,0,0,5,0,9.9,0,14.85h-5.78a9.64,9.64,0,0,0-1.52,0,10.29,10.29,0,0,1,0-1.57,1.08,1.08,0,0,0,.29-.82c0-2.14,0-4.27,0-6.41,0-.61.13-1.32-.31-1.83,0-.24,0-.47,0-.71-.16,0-.35,0-.47.12-.73.58-1.35,1.28-2.05,1.9s-1.3,1.27-2,1.86a2.28,2.28,0,0,0-.33.29c-.53.44-1,1-1.49,1.41-.5-.43-.92-.93-1.45-1.32-.7-.6-1.27-1.32-2-1.87-.46-.39-.85-.85-1.32-1.22,0,0,0-.15,0-.19l-.18.07c-.26-.3-.57-.53-.8-.85a1.53,1.53,0,0,0-.64-.22c0,.24,0,.48,0,.72-.55.7-.1,1.64-.42,2.42a5.92,5.92,0,0,0-.17,2.22c0,1.51,0,3,0,4.54-1.78,0-3.56,0-5.34,0a2.38,2.38,0,0,1-1.17-.22l-.2.25v0q0-6.73,0-13.48Zm21.64,14.66c1.52.06,3.05,0,4.57,0a13.26,13.26,0,0,0-2.52-.1,7.8,7.8,0,0,0-2.05.1ZM271.62.08c2.44,0,4.88,0,7.32,0,0,4.16,0,8.31,0,12.47a5.23,5.23,0,0,0,2.05.1,27.87,27.87,0,0,0,3-.08c0-.51,0-1,0-1.55l.12.15c.15.2.43.15.65.2a24.09,24.09,0,0,1-.12-3.5c0-2.18,0-4.36,0-6.54A2.89,2.89,0,0,1,285,.07c2.13,0,4.27,0,6.41,0,.1,4.15,0,8.3.05,12.45,1.1.09,2.21,0,3.32,0a9.94,9.94,0,0,1,1.81,0l0,.26a10.47,10.47,0,0,1,.49-1.32C297,10.27,297,9,297,7.74c0-2.44,0-4.87,0-7.3a1.84,1.84,0,0,0,1-.3c1.15-.06,2.3,0,3.45,0a13.91,13.91,0,0,1,2.5.08l-.49.14h.11c-.07,4.2,0,8.4,0,12.6a8.27,8.27,0,0,0,.18,1.86c-2.35.06-4.71,0-7.07,0h-20.7c-1.29,0-2.58-.07-3.87.07l-.41.07-.09-.34C271.65,9.77,271.55,4.92,271.62.08Z"/><path class="cls-1" d="M185.15,0c2.44,0,4.89,0,7.34,0,0,.84,0,1.69,0,2.53h-.1a17.82,17.82,0,0,0-.06-2.31.57.57,0,0,0,0-.14c-2.11,0-4.22,0-6.32,0h-.84c-.12,1.51,0,3-.06,4.54,0,2.81,0,5.61,0,8.42,0,.5-.06,1-.07,1.51-.08-1.31,0-2.62-.05-3.93V2A9.42,9.42,0,0,1,185.15,0Z"/><path class="cls-1" d="M296.52,0c2.48,0,5,0,7.43,0,0,5,0,9.93,0,14.89-6.05,0-12.1,0-18.16,0-4.57,0-9.16,0-13.74,0,1.29-.14,2.58,0,3.87-.07h20.7c2.36,0,4.72,0,7.07,0h.15c.06-4.82,0-9.64,0-14.46h-.43l.49-.14a13.91,13.91,0,0,0-2.5-.08c-1.15,0-2.3,0-3.45,0-.45,0-.89,0-1.33,0-.11,3.15,0,6.31-.05,9.46a27.09,27.09,0,0,1,0,3,11.35,11.35,0,0,1-.05-2.18C296.52,7,296.53,3.49,296.52,0Z"/><path class="cls-1" d="M77.72.08c.35,0,.71,0,1.07,0A.6.6,0,0,1,77.72.08Z"/><path class="cls-1" d="M160.49.16l.75,0c-.17.32-.57.35-.86.5C160.42.48,160.45.32,160.49.16Z"/><path class="cls-1" d="M185.21.12h.84a7.27,7.27,0,0,1,.15,2.28c0,3.38,0,6.77,0,10.15a3.4,3.4,0,0,0,.18.84,5.87,5.87,0,0,0,.18-2.17c0-3.34,0-6.68,0-10a9.07,9.07,0,0,1,.06-.91,2.29,2.29,0,0,1,.15.77c0,4.14,0,8.29,0,12.43,7.1.06,14.2,0,21.3,0a1.62,1.62,0,0,1,.1.18c-7.1.06-14.2,0-21.3,0-.05.2-.09.4-.15.6-.28.16-.59.27-.87.43-.22,0-.53,0-.58-.24,0-.49.23-1-.08-1.46-.07-2.81,0-5.61,0-8.42,0-1.51-.06-3,.06-4.54Zm.37.3c-.07,4,0,7.9,0,11.85a3.73,3.73,0,0,0,.06.88l.38.1c.06-1,0-2.08,0-3.12,0-3.24,0-6.48,0-9.72Zm0,13.08c0,.1-.07.29-.09.39a4.36,4.36,0,0,0,.75.52c.11-.28.29-.61.07-.9A3.56,3.56,0,0,0,185.62,13.5Z"/><path class="cls-1" d="M284,.07H285a2.89,2.89,0,0,0-.27,1.26c0,2.18,0,4.36,0,6.54a24.09,24.09,0,0,0,.12,3.5c-.22,0-.5,0-.65-.2.11-3.15,0-6.3.06-9.44A4.18,4.18,0,0,0,284.1.28C284.08.23,284.06.13,284,.07Z"/><path class="cls-1" d="M296.66.14c.44,0,.88,0,1.33,0a1.84,1.84,0,0,1-1,.3c0,2.43,0,4.86,0,7.3,0,1.26,0,2.53.07,3.79a10.47,10.47,0,0,0-.49,1.32l0-.26a27.09,27.09,0,0,0,0-3C296.65,6.45,296.55,3.29,296.66.14Z"/><path class="cls-1" d="M185.58.42h.4c.07,3.24,0,6.48,0,9.72,0,1,0,2.08,0,3.12l-.38-.1a3.73,3.73,0,0,1-.06-.88C185.59,8.32,185.51,4.37,185.58.42Z"/><path class="cls-1" d="M192.17,2.5a5,5,0,0,1,.16-2.24,17.82,17.82,0,0,1,.06,2.31Z"/><path class="cls-1" d="M284.1.28a4.18,4.18,0,0,1,.16,1.45c0,3.14.05,6.29-.06,9.44l-.12-.15C284.08,7.44,284,3.86,284.1.28Z"/><path class="cls-1" d="M303.56.34h.32c0,4.82,0,9.64,0,14.46h-.15a8.27,8.27,0,0,1-.18-1.86C303.57,8.74,303.49,4.54,303.56.34Z"/><path class="cls-1" d="M81.92,2.44c1-.09,1.91,0,2.87,0,1.41,0,2.83,0,4.25,0,0,1,0,2,0,2.92,0,3.2,0,6.39,0,9.59.49,0,1,0,1.48-.05,1.51,0,3,0,4.53,0,.34,0,.69,0,1,0a5.15,5.15,0,0,1-1,.06c-2,0-4.06,0-6.1,0,0-4.14,0-8.29,0-12.43C86.61,2.38,84.26,2.5,81.92,2.44Z"/><path class="cls-1" d="M253,2.4c2.07,0,4.14,0,6.21,0a16.45,16.45,0,0,1,2.33.08c-1.22.11-2.44,0-3.66,0-1.6,0-3.21,0-4.81,0-.29,1.1-.7,2.16-1,3.24s-.73,2.36-1.22,3.49a9.31,9.31,0,0,1,.6-2C251.94,5.63,252.56,4,253,2.4Z"/><path class="cls-1" d="M46.48,4.14l.11,0,.06.13-.07.11C46.56,4.34,46.5,4.21,46.48,4.14Z"/><path class="cls-1" d="M219,6.71c.32-.78-.13-1.72.42-2.42,0,3.55,0,7.09,0,10.64H213.2a2,2,0,0,1-1-.12l.28-.2c1.91-.11,3.84,0,5.75,0a2.73,2.73,0,0,0,.86-.23c0-.18,0-.37,0-.55l-.14.09a3.73,3.73,0,0,0-1.19-.17c-1.25,0-2.49,0-3.74,0a4.4,4.4,0,0,1-1.91-.18l.2-.25a2.38,2.38,0,0,0,1.17.22c1.78,0,3.56,0,5.34,0,0-1.51,0-3,0-4.54A5.92,5.92,0,0,1,219,6.71Z"/><path class="cls-1" d="M232.1,4.3c.44.51.3,1.22.31,1.83,0,2.14,0,4.27,0,6.41a1.08,1.08,0,0,1-.29.82C232.05,10.34,232.1,7.32,232.1,4.3Z"/><path class="cls-1" d="M192.45,4.85l0,.16c.09,2.49,0,5,.05,7.46l.65.16c1.73-.19,3.48-.05,5.21-.09a30.18,30.18,0,0,0,3.56-.09c.12-.33.21-.68.3-1l0,.23c0,.33,0,.74-.24,1-2.8,0-5.61,0-8.41,0-.4,0-.93.19-1.22-.19a.63.63,0,0,1-.09-.55,36.21,36.21,0,0,0,.12-3.9,13.6,13.6,0,0,0-.09-1.56A5,5,0,0,1,192.45,4.85Z"/><path class="cls-1" d="M202.14,5.65c.75,1,.43,2.37.57,3.55a5,5,0,0,1-.48,2.45l0-.23a12.66,12.66,0,0,0,.24-3.58,3.65,3.65,0,0,0,.1-.65L202.4,7C202.35,6.52,202.23,6.09,202.14,5.65Z"/><path class="cls-1" d="M191.37,6.87a2.47,2.47,0,0,1,.93-.43A13.6,13.6,0,0,1,192.39,8a36.21,36.21,0,0,1-.12,3.9l-.37.28c0-.31-.07-.63-.1-.95-.12-.1-.24-.2-.35-.31,0-1.35.07-2.71-.08-4Zm.47.73c0,1.15,0,2.3,0,3.45h.23c0-1.43,0-2.87,0-4.3C191.77,6.92,191.86,7.3,191.84,7.6Z"/><path class="cls-1" d="M191.84,7.6c0-.3-.07-.68.24-.86,0,1.43,0,2.87,0,4.3h-.23C191.83,9.9,191.86,8.75,191.84,7.6Z"/><path class="cls-1" d="M202.4,7l.19.23a3.65,3.65,0,0,1-.1.65A1.39,1.39,0,0,1,202.4,7Z"/><path class="cls-1" d="M22.27,11.06a4.16,4.16,0,0,1,.5-.83c.06.28.13.55.2.83l-.1,0a2.07,2.07,0,0,1-1.09.26c-4.7,0-9.4,0-14.1,0,.19-.31.58-.23.89-.26,2.53,0,5.08,0,7.61,0a9.68,9.68,0,0,0,1.32,0,3.37,3.37,0,0,0,.46-.54l.14.53C19.48,11.1,20.88,11.09,22.27,11.06Z"/><path class="cls-1" d="M21.78,11.36a2.07,2.07,0,0,0,1.09-.26,4.2,4.2,0,0,1,.26.78c-.42,0-.8-.26-1.22-.3-4,0-8.09,0-12.14,0-.78-.06-1.56.08-2.34,0,0-.06-.1-.17-.14-.23l.39,0C12.38,11.39,17.08,11.31,21.78,11.36Z"/><path class="cls-1" d="M192.53,12.47c1.55-.13,3.1,0,4.65-.06s3.18-.06,4.77,0a30.18,30.18,0,0,1-3.56.09c-1.73,0-3.48-.1-5.21.09Z"/><path class="cls-1" d="M248.77,12.86a1.74,1.74,0,0,1,.45-.49c0,.52,0,1,0,1.56-.07.31-.19.61-.27.92-2.45,0-4.91,0-7.36,0,.15-.38.29-.77.42-1.16a5.26,5.26,0,0,1,2.27-.22c1.56,0,3.12,0,4.68,0a3.69,3.69,0,0,1-.21-.64ZM242.25,14a11,11,0,0,0,1.52,0c1.52,0,3,0,4.55,0,.21,0,.34-.12.46-.28-1.76-.06-3.52,0-5.27,0-.43,0-.94-.1-1.26.26Zm0,.54c2.16.05,4.33.05,6.49,0l-.12-.24a7.08,7.08,0,0,0-1.38,0c-1.38,0-2.76,0-4.14,0C242.81,14.27,242.34,14.13,242.26,14.53Z"/><path class="cls-1" d="M64.83,12.52c4.67,0,9.34,0,14,0,0,.78,0,1.57,0,2.35a12,12,0,0,1-1.8,0H64.64c-1.61,0-3.21.06-4.81-.06-.36,0-.77.09-1.06-.16a8.89,8.89,0,0,0,1.86.07c6,0,11.95,0,17.93,0h.19q0-1.08,0-2.16c-4.63-.07-9.26,0-13.88,0Z"/><path class="cls-1" d="M113.81,12.51c3.94.05,7.89,0,11.83,0a17.58,17.58,0,0,1,2.18.06c0,.76,0,1.52,0,2.27-1.34.13-2.7.07-4,.08H108.55a3.28,3.28,0,0,1-.69-.1l.88-.07q9.17.06,18.32,0l.59.06c-.05-.71.1-1.43,0-2.14-1-.12-2,0-2.94-.06H113.85Z"/><path class="cls-1" d="M279,12.55c1.69,0,3.39-.06,5.08,0a27.87,27.87,0,0,1-3,.08A5.23,5.23,0,0,1,279,12.55Z"/><path class="cls-1" d="M139.55,12.77a21.16,21.16,0,0,1,2.64-.06c3.65,0,7.3,0,10.95,0,0,.17,0,.34-.07.51a4.51,4.51,0,0,0-1.4-.27c-3.74,0-7.48,0-11.21,0A2,2,0,0,1,139.55,12.77Z"/><path class="cls-1" d="M185.18,13.08c.31.44.06,1,.08,1.46.05.28.36.21.58.24l.81,0c3.24.1,6.49,0,9.74,0,3.9,0,7.8,0,11.7,0l.3-.06c-.14.12-.31.27-.51.23H186.11a6.64,6.64,0,0,1-1-.09v-.26C185.12,14.08,185.15,13.58,185.18,13.08Z"/><path class="cls-1" d="M175.34,13.51h.48l-.32.66c.14.21.3.45.59.41,2.07,0,4.14,0,6.21,0l.14.33c-2.07,0-4.14,0-6.21,0a6,6,0,0,1-1-.06,7.65,7.65,0,0,0,.15-1.36Zm-84.8,1.36a2.07,2.07,0,0,1,1.06-.25c.89,0,1.78,0,2.67,0a1.68,1.68,0,0,1,.8.26C93.56,14.89,92.05,14.9,90.54,14.87Z"/><path class="cls-1" d="M185.62,13.5a3.56,3.56,0,0,1,.73,0c.22.29,0,.62-.07.9a4.36,4.36,0,0,1-.75-.52C185.55,13.79,185.59,13.6,185.62,13.5Z"/><path class="cls-1" d="M212.09,13.56v0a4.4,4.4,0,0,0,1.91.18c1.25,0,2.49,0,3.74,0a3.73,3.73,0,0,1,1.19.17l.14-.09c0,.18,0,.37,0,.55a2.73,2.73,0,0,1-.86.23c-1.91,0-3.84-.07-5.75,0l-.28.2-.15.11A10.29,10.29,0,0,1,212.09,13.56Z"/><path class="cls-1" d="M186.86,13.75c7.1-.07,14.2,0,21.3,0l.25.47-.28,0c0,.09,0,.27,0,.36-6.36.07-12.72,0-19.07,0a7.63,7.63,0,0,0-2.39.16l-.81,0c.28-.16.59-.27.87-.43C186.77,14.15,186.81,14,186.86,13.75Z"/><path class="cls-1" d="M242.25,14c.32-.36.83-.24,1.26-.26,1.75,0,3.51,0,5.27,0-.12.16-.25.31-.46.28-1.52,0-3,0-4.55,0A11,11,0,0,1,242.25,14Z"/><path class="cls-1" d="M29.38,14.51a3.77,3.77,0,0,1,.37-.52l.32.72.67-.32a3.86,3.86,0,0,0,1.85.21H48.47a4.17,4.17,0,0,1,1.76.18c-5.34.05-10.69,0-16,0-1.58,0-3.17,0-4.75,0,0-.06-.05-.19-.07-.25Zm48.56-.22c.21.17.41.35.62.51-6,0-12,0-17.93,0a1.73,1.73,0,0,1,.8-.21c5.43,0,10.85,0,16.28,0l.23-.3Zm108.71.46a7.63,7.63,0,0,1,2.39-.16c6.35,0,12.71,0,19.07,0,0,.06,0,.16,0,.21-3.9.05-7.8,0-11.7,0-3.25,0-6.5.06-9.74,0Zm-77.91,0a6.64,6.64,0,0,1,1-.15c5,0,10.06,0,15.09,0a7.86,7.86,0,0,1,2.22.14q-9.15.06-18.32,0Zm22.43,0a8,8,0,0,1,2.35-.14h16.55a10.85,10.85,0,0,1,2.61.15c-2.78.09-5.57,0-8.36,0-4.38,0-8.77,0-13.15,0Zm25.66,0a10,10,0,0,1,2.18-.09,15.5,15.5,0,0,1,2.55.08c-.8.09-1.61,0-2.41,0s-1.55,0-2.32,0Zm76.9,0a7.8,7.8,0,0,1,2.05-.1,13.26,13.26,0,0,1,2.52.1C236.78,14.78,235.25,14.8,233.73,14.74Z"/><path class="cls-1" d="M242.26,14.53c.08-.4.55-.26.85-.3,1.38,0,2.76,0,4.14,0a7.08,7.08,0,0,1,1.38,0l.12.24C246.59,14.58,244.42,14.58,242.26,14.53Z"/><path class="cls-1" d="M29.35,14.63l0-.12c0,.06.05.19.07.25,1.58.07,3.17,0,4.75,0,5.34,0,10.69,0,16,0,.25,0,.49.08.75.1a3.4,3.4,0,0,1-.64.08H30.05a4.82,4.82,0,0,1-.75-.1A2.09,2.09,0,0,0,29.35,14.63Z"/><path class="cls-1" d="M131.13,14.78h0c4.38.08,8.77,0,13.15,0,2.79,0,5.58,0,8.36,0l.57.1a5.24,5.24,0,0,1-1.31.07H139.26c-2.76,0-5.53,0-8.29,0Z"/></g></g></svg>