<svg xmlns="http://www.w3.org/2000/svg" viewBox="0 0 21.42 31.42"><defs><style>.cls-1{fill:#fff;}</style></defs><title>skroll</title><g id="Слой_2" data-name="Слой 2"><g id="Слой_1-2" data-name="Слой 1"><path class="cls-1" d="M10.71,31.42A10.72,10.72,0,0,1,0,20.71v-10a10.71,10.71,0,0,1,21.42,0v10A10.73,10.73,0,0,1,10.71,31.42Zm0-30a9.3,9.3,0,0,0-9.29,9.29v10a9.29,9.29,0,0,0,18.58,0v-10A9.3,9.3,0,0,0,10.71,1.42Z"/><path class="cls-1" d="M10.71,14.52a.71.71,0,0,1-.71-.71V9.75a.71.71,0,0,1,1.42,0v4.06A.71.71,0,0,1,10.71,14.52Z"/></g></g></svg>