<svg xmlns="http://www.w3.org/2000/svg" viewBox="0 0 20.91 20"><defs><style>.cls-1{fill:#e75c52;}</style></defs><title>star</title><g id="Слой_2" data-name="Слой 2"><g id="Слой_1-2" data-name="Слой 1"><path class="cls-1" d="M11.52.66l2.31,4.68a1.17,1.17,0,0,0,.89.65l5.17.75a1.19,1.19,0,0,1,.66,2l-3.74,3.64a1.18,1.18,0,0,0-.34,1.05l.88,5.15a1.18,1.18,0,0,1-1.72,1.25L11,17.43a1.21,1.21,0,0,0-1.11,0L5.28,19.86a1.18,1.18,0,0,1-1.72-1.25l.88-5.15a1.18,1.18,0,0,0-.34-1.05L.36,8.77a1.19,1.19,0,0,1,.66-2L6.18,6a1.17,1.17,0,0,0,.9-.65L9.39.66A1.19,1.19,0,0,1,11.52.66Z"/></g></g></svg>