<svg xmlns="http://www.w3.org/2000/svg" viewBox="0 0 25.66 28.19"><defs><style>.cls-1{fill:#fff;}</style></defs><title>video_off</title><g id="Слой_2" data-name="Слой 2"><g id="Слой_1-2" data-name="Слой 1"><path class="cls-1" d="M4.71,28.19a4.72,4.72,0,0,1-2.35-.64A4.67,4.67,0,0,1,0,23.46V4.72A4.66,4.66,0,0,1,2.36.64a4.67,4.67,0,0,1,4.71,0L23.3,10a4.71,4.71,0,0,1,0,8.16L7.07,27.55A4.78,4.78,0,0,1,4.71,28.19Zm0-26.77a3.24,3.24,0,0,0-1.64.45A3.24,3.24,0,0,0,1.42,4.72V23.46a3.3,3.3,0,0,0,4.94,2.86L22.59,17a3.3,3.3,0,0,0,0-5.71L6.36,1.87A3.28,3.28,0,0,0,4.71,1.42Z"/></g></g></svg>