<svg xmlns="http://www.w3.org/2000/svg" viewBox="0 0 21.13 12.06"><defs><style>.cls-1{fill:#fff;}</style></defs><title>vk</title><g id="Слой_2" data-name="Слой 2"><g id="Слой_1-2" data-name="Слой 1"><path class="cls-1" d="M17.9,7.37a9.57,9.57,0,0,0,.89.9h0v0h0l0,0a10.6,10.6,0,0,1,2.1,2.43.87.87,0,0,1,.08.14,1.34,1.34,0,0,1,.07.29.77.77,0,0,1,0,.37.53.53,0,0,1-.28.3,1.18,1.18,0,0,1-.65.14l-2.81,0a1.26,1.26,0,0,1-.62-.06,2.57,2.57,0,0,1-.57-.24l-.22-.13a5.16,5.16,0,0,1-.77-.71c-.29-.31-.54-.6-.75-.85a4.45,4.45,0,0,0-.67-.64.72.72,0,0,0-.63-.17l-.08,0a.91.91,0,0,0-.19.16,1.57,1.57,0,0,0-.24.32,2.44,2.44,0,0,0-.19.58,4.36,4.36,0,0,0-.07.85,1,1,0,0,1,0,.3.71.71,0,0,1-.08.21l0,.05a.86.86,0,0,1-.58.24H10.34a5,5,0,0,1-1.61-.18,5.93,5.93,0,0,1-1.44-.58,11.64,11.64,0,0,1-1.13-.73,5.49,5.49,0,0,1-.78-.63L5.1,9.6l-.3-.32c-.13-.15-.39-.49-.78-1S3.23,7.2,2.85,6.61,2,5.25,1.5,4.29s-1-2-1.43-3A.79.79,0,0,1,0,1,.34.34,0,0,1,0,.83L.08.76A.76.76,0,0,1,.7.55l3,0A1,1,0,0,1,4,.6l.18.09,0,0a.74.74,0,0,1,.27.35c.14.37.31.75.5,1.14s.34.69.45.89l.18.32a11.78,11.78,0,0,0,.62,1.15,5,5,0,0,0,.53.75,3,3,0,0,0,.46.43.69.69,0,0,0,.37.15.8.8,0,0,0,.3-.06s0,0,0,0a1.82,1.82,0,0,0,.13-.24A1.69,1.69,0,0,0,8.21,5c0-.21.07-.51.11-.89a10.51,10.51,0,0,0,0-1.38,6,6,0,0,0-.1-.8,1.61,1.61,0,0,0-.16-.5L8,1.33A1.39,1.39,0,0,0,7.06.86C7,.85,7,.76,7.12.6A1.34,1.34,0,0,1,7.54.27,7.22,7.22,0,0,1,10.16,0a8.19,8.19,0,0,1,1.49.14A1.42,1.42,0,0,1,12,.29a.59.59,0,0,1,.22.27,1.45,1.45,0,0,1,.12.35,3,3,0,0,1,0,.5c0,.21,0,.41,0,.61s0,.44,0,.77,0,.63,0,.91c0,.08,0,.23,0,.46a4.59,4.59,0,0,0,0,.53,3.89,3.89,0,0,0,0,.44,1.37,1.37,0,0,0,.13.43.66.66,0,0,0,.25.27l.19,0a.44.44,0,0,0,.28-.12,4.51,4.51,0,0,0,.42-.38,7.06,7.06,0,0,0,.57-.74c.23-.33.48-.73.75-1.18A19,19,0,0,0,16.13,1a.59.59,0,0,1,.11-.19.45.45,0,0,1,.12-.12l0,0,.06,0,.14,0a.57.57,0,0,1,.22,0L20,.55a1.74,1.74,0,0,1,.7,0A.6.6,0,0,1,21,.76l.07.11q.25.71-1.65,3.24L18.73,5a8.31,8.31,0,0,0-1,1.44A.85.85,0,0,0,17.9,7.37Z"/></g></g></svg>