<svg xmlns="http://www.w3.org/2000/svg" viewBox="0 0 273.91 27"><defs><style>.cls-1{fill:#fff;}</style></defs><title>vneshfinbank</title><g id="Слой_2" data-name="Слой 2"><g id="Слой_1-2" data-name="Слой 1"><g id="Слой_2-2" data-name="Слой 2"><g id="Layer_1" data-name="Layer 1"><path class="cls-1" d="M0,3.05H9.63a25.1,25.1,0,0,1,3.46.2,8.94,8.94,0,0,1,2.43.66,4.09,4.09,0,0,1,1.83,1.61A4.29,4.29,0,0,1,18,8a3.91,3.91,0,0,1-.94,2.64,7.7,7.7,0,0,1-3,1.8,10.53,10.53,0,0,1,3.23,1.3,4.55,4.55,0,0,1,2,3.91,5.63,5.63,0,0,1-1.82,4.5,5,5,0,0,1-1.56.92,8.45,8.45,0,0,1-2.11.45,21.54,21.54,0,0,1-3,.15H0V22.09a1.72,1.72,0,0,0,1-.39,1.41,1.41,0,0,0,.25-1V6A1.29,1.29,0,0,0,1,5.07a2.25,2.25,0,0,0-1-.49Zm6.53,8H9.61A3.68,3.68,0,0,0,12,10.39a2.31,2.31,0,0,0,.85-2A2.29,2.29,0,0,0,12,6.48a3.85,3.85,0,0,0-2.38-.61H6.53Zm0,9.79H9.78c2.76,0,4.15-1.16,4.15-3.47a3.12,3.12,0,0,0-1.13-2.56,4.53,4.53,0,0,0-3-1H6.53v7ZM35.88,3.09h7.93V4.62a1.26,1.26,0,0,0-1.28,1.26v15a1.43,1.43,0,0,0,.28,1,1.6,1.6,0,0,0,1,.39v1.54h-8V22.21a1.78,1.78,0,0,0,1-.39,1.34,1.34,0,0,0,.25-1V13.7H29.21v7a1.49,1.49,0,0,0,.24,1,2.13,2.13,0,0,0,1,.39v1.54H22.66V22.09a1.75,1.75,0,0,0,1-.39,1.69,1.69,0,0,0,.22-1V6a1.43,1.43,0,0,0-.43-1,1.69,1.69,0,0,0-1-.41V3.05h7.83V4.58a1.26,1.26,0,0,0-1.28,1.26v4.88h8.12V6a1.37,1.37,0,0,0-.27-1,1.5,1.5,0,0,0-1-.41V3.05ZM47,23.71V22.17a1.53,1.53,0,0,0,1-.35,1.61,1.61,0,0,0,.27-1V6A1.7,1.7,0,0,0,48,4.91a1.43,1.43,0,0,0-1-.33V3.05H64.68V7.83H63.1a2.25,2.25,0,0,0-.49-1.1,1.81,1.81,0,0,0-1-.59,11.66,11.66,0,0,0-2-.11h-6v4.59h5.48a2.78,2.78,0,0,0,1.42-.27,1.52,1.52,0,0,0,.63-1h1.55V15H61.16a1.62,1.62,0,0,0-.63-1.18,3,3,0,0,0-1.62-.33H53.63V20.7h7.12a7.83,7.83,0,0,0,1.74-.16,1.7,1.7,0,0,0,.92-.58,2.87,2.87,0,0,0,.45-1.2h1.55v4.95ZM70.1,4.62V3.05h8.16V4.62a2.41,2.41,0,0,0-1.64,1.29,14.11,14.11,0,0,0-.94,2c-.31.74-.59,1.46-.82,2.21a14.36,14.36,0,0,0-.77,4.46,5.92,5.92,0,0,0,1.67,4.58,6.87,6.87,0,0,0,4.85,1.56h1V6.3a2.4,2.4,0,0,0-.2-1.12,1.38,1.38,0,0,0-.82-.46.67.67,0,0,0-.33-.1V3.05h7.61V4.62l-.26.1a1.5,1.5,0,0,0-.82.46,2.17,2.17,0,0,0-.19,1.12V20.58h5.87V6.14a1.94,1.94,0,0,0-.2-1,1.5,1.5,0,0,0-.88-.43h-.22V3.11h7.65V4.68h-.21a1.53,1.53,0,0,0-.9.43,1.83,1.83,0,0,0-.22,1V20.58a1.85,1.85,0,0,0,.3,1.14,1.58,1.58,0,0,0,1.07.43v1.58H78.75a11.16,11.16,0,0,1-7.47-2.68,9.61,9.61,0,0,1-1.53-1.95,10.57,10.57,0,0,1-1-2.33,10,10,0,0,1,.49-6.52l.27-.7c.14-.3.27-.61.38-.92s.27-.57.39-.84l.29-.67a5.64,5.64,0,0,0,.65-1.68c0-.37-.37-.65-1.14-.8ZM112.79,27V25.43H113a1.54,1.54,0,0,0,.84-.35,1.32,1.32,0,0,0,.22-.82v-.57h-.16A12.13,12.13,0,0,1,108,22.27a10.94,10.94,0,0,1-4.21-3.92,10.18,10.18,0,0,1-1.54-5.48,9.65,9.65,0,0,1,2.23-6.34,8.68,8.68,0,0,1,2.4-1.95,9.75,9.75,0,0,1,1.73-.73,8.58,8.58,0,0,1,2-.35c.75,0,1.78-.12,3.11-.15h.4V2.64c0-.55-.45-.9-1.34-1.09V0h8V1.55c-.9.19-1.35.54-1.35,1.09v.65h.41a17.43,17.43,0,0,1,3.07.15,9.39,9.39,0,0,1,2,.36,11.84,11.84,0,0,1,1.78.72,7.77,7.77,0,0,1,2.42,2,8.94,8.94,0,0,1,1.65,2.93,10.3,10.3,0,0,1-1,8.88,11.07,11.07,0,0,1-4.23,3.92,12.1,12.1,0,0,1-5.87,1.42h-.19v.57a1.18,1.18,0,0,0,.23.82,1.66,1.66,0,0,0,.84.36h.18v1.5ZM114,20.74V6.36a6.29,6.29,0,0,0-4.56,2,7,7,0,0,0-1.57,4.87,8.47,8.47,0,0,0,.73,3.64,6.38,6.38,0,0,0,2.11,2.58A7.84,7.84,0,0,0,114,20.74Zm5.26,0a7.85,7.85,0,0,0,3.31-1.33,6.44,6.44,0,0,0,2.11-2.6,8.93,8.93,0,0,0,.72-3.64,7.08,7.08,0,0,0-1.56-4.89,6.39,6.39,0,0,0-4.58-2Zm31-12.42v-2a5.13,5.13,0,0,0,0-1A.82.82,0,0,0,150,5a2,2,0,0,0-.84-.25V3.05h7.94V4.68a1.69,1.69,0,0,0-.84.29.64.64,0,0,0-.35.39,3.09,3.09,0,0,0,0,1V20.9h0a1.32,1.32,0,0,0,.09.48,1.08,1.08,0,0,0,.32.49,1.94,1.94,0,0,0,.66.24h.24V23.6H149V22.11a1.44,1.44,0,0,0,1.06-.39,2.54,2.54,0,0,0,.25-1.33V13.7l-7.83,10h-8.08V22.17a2,2,0,0,0,1-.39,1.32,1.32,0,0,0,.25-.94V6.32a3,3,0,0,0,0-.94.74.74,0,0,0-.31-.41,2.13,2.13,0,0,0-.88-.29V3.05h7.94V4.68a1.52,1.52,0,0,0-.84.29,1,1,0,0,0-.35.43,3.54,3.54,0,0,0,0,.92v13l9.18-11Zm23.16-5.27h7.83V4.58A1.27,1.27,0,0,0,180,5.84.76.76,0,0,0,180,6V20.8a1.33,1.33,0,0,0,.27,1,1.6,1.6,0,0,0,1,.39v1.54h-7.83V22.17a1.78,1.78,0,0,0,1-.39,1.39,1.39,0,0,0,.26-1V13.7h-7.83v7a1.61,1.61,0,0,0,.22,1,2.1,2.1,0,0,0,1,.39v1.54h-7.82V22.09a1.63,1.63,0,0,0,1-.39,1.55,1.55,0,0,0,.24-1V6a1.48,1.48,0,0,0-.28-1,1.66,1.66,0,0,0-1-.41V3.05h7.82V4.58a1.27,1.27,0,0,0-1.28,1.26s0,.1,0,.15v4.73h7.83V6a1.48,1.48,0,0,0-.28-1,1.48,1.48,0,0,0-1-.41Zm11,0h16V8H199A2,2,0,0,0,196.77,6h-5.66V9.43h.36a36.51,36.51,0,0,1,5.3,1.55,16.64,16.64,0,0,1,3.68,1.95,7.51,7.51,0,0,1,2.13,2.39,6.09,6.09,0,0,1,.7,2.9,5.14,5.14,0,0,1-.74,2.73,4.28,4.28,0,0,1-2,1.78,13.3,13.3,0,0,1-5.48.89H184.48V22.07a1.46,1.46,0,0,0,1-.33,1.55,1.55,0,0,0,.27-1V6.08a1.52,1.52,0,0,0-.29-1,1.57,1.57,0,0,0-1-.45Zm6.63,9.47v8.22c.77,0,1.27.12,1.59.12a10.4,10.4,0,0,0,3.5-.49,2.69,2.69,0,0,0,1.6-2.55,3.73,3.73,0,0,0-.8-2.17,6.8,6.8,0,0,0-2.31-2,13.69,13.69,0,0,0-3.58-1.24Zm26.69,4.19h-6.67l-1.41,4.19a.74.74,0,0,1,0,.21.81.81,0,0,0,0,.31.64.64,0,0,0,.33.49,1.93,1.93,0,0,0,.8.26v1.54h-6.26V22.17A2.37,2.37,0,0,0,206,20.64L212.79,3h5.36l6.79,17.77a2.33,2.33,0,0,0,1.33,1.35v1.54h-7.82V22.15a1.53,1.53,0,0,0,.74-.26.63.63,0,0,0,.29-.52V20.9L218,16.69Zm-1.12-3-2.3-6.54-2.21,6.54ZM240.85,3.05h7.82V4.58a1.27,1.27,0,0,0-1.28,1.26s0,.1,0,.15V20.8a1.38,1.38,0,0,0,.28,1,1.72,1.72,0,0,0,1,.39v1.54h-7.82V22.17a1.78,1.78,0,0,0,1-.39,1.38,1.38,0,0,0,.27-1V13.7h-7.94v7a1.48,1.48,0,0,0,.23,1,2.17,2.17,0,0,0,1,.39v1.54h-7.83V22.09a1.74,1.74,0,0,0,1-.39,1.48,1.48,0,0,0,.23-1V6a1.53,1.53,0,0,0-.27-1,1.79,1.79,0,0,0-1-.41V3.05h7.83V4.58a1.27,1.27,0,0,0-1.28,1.26.76.76,0,0,0,0,.15v4.73h7.94V6a1.53,1.53,0,0,0-.27-1,1.57,1.57,0,0,0-1-.41ZM252,23.71V22.17a1.46,1.46,0,0,0,1-.35,1.61,1.61,0,0,0,.27-1V6a1.66,1.66,0,0,0-.25-1,1.69,1.69,0,0,0-1-.39V3.05h7.83V4.58a1.69,1.69,0,0,0-1,.41,1.48,1.48,0,0,0-.28,1v5.22l5.74-5.16c.35-.3.55-.57.55-.81s-.44-.56-1.26-.66V3.05H272V4.58a5.78,5.78,0,0,0-2.66,1.31L264.74,10,272,20.9a2.67,2.67,0,0,0,.72.78,6.3,6.3,0,0,0,1.17.49v1.54h-9.08V22.17c.69-.12,1-.35,1-.73a1.52,1.52,0,0,0-.19-.58l-4.84-7.34-2.31,2v5.24a1.62,1.62,0,0,0,.22,1,2,2,0,0,0,1,.41v1.54Z"/></g></g></g></g></svg>