<svg xmlns="http://www.w3.org/2000/svg" viewBox="0 0 21.41 40"><defs><style>.cls-1{fill:#e75c52;}</style></defs><title>walk</title><g id="Слой_2" data-name="Слой 2"><g id="Слой_1-2" data-name="Слой 1"><path class="cls-1" d="M11.49,0a4.8,4.8,0,0,1,3.26,2.27,4.41,4.41,0,0,1,.66,2.26,11,11,0,0,1-.09,2.37,4.64,4.64,0,0,1-1.69,2.77c-.17.14-.3.23-.06.44a3.46,3.46,0,0,1,1.2,2.69,6.06,6.06,0,0,1,0,.74,2.36,2.36,0,0,0,1.07,2.22c1.31,1,2.68,1.93,4,2.89.21.15.43.29.63.45a2.36,2.36,0,0,1,.46,3.28,2.33,2.33,0,0,1-3.19.58c-.88-.58-1.72-1.21-2.59-1.81-.1-.07-.2-.22-.33-.13s-.05.22-.06.33a2,2,0,0,0,.71,1.8c1,.94,2,1.94,2.94,2.91a3.3,3.3,0,0,1,.93,1.64c.66,2.91,1.37,5.82,2,8.74a3,3,0,0,1-5.88,1.37c-.33-1.2-.58-2.42-.86-3.64S14,31.8,13.8,30.6A2.71,2.71,0,0,0,12.69,29c-.14.59-.29,1.15-.38,1.72a4.26,4.26,0,0,1-1.26,2.4C9.12,35,7.23,37,5.33,39a3,3,0,0,1-2.83.95A2.87,2.87,0,0,1,.16,37.88,2.91,2.91,0,0,1,.9,34.82c1.6-1.69,3.21-3.37,4.85-5a3.14,3.14,0,0,0,.89-1.68c.26-1.42.58-2.82.88-4.23a1,1,0,0,0,0-.5,4.84,4.84,0,0,1-.21-1.77V15.34c-.63.44-1.24.7-1.4,1.56-.33,1.76-.8,3.49-1.23,5.23A2.37,2.37,0,0,1,2.34,24,2.42,2.42,0,0,1,0,21.94a2.26,2.26,0,0,1,.08-1l1.53-6.53A3,3,0,0,1,3,12.49L6.49,10.3a5.54,5.54,0,0,1,1-.51c.22-.08.23-.17.06-.32A4.82,4.82,0,0,1,6,5.5a9.23,9.23,0,0,1,.11-1.82A4.64,4.64,0,0,1,9.52.12L9.93,0ZM8.77,18.27c0,1.28,0,2.57,0,3.86a1.92,1.92,0,0,0,.63,1.49c1.7,1.68,3.38,3.38,5.08,5.06a2,2,0,0,1,.56,1q.86,3.78,1.74,7.56a1.62,1.62,0,1,0,3.15-.74c-.64-2.8-1.29-5.59-1.93-8.39a2.17,2.17,0,0,0-.62-1.1c-1.05-1-2.08-2.08-3.12-3.12a2.79,2.79,0,0,1-.92-2.19c0-.46,0-.91,0-1.37,0-.12,0-.28-.15-.31a5.17,5.17,0,0,1-1.76-1,1.45,1.45,0,0,1-.73-1.62c.18-1.12.35-2.23.51-3.35a1.55,1.55,0,0,0,0-.88c-.3-.72-.59-1.45-.87-2.17a.42.42,0,0,0-.47-.31,4.76,4.76,0,0,0-2.52.72C6.16,12.18,5,13,3.75,13.72a1.42,1.42,0,0,0-.67.88C2.54,16.86,2,19.12,1.46,21.38A1,1,0,0,0,2,22.52a1,1,0,0,0,1.33-.78c.47-2,1-4,1.41-6a1,1,0,0,1,.34-.63C6,14.56,6.8,14,7.68,13.4a.67.67,0,0,1,1.05.46,1.83,1.83,0,0,1,0,.47Zm0,6.8-.09.33c-.26,1.27-.54,2.54-.79,3.81a1.84,1.84,0,0,1-.52,1c-1.14,1.16-2.26,2.33-3.39,3.5-.69.71-1.38,1.41-2,2.14a1.62,1.62,0,1,0,2.36,2.22q3-3.11,6-6.23a2.13,2.13,0,0,0,.58-1.12c.17-.84.34-1.68.54-2.51a.74.74,0,0,0-.23-.79c-.71-.67-1.38-1.37-2.07-2.06A.72.72,0,0,0,8.73,25.07ZM14,5.4c0-.31,0-.57,0-.83a3.27,3.27,0,0,0-6.43-.75,8.48,8.48,0,0,0-.09,2.25A3.2,3.2,0,0,0,10,9.2a3.28,3.28,0,0,0,3.62-1.76A4.19,4.19,0,0,0,14,5.4ZM14.77,18h0c0,.28,0,.57,0,.85a.51.51,0,0,0,.25.49c1.14.8,2.26,1.62,3.41,2.41a1,1,0,1,0,1.1-1.56L15,16.94c-.19-.13-.25-.07-.25.13Zm-1.43-1.64c0-.62,0-1.24,0-1.87,0-.22,0-.41-.31-.41s-.4.06-.44.36c-.09.78-.24,1.56-.34,2.34-.17,1.31-.34.92.75,1.65l0,0c.24.17.31.07.31-.18C13.33,17.6,13.34,17,13.34,16.33Zm-.46-3.71c.47,0,.49,0,.38-.44a1.86,1.86,0,0,0-1.09-1.29c-.08,0-.19-.14-.28,0s0,.19,0,.28c.14.38.31.75.44,1.12S12.61,12.68,12.88,12.62Z"/></g></g></svg>