<svg xmlns="http://www.w3.org/2000/svg" xmlns:xlink="http://www.w3.org/1999/xlink" viewBox="0 0 1061.93 1062.35"><defs><style>.cls-1{fill:none;}.cls-2{clip-path:url(#clip-path);}.cls-3{fill:#fff;}</style><clipPath id="clip-path" transform="translate(12.91 37.86)"><rect class="cls-1" width="1920" height="493.66"/></clipPath></defs><title>white_sertificate</title><g id="Слой_2" data-name="Слой 2"><g id="Слой_1-2" data-name="Слой 1"><g class="cls-2"><path class="cls-3" d="M62.14,722a1,1,0,0,1-1-1V37.18a1,1,0,0,1,1.92,0V721.06A1,1,0,0,1,62.14,722Z" transform="translate(12.91 37.86)"/><path class="cls-3" d="M746,722a1,1,0,0,1-1-1V37.18a1,1,0,0,1,1.92,0V721.06A1,1,0,0,1,746,722Z" transform="translate(12.91 37.86)"/><path class="cls-3" d="M746,38.14H62.14a1,1,0,1,1,0-1.92H746a1,1,0,1,1,0,1.92Z" transform="translate(12.91 37.86)"/><path class="cls-3" d="M746,266.1H62.14a1,1,0,0,1,0-1.92H746a1,1,0,0,1,0,1.92Z" transform="translate(12.91 37.86)"/><path class="cls-3" d="M746,494.06H62.14a1,1,0,0,1,0-1.92H746a1,1,0,1,1,0,1.92Z" transform="translate(12.91 37.86)"/><path class="cls-3" d="M746,722H62.14a1,1,0,1,1,0-1.92H746a1,1,0,0,1,0,1.92Z" transform="translate(12.91 37.86)"/><path class="cls-3" d="M290.1,950a1,1,0,0,1-1-1V37.18a1,1,0,1,1,1.92,0V949A1,1,0,0,1,290.1,950Z" transform="translate(12.91 37.86)"/><path class="cls-3" d="M518.06,950a1,1,0,0,1-1-1V37.18a1,1,0,0,1,1.92,0V949A1,1,0,0,1,518.06,950Z" transform="translate(12.91 37.86)"/><path class="cls-3" d="M746,950a1,1,0,0,1-1-1V265.14a1,1,0,1,1,1.92,0V949A1,1,0,0,1,746,950Z" transform="translate(12.91 37.86)"/><path class="cls-3" d="M632,950a1,1,0,0,1-1-1V265.14a1,1,0,1,1,1.92,0V949A1,1,0,0,1,632,950Z" transform="translate(12.91 37.86)"/><path class="cls-3" d="M404.08,722a1,1,0,0,1-1-1V37.18a1,1,0,0,1,1.92,0V721.06A1,1,0,0,1,404.08,722Z" transform="translate(12.91 37.86)"/><path class="cls-3" d="M974,950a1,1,0,0,1-1-1V265.14a1,1,0,0,1,1.92,0V949A1,1,0,0,1,974,950Z" transform="translate(12.91 37.86)"/><path class="cls-3" d="M974,266.1H290.1a1,1,0,1,1,0-1.92H974a1,1,0,1,1,0,1.92Z" transform="translate(12.91 37.86)"/><path class="cls-3" d="M974,494.06H290.1a1,1,0,1,1,0-1.91H974a1,1,0,1,1,0,1.91Z" transform="translate(12.91 37.86)"/><path class="cls-3" d="M974,722H290.1a1,1,0,1,1,0-1.91H974a1,1,0,1,1,0,1.91Z" transform="translate(12.91 37.86)"/><path class="cls-3" d="M974,950H290.1a1,1,0,1,1,0-1.91H974a1,1,0,1,1,0,1.91Z" transform="translate(12.91 37.86)"/><path class="cls-3" d="M364.19,1024.07a.94.94,0,0,1-.68-.28L-12.63,647.65a1,1,0,0,1,0-1.35,1,1,0,0,1,1.36,0l376.13,376.14a.94.94,0,0,1,0,1.35A.92.92,0,0,1,364.19,1024.07Z" transform="translate(12.91 37.86)"/><path class="cls-3" d="M1048.07,340.19a1,1,0,0,1-.68-.28L671.26-36.23a.94.94,0,0,1,0-1.35.94.94,0,0,1,1.35,0l376.14,376.13a1,1,0,0,1,0,1.36A1,1,0,0,1,1048.07,340.19Z" transform="translate(12.91 37.86)"/><path class="cls-3" d="M330,682.25a.92.92,0,0,1-.67-.28.94.94,0,0,1,0-1.35l490.4-490.41a1,1,0,1,1,1.36,1.35L330.67,682A.94.94,0,0,1,330,682.25Z" transform="translate(12.91 37.86)"/><path class="cls-3" d="M215.89,340.25a1,1,0,0,1-.68-.28,1,1,0,0,1,0-1.36L591.41-37.58a.94.94,0,0,1,1.35,0,1,1,0,0,1,0,1.35L216.56,340A1,1,0,0,1,215.89,340.25Z" transform="translate(12.91 37.86)"/><path class="cls-3" d="M820.11,568.27a.94.94,0,0,1-.68-.28L215.21-36.23a1,1,0,0,1,0-1.35,1,1,0,0,1,1.36,0L820.79,566.64a1,1,0,0,1-.68,1.63Z" transform="translate(12.91 37.86)"/><path class="cls-3" d="M706.54,1024.48a.92.92,0,0,1-.67-.28L-12.63,305.71a1,1,0,0,1,0-1.35,1,1,0,0,1,1.36,0l718.49,718.49a1,1,0,0,1,0,1.35A.94.94,0,0,1,706.54,1024.48Z" transform="translate(12.91 37.86)"/><path class="cls-3" d="M592.15,568.46a.94.94,0,0,1-.68-.28L-12.63-35.92a1,1,0,0,1,0-1.35,1,1,0,0,1,1.36,0l604.1,604.09a1,1,0,0,1,0,1.36A1,1,0,0,1,592.15,568.46Z" transform="translate(12.91 37.86)"/><path class="cls-3" d="M558,1024.07a.92.92,0,0,1-.67-.28.94.94,0,0,1,0-1.35l490.11-490.12a1,1,0,1,1,1.36,1.35L558.63,1023.79A.94.94,0,0,1,558,1024.07Z" transform="translate(12.91 37.86)"/></g></g></g></svg>