<svg xmlns="http://www.w3.org/2000/svg" xmlns:xlink="http://www.w3.org/1999/xlink" viewBox="0 0 656.1 656.36"><defs><style>.cls-1{fill:none;}.cls-2{clip-path:url(#clip-path);}.cls-3{fill:#fff;}</style><clipPath id="clip-path" transform="translate(-1078.64 104.85)"><rect class="cls-1" width="1921.1" height="165.9"/></clipPath></defs><title>white_2</title><g id="Слой_2" data-name="Слой 2"><g id="Слой_1-2" data-name="Слой 1"><g class="cls-2"><path class="cls-3" d="M1125,364.63a.58.58,0,0,1-.59-.59V-58.48a.59.59,0,0,1,.59-.6.6.6,0,0,1,.59.6V364A.59.59,0,0,1,1125,364.63Z" transform="translate(-1078.64 104.85)"/><path class="cls-3" d="M1547.54,364.63a.59.59,0,0,1-.6-.59V-58.48a.6.6,0,0,1,.6-.6.6.6,0,0,1,.59.6V364A.59.59,0,0,1,1547.54,364.63Z" transform="translate(-1078.64 104.85)"/><path class="cls-3" d="M1547.53-57.89H1125a.59.59,0,0,1-.59-.59.59.59,0,0,1,.59-.6h422.52a.6.6,0,0,1,.6.6A.6.6,0,0,1,1547.53-57.89Z" transform="translate(-1078.64 104.85)"/><path class="cls-3" d="M1547.53,83H1125a.59.59,0,0,1,0-1.18h422.52a.59.59,0,1,1,0,1.18Z" transform="translate(-1078.64 104.85)"/><path class="cls-3" d="M1547.53,223.79H1125a.59.59,0,0,1,0-1.18h422.52a.59.59,0,1,1,0,1.18Z" transform="translate(-1078.64 104.85)"/><path class="cls-3" d="M1547.53,364.63H1125a.58.58,0,0,1-.59-.59.59.59,0,0,1,.59-.59h422.52a.6.6,0,0,1,.6.59A.59.59,0,0,1,1547.53,364.63Z" transform="translate(-1078.64 104.85)"/><path class="cls-3" d="M1265.85,505.48a.59.59,0,0,1-.59-.59V-58.48a.59.59,0,0,1,.59-.6.59.59,0,0,1,.59.6V504.89A.59.59,0,0,1,1265.85,505.48Z" transform="translate(-1078.64 104.85)"/><path class="cls-3" d="M1406.69,505.48a.6.6,0,0,1-.59-.59V-58.48a.6.6,0,0,1,.59-.6.59.59,0,0,1,.59.6V504.89A.59.59,0,0,1,1406.69,505.48Z" transform="translate(-1078.64 104.85)"/><path class="cls-3" d="M1547.54,505.48a.6.6,0,0,1-.6-.59V82.36a.6.6,0,0,1,1.19,0V504.89A.6.6,0,0,1,1547.54,505.48Z" transform="translate(-1078.64 104.85)"/><path class="cls-3" d="M1477.11,505.48a.6.6,0,0,1-.59-.59V82.36a.6.6,0,0,1,1.19,0V504.89A.6.6,0,0,1,1477.11,505.48Z" transform="translate(-1078.64 104.85)"/><path class="cls-3" d="M1336.27,364.63a.58.58,0,0,1-.59-.59V-58.48a.59.59,0,0,1,.59-.6.59.59,0,0,1,.59.6V364A.58.58,0,0,1,1336.27,364.63Z" transform="translate(-1078.64 104.85)"/><path class="cls-3" d="M1688.38,505.48a.59.59,0,0,1-.59-.59V82.36a.58.58,0,0,1,.59-.59.59.59,0,0,1,.59.59V504.89A.6.6,0,0,1,1688.38,505.48Z" transform="translate(-1078.64 104.85)"/><path class="cls-3" d="M1688.38,83H1265.85a.59.59,0,0,1,0-1.18h422.53a.59.59,0,1,1,0,1.18Z" transform="translate(-1078.64 104.85)"/><path class="cls-3" d="M1688.38,223.79H1265.85a.59.59,0,1,1,0-1.18h422.53a.59.59,0,0,1,0,1.18Z" transform="translate(-1078.64 104.85)"/><path class="cls-3" d="M1688.38,364.64H1265.85a.6.6,0,0,1,0-1.19h422.53a.6.6,0,0,1,0,1.19Z" transform="translate(-1078.64 104.85)"/><path class="cls-3" d="M1688.38,505.48H1265.85a.6.6,0,0,1,0-1.19h422.53a.6.6,0,0,1,0,1.19Z" transform="translate(-1078.64 104.85)"/><path class="cls-3" d="M1311.62,551.25a.58.58,0,0,1-.41-.17L1078.82,318.69a.59.59,0,0,1,.83-.84L1312,550.24a.6.6,0,0,1,0,.84A.59.59,0,0,1,1311.62,551.25Z" transform="translate(-1078.64 104.85)"/><path class="cls-3" d="M1734.15,128.72a.58.58,0,0,1-.42-.17L1501.34-103.84a.6.6,0,0,1,0-.84.6.6,0,0,1,.84,0l232.39,232.39a.6.6,0,0,1,0,.84A.58.58,0,0,1,1734.15,128.72Z" transform="translate(-1078.64 104.85)"/><path class="cls-3" d="M1290.5,340.06a.58.58,0,0,1-.42-.17.6.6,0,0,1,0-.84l303-303a.59.59,0,0,1,.84.84l-303,303A.58.58,0,0,1,1290.5,340.06Z" transform="translate(-1078.64 104.85)"/><path class="cls-3" d="M1220,128.76a.63.63,0,0,1-.42-.17.6.6,0,0,1,0-.84L1452-104.68a.59.59,0,0,1,.83,0,.58.58,0,0,1,0,.84L1220.42,128.59A.63.63,0,0,1,1220,128.76Z" transform="translate(-1078.64 104.85)"/><path class="cls-3" d="M1593.31,269.64a.63.63,0,0,1-.42-.17L1219.58-103.84a.6.6,0,0,1,0-.84.6.6,0,0,1,.84,0l373.31,373.31a.6.6,0,0,1,0,.84A.63.63,0,0,1,1593.31,269.64Z" transform="translate(-1078.64 104.85)"/><path class="cls-3" d="M1523.14,551.51a.55.55,0,0,1-.41-.18L1078.82,107.42a.57.57,0,0,1,0-.83.59.59,0,0,1,.83,0L1523.56,550.5a.59.59,0,0,1,0,.83A.56.56,0,0,1,1523.14,551.51Z" transform="translate(-1078.64 104.85)"/><path class="cls-3" d="M1452.47,269.76a.63.63,0,0,1-.42-.17L1078.82-103.65a.57.57,0,0,1,0-.83.57.57,0,0,1,.83,0l373.24,373.23a.6.6,0,0,1,0,.84A.63.63,0,0,1,1452.47,269.76Z" transform="translate(-1078.64 104.85)"/><path class="cls-3" d="M1431.34,551.25a.63.63,0,0,1-.42-.17.6.6,0,0,1,0-.84l302.81-302.81a.59.59,0,1,1,.84.84L1431.76,551.08A.63.63,0,0,1,1431.34,551.25Z" transform="translate(-1078.64 104.85)"/></g></g></g></svg>