<svg xmlns="http://www.w3.org/2000/svg" xmlns:xlink="http://www.w3.org/1999/xlink" viewBox="0 0 521.04 521.25"><defs><style>.cls-1{fill:none;}.cls-2{clip-path:url(#clip-path);}.cls-3{fill:#fff;}</style><clipPath id="clip-path" transform="translate(-907.53 57.79)"><rect class="cls-1" width="1457.34" height="221.54"/></clipPath></defs><title>white</title><g id="Слой_2" data-name="Слой 2"><g id="Слой_1-2" data-name="Слой 1"><g class="cls-2"><path class="cls-3" d="M944.35,315.06a.48.48,0,0,1-.47-.47V-21a.47.47,0,0,1,.47-.46.47.47,0,0,1,.47.46V314.59A.48.48,0,0,1,944.35,315.06Z" transform="translate(-907.53 57.79)"/><path class="cls-3" d="M1279.9,315.06a.48.48,0,0,1-.47-.47V-21a.47.47,0,0,1,.47-.46.47.47,0,0,1,.47.46V314.59A.48.48,0,0,1,1279.9,315.06Z" transform="translate(-907.53 57.79)"/><path class="cls-3" d="M1279.9-20.49H944.35a.47.47,0,0,1-.47-.47.47.47,0,0,1,.47-.47H1279.9a.47.47,0,0,1,.47.47A.47.47,0,0,1,1279.9-20.49Z" transform="translate(-907.53 57.79)"/><path class="cls-3" d="M1279.9,91.36H944.35a.47.47,0,0,1,0-.94H1279.9a.47.47,0,1,1,0,.94Z" transform="translate(-907.53 57.79)"/><path class="cls-3" d="M1279.9,203.21H944.35a.48.48,0,0,1-.47-.47.47.47,0,0,1,.47-.47H1279.9a.47.47,0,0,1,.47.47A.48.48,0,0,1,1279.9,203.21Z" transform="translate(-907.53 57.79)"/><path class="cls-3" d="M1279.9,315.06H944.35a.48.48,0,0,1-.47-.47.47.47,0,0,1,.47-.47H1279.9a.47.47,0,0,1,.47.47A.48.48,0,0,1,1279.9,315.06Z" transform="translate(-907.53 57.79)"/><path class="cls-3" d="M1056.2,426.91a.47.47,0,0,1-.47-.47V-21a.47.47,0,0,1,.47-.47.47.47,0,0,1,.47.47v447.4A.47.47,0,0,1,1056.2,426.91Z" transform="translate(-907.53 57.79)"/><path class="cls-3" d="M1168.05,426.91a.47.47,0,0,1-.47-.47V-21a.47.47,0,0,1,.47-.47.47.47,0,0,1,.47.47v447.4A.47.47,0,0,1,1168.05,426.91Z" transform="translate(-907.53 57.79)"/><path class="cls-3" d="M1279.9,426.91a.48.48,0,0,1-.47-.47V90.89a.47.47,0,1,1,.94,0V426.44A.48.48,0,0,1,1279.9,426.91Z" transform="translate(-907.53 57.79)"/><path class="cls-3" d="M1224,426.91a.47.47,0,0,1-.46-.47V90.89a.47.47,0,1,1,.93,0V426.44A.48.48,0,0,1,1224,426.91Z" transform="translate(-907.53 57.79)"/><path class="cls-3" d="M1112.12,315.06a.48.48,0,0,1-.47-.47V-21a.47.47,0,0,1,.47-.46.47.47,0,0,1,.47.46V314.59A.48.48,0,0,1,1112.12,315.06Z" transform="translate(-907.53 57.79)"/><path class="cls-3" d="M1391.75,426.91a.48.48,0,0,1-.47-.47V90.89a.47.47,0,0,1,.94,0V426.44A.48.48,0,0,1,1391.75,426.91Z" transform="translate(-907.53 57.79)"/><path class="cls-3" d="M1391.75,91.36H1056.2a.47.47,0,0,1,0-.94h335.55a.47.47,0,1,1,0,.94Z" transform="translate(-907.53 57.79)"/><path class="cls-3" d="M1391.75,203.21H1056.2a.47.47,0,0,1,0-.94h335.55a.47.47,0,1,1,0,.94Z" transform="translate(-907.53 57.79)"/><path class="cls-3" d="M1391.75,315.06H1056.2a.47.47,0,0,1,0-.94h335.55a.47.47,0,0,1,0,.94Z" transform="translate(-907.53 57.79)"/><path class="cls-3" d="M1391.75,426.91H1056.2a.47.47,0,0,1,0-.94h335.55a.47.47,0,0,1,0,.94Z" transform="translate(-907.53 57.79)"/><path class="cls-3" d="M1092.55,463.26a.47.47,0,0,1-.33-.14L907.67,278.57a.47.47,0,0,1,0-.67.47.47,0,0,1,.66,0l184.55,184.56a.45.45,0,0,1,0,.66A.47.47,0,0,1,1092.55,463.26Z" transform="translate(-907.53 57.79)"/><path class="cls-3" d="M1428.1,127.71a.47.47,0,0,1-.33-.14L1243.22-57a.47.47,0,0,1,0-.67.47.47,0,0,1,.66,0L1428.43,126.9a.46.46,0,0,1,0,.67A.47.47,0,0,1,1428.1,127.71Z" transform="translate(-907.53 57.79)"/><path class="cls-3" d="M1075.77,295.54a.43.43,0,0,1-.33-.14.47.47,0,0,1,0-.66L1316.06,54.12a.47.47,0,0,1,.67,0,.47.47,0,0,1,0,.66L1076.11,295.4A.47.47,0,0,1,1075.77,295.54Z" transform="translate(-907.53 57.79)"/><path class="cls-3" d="M1019.79,127.74a.51.51,0,0,1-.34-.14.47.47,0,0,1,0-.66L1204-57.65a.47.47,0,0,1,.66,0,.48.48,0,0,1,0,.67L1020.12,127.6A.47.47,0,0,1,1019.79,127.74Z" transform="translate(-907.53 57.79)"/><path class="cls-3" d="M1316.25,239.62a.47.47,0,0,1-.33-.14L1019.46-57a.47.47,0,0,1,0-.67.47.47,0,0,1,.66,0l296.46,296.47a.45.45,0,0,1,0,.66A.47.47,0,0,1,1316.25,239.62Z" transform="translate(-907.53 57.79)"/><path class="cls-3" d="M1260.53,463.46a.47.47,0,0,1-.33-.14L907.67,110.79a.47.47,0,0,1,.66-.66l352.53,352.53a.45.45,0,0,1,0,.66A.47.47,0,0,1,1260.53,463.46Z" transform="translate(-907.53 57.79)"/><path class="cls-3" d="M1204.4,239.71a.47.47,0,0,1-.33-.14L907.67-56.83a.46.46,0,0,1,0-.67.47.47,0,0,1,.66,0l296.4,296.41a.45.45,0,0,1,0,.66A.47.47,0,0,1,1204.4,239.71Z" transform="translate(-907.53 57.79)"/><path class="cls-3" d="M1187.62,463.26a.47.47,0,0,1-.33-.8L1427.77,222a.47.47,0,0,1,.66.66L1188,463.12A.51.51,0,0,1,1187.62,463.26Z" transform="translate(-907.53 57.79)"/></g></g></g></svg>